<svg xmlns="http://www.w3.org/2000/svg" width="492.852" height="694.312" viewBox="0 0 492.852 694.312">
  <g id="covlie_homepage_illustration" transform="translate(-1299 -210)">
    <g id="Group_20" data-name="Group 20" transform="translate(1301.812 368.457)">
      <path id="Path_163" data-name="Path 163" d="M2733.135,403.955c-14.893,24.843-50.514,32.463-69.592,31.545-36.907-1.781-52.239-34.006-85.218-25.137a69,69,0,0,0-6.664,32.666c13.146,1.157,32.849,3.58,35.843,7.694,4.536,6.224,0,37.035,0,37.035s53.67-9.346,56.04-10.521c2.35-1.176,4.61-3.949,35.365-29.893,1.762-1.488,8.134-1.194,7.821.881,9.9-3.047,23.6-4.663,33.162-5.49C2740.7,438.217,2743,411.758,2733.135,403.955Z" transform="translate(-2571.568 -403.955)" fill="#ffe000"/>
      <path id="Path_164" data-name="Path 164" d="M2728.59,520.049a47.844,47.844,0,0,1-6.039,9.679c-.414.532-.867,1.067-1.333,1.613a37.254,37.254,0,0,1-16.569,11.438c-20.463,6.505-27.448,6.011-31.981,4.612-4.025-1.214-6.132-3.146-14.077-1.454a227.647,227.647,0,0,1-28.608,4.52c-34.02,2.878-35.739-9.012-40.738-12.091-1.305-.814-2.626-1.547-3.9-2.214-.4-.214-.8-.413-1.187-.613a80.963,80.963,0,0,0-7.8-3.479s6.838-15.424,13.5-24.635a19.061,19.061,0,0,0,2.666-7.692c7.384-1.053,25.528-8.318,44.643-16.81,8.186,2.146,48.217,8.038,73.612,4.319.107.546.173,1.013.213,1.359C2712.18,500.574,2728.59,520.049,2728.59,520.049Z" transform="translate(-2569.715 -373.391)" fill="#ffe000"/>
    </g>
    <path id="Path_166" data-name="Path 166" d="M2684.737,362.586c2.131,24.825,6.758,27.616-13,27.616-1.487,0-2.826.055-4.021.147l-.716.054c-.992.093-1.892.2-2.7.349l-.716.165c.092-.036.2-.074.312-.11-8.264,1.028-8.576-1.616-17.169-10.576-5.49-11.238-7.6-23.632-3.4-36.669a134.29,134.29,0,0,1,5.746-14.873l34.87-8.282a53.965,53.965,0,0,1-1.763,20.253C2690.962,352.193,2696.231,356.783,2684.737,362.586Z" transform="translate(-1242.842 -67.833)" fill="#e2a161"/>
    <path id="Path_167" data-name="Path 167" d="M2645.16,363.539a83.176,83.176,0,0,0,10.026,15.551c.771.956,1.56,1.91,2.369,2.846.826-3.158,1.818-6.371,4.462-7.712.091-.036.2-.074.313-.11C2654.065,375.143,2653.753,372.5,2645.16,363.539Z" transform="translate(-1241.274 -51.14)" fill="#e2a161"/>
    <rect id="Rectangle_28" data-name="Rectangle 28" width="33.484" height="45.002" transform="translate(1342.354 810.274)" fill="#e2a161"/>
    <rect id="Rectangle_29" data-name="Rectangle 29" width="33.484" height="53.533" transform="translate(1445.009 807.85)" fill="#e2a161"/>
    <path id="Path_168" data-name="Path 168" d="M2638.677,760.782c0-15.072-15.737-18.588-21-18.588a18.913,18.913,0,0,0-18.481,16.034s-5.317,27.738-5.463,29.165c1.185,6.723,6.311,13.388,24.656,13.189,17.993-.208,23.447-7.407,24.733-14.467C2643.034,785.188,2638.677,760.782,2638.677,760.782Z" transform="translate(-1261.177 95.411)" fill="#f4274e"/>
    <path id="Path_169" data-name="Path 169" d="M2643.438,780.513c-.722,7.535-5.543,15.918-24.96,16.127-21.043.232-24.689-8.557-24.961-16.127a39.77,39.77,0,0,1,.305-5.376c1.186,6.723,6.311,13.388,24.655,13.189,17.994-.208,23.448-7.407,24.734-14.467A36.941,36.941,0,0,1,2643.438,780.513Z" transform="translate(-1261.265 107.667)" fill="#c11036"/>
    <path id="Path_170" data-name="Path 170" d="M2751.179,769.039s-5.058,0-40.512-20.524c-3.863-2.236-11.909,11.691-13.053,12.672-2.67,2.289-7.155,1.351-10.123-.535-3.23-2.054-7.457-7.018-9.479-7.018-10.472,0-8.009,33.23-8.009,33.23h97.775l.2-1.055C2767.982,775.549,2762.209,773.938,2751.179,769.039Z" transform="translate(-1231.756 97.764)" fill="#f4274e"/>
    <path id="Path_171" data-name="Path 171" d="M2748.618,776.1h-78.686v10.287h97.775V776.1Z" transform="translate(-1231.687 108.532)" fill="#c11036"/>
    <path id="Path_172" data-name="Path 172" d="M2757.422,663.237c-4.586,114.789-6.532,142.61-6.532,142.61h-45.03c-1.839,0-5.518-144.076-5.518-144.076l-34.914-62.2-17.1,207.21h-49.11s-.786-75.531-2.012-111.363-3.533-81.023-10.945-104.632a135.183,135.183,0,0,1-3.492-68.306c.387.2.786.4,1.187.613,1.278.667,2.6,1.4,3.9,2.214,5,3.079,6.719,14.969,40.739,12.091a227.65,227.65,0,0,0,28.608-4.52c7.945-1.692,10.052.24,14.077,1.454,4.533,1.4,11.518,1.893,31.981-4.612a37.253,37.253,0,0,0,16.569-11.438c.466-.546.92-1.081,1.333-1.613C2731.36,554.073,2758.114,646.281,2757.422,663.237Z" transform="translate(-1266.516 8.126)" fill="#4f0064"/>
    <path id="Path_173" data-name="Path 173" d="M2711.622,500.523c-3.713,3.3-10.092,5.318-17.814,6.457-25.4,3.727-65.421-2.172-73.606-4.319.148-.058.339-.151.576-.255.825-.361,2.168-.964,3.9-1.753,1.118-.5,2.225-1.011,3.341-1.522.316-.139.622-.29.949-.43.2-.093.4-.173.586-.266.474-.209.938-.43,1.4-.651,1-.465,2.043-.94,3.127-1.44a.322.322,0,0,0,.112-.058c.746-.348,1.513-.707,2.293-1.068.677-.313,1.377-.638,2.076-.964.1-.046.215-.093.316-.15.406-.186.813-.384,1.219-.57,1.434-.673,2.844-1.347,4.244-2.008,1.017-.476,2.056-.964,3.095-1.463,14.246-6.78,29.227-14.245,32-16.8a1.675,1.675,0,0,0,.238-.221c3.07-3.472,6.875-26.808,8.229-35.633,9.9-3.053,23.606-4.678,33.168-5.491C2720.824,433.369,2725.317,488.38,2711.622,500.523Z" transform="translate(-1250.933 -24.675)" fill="#ce9159"/>
    <path id="Path_174" data-name="Path 174" d="M2925.083,838.86c.174,11.411-45.924,9.211-46.07,1.56-.121-5.279-22.116-154.395-35.514-238.911-11.024,83.476-30.753,235.684-30.86,241.256-.147,7.826-43.4-.865-43.4-.865l3.2-182.536q0-8.9.174-17.116c1.119-53.416,7.558-85.8,16.023-104.965h114.376c2.533,16.063,5.866,33.5,7.4,41.338.52,2.68.827,4.239.827,4.239s1.4,20.622,3.319,50.683C2918.431,694.184,2924.39,793.229,2925.083,838.86Z" transform="translate(-1193.253 16.104)" fill="#0060aa"/>
    <path id="Path_175" data-name="Path 175" d="M2766.672,782.6c9.121,8.994,41.416,9.023,50.51,0,2.25-2.228,1.719-7.995.968-12.963a4.2,4.2,0,0,1-.968,1.542c-9.095,9.023-41.389,8.993-50.51,0a6.036,6.036,0,0,1-1.5-2.77C2764.4,774.064,2764.133,780.117,2766.672,782.6Z" transform="translate(-1195.033 105.558)" fill="#dd6e00"/>
    <path id="Path_176" data-name="Path 176" d="M2847.741,782.6c9.12,8.994,41.414,9.023,50.51,0,2.25-2.228,1.717-7.995.967-12.963a4.22,4.22,0,0,1-.967,1.542c-9.1,9.023-41.39,8.993-50.51,0a6.022,6.022,0,0,1-1.5-2.77C2845.467,774.064,2845.2,780.117,2847.741,782.6Z" transform="translate(-1163.659 105.558)" fill="#dd6e00"/>
    <path id="Path_177" data-name="Path 177" d="M2737.277,595.4c-5.622,2.831-22.352-10.892-22.6-13.958-.094-1.118-.733-6.559,1.615-18.18,1.285-6.315,11.166-13.02,15.783-22.849l25.975,10.368s-2.016,13.49-4.12,22.45c-.991,4.222-13.588,9.976-13.588,9.976C2740.295,583.481,2739.411,594.335,2737.277,595.4Z" transform="translate(-1214.426 17.316)" fill="#fabe79"/>
    <path id="Path_178" data-name="Path 178" d="M2851.417,360.414v8.759a48.528,48.528,0,0,1-3.666,3.253c-.867.706-1.76,1.359-2.639,1.96-4.532,3.106-9.092,4.852-12.851,4.852h-.04L2844,403.272l1.813,3.692c-.466.454-.972.893-1.493,1.32a21.484,21.484,0,0,1-1.919,1.333,19.812,19.812,0,0,1-10.385,2.906,19.543,19.543,0,0,1-16.436-8.772v-.012a18.333,18.333,0,0,1-2.946-9.959V360.414Z" transform="translate(-1176.455 -52.35)" fill="#fabe79"/>
    <path id="Path_179" data-name="Path 179" d="M2778.01,493.949c.015-.014,0-.014,0-.014l.015-.029" transform="translate(-1189.857 -0.684)" fill="none"/>
    <path id="Path_180" data-name="Path 180" d="M2854,369.926" transform="translate(-1160.447 -48.668)" fill="none"/>
    <path id="Path_181" data-name="Path 181" d="M2872.117,360.044c-1.413,11.146-7.289,20.987-14.249,27.854-6.371,6.28-13.623,10.063-19.151,10.063h-.036c-5.95-.018-13.277-3.82-19.593-10.136-7.162-7.2-13-17.626-13.973-29.415-5.674-.882-13.184-15.223-6.591-22.126a7.21,7.21,0,0,1,5.655-1.946c.22-13.295,5.234-22.31,34.538-22.31,27.248,0,33.014,8.96,33.915,22.2a13.185,13.185,0,0,1,7.491,2.351C2884.677,340.691,2881.372,358.245,2872.117,360.044Z" transform="translate(-1182.913 -71.076)" fill="#fabe79"/>
    <path id="Path_182" data-name="Path 182" d="M2872.867,358.748c.139-5.149-4.878-14.343-5.074-18.778-.6-14.017-.485-19.3-28.728-19.3-30.14,0-28.221,5.85-28.194,19.774.014,4.61-5.846,13.4-5.652,18.787a41.393,41.393,0,0,1-10.185-27.158c0-23.4,19.6-42.363,43.807-42.363s43.793,18.963,43.793,42.363A41.392,41.392,0,0,1,2872.867,358.748Z" transform="translate(-1183.268 -79.713)"/>
    <path id="Path_183" data-name="Path 183" d="M2845.7,559.663s1.53.155,3.912.355h-3.294Z" transform="translate(-1163.659 24.766)" fill="none"/>
    <path id="Path_184" data-name="Path 184" d="M2817.663,779.56c-.267-1.282-.508-2.408-.63-3.269-1.185-8.372-7.79-27.46-15.433-31.326-3.967-2.01-14.78-2.01-18.724,0-8.152,4.13-15.07,20.324-16.353,27.968-.29,1.7-.943,4.264-1.45,6.981a1.333,1.333,0,0,1-.049.309,4.5,4.5,0,0,0,1.5,2.143c9.121,6.959,41.415,6.981,50.51,0a3.278,3.278,0,0,0,.968-1.193C2817.88,780.621,2817.783,780.069,2817.663,779.56Z" transform="translate(-1194.883 95.9)" fill="#fc9606"/>
    <path id="Path_185" data-name="Path 185" d="M2898.729,779.56c-.266-1.282-.507-2.408-.628-3.269-1.186-8.372-7.79-27.46-15.435-31.326-3.967-2.01-14.78-2.01-18.724,0-8.152,4.13-15.07,20.324-16.351,27.968-.292,1.7-.945,4.264-1.453,6.981a1.332,1.332,0,0,1-.049.309,4.482,4.482,0,0,0,1.5,2.143c9.119,6.959,41.413,6.981,50.51,0a3.282,3.282,0,0,0,.967-1.193C2898.947,780.621,2898.85,780.069,2898.729,779.56Z" transform="translate(-1163.508 95.9)" fill="#fc9606"/>
    <path id="Path_186" data-name="Path 186" d="M2860.732,577.007v.08c.067.947-1.052,8.4-2.786,19.156-5.491,34.072-17.116,101.378-17.116,101.378-1.521,8.239-7.518,10.159-13.97,9.559-4.56-.413-21.9-3.266-36.579-5.973-12.159-2.24-22.476-4.4-22.183-5.013,1.28-2.718,30.38-157.3,30.981-160.073L2759.5,616.613l-35.925-13.823,38.631-85.569,18.2-96.94a25.77,25.77,0,0,1,14.436-18.45l33.54-16.89-8.464,97.861,23.421,10.276s-15.864,15.637-14.624,15.637c.666,0,11.6,23.555,21.276,44.685,2.559,5.6,5.024,11,7.184,15.769C2858.373,571.809,2860.639,576.835,2860.732,577.007Z" transform="translate(-1210.926 -42.857)" fill="#fff"/>
    <path id="Path_187" data-name="Path 187" d="M2845.952,366.729v24.607a18.508,18.508,0,0,1-5.6,13.184l-13.6-27.727h.04c3.76,0,8.319-1.746,12.851-4.852.88-.6,1.773-1.254,2.639-1.96A48.35,48.35,0,0,0,2845.952,366.729Z" transform="translate(-1170.991 -49.905)" fill="#e2a161"/>
    <path id="Path_188" data-name="Path 188" d="M2830.093,545.35l1.867,9.451c.76-2.825,1.585-5.919,2.466-9.159Zm68.533,88.422a20.344,20.344,0,0,1-11.145,5.465c-14.318,2.307-31.247-8.052-34.486-9.945h-6.305l-6.212-31.393-7.492-37.885-1.026-5.212c-2.253,8.372-3.452,24.288-3.493,24.821v.014l1.146,18.263,6.212,98.9c1.973,10.971,8.812,10.57,15.571,8.532l40.231-11.171,20.955-5.826Zm61.547-130.12-48.643-90.86a37.424,37.424,0,0,0-12.05-12.3l-40.726-19.823-.907,102.753L2837.1,486.8s11.332,13.238,10.105,13.238c0,0-.014,0-.014.013s-.027.026-.027.04a.847.847,0,0,1-.054.107c-.96,2.226-7.532,26.3-12.69,45.431v.013l1.839.121,51.722,3.493v-.014l9.384-60.121,20.263,29.488-12.118,31.82v.013l-18.155,47.711-.814,2.119.986.946,13.958,13.357,3.707,3.533,8.971,8.584,17.942-41.684,28.688-66.666A16.918,16.918,0,0,0,2960.173,503.652Z" transform="translate(-1170.329 -44.512)" fill="#fff"/>
    <path id="Path_189" data-name="Path 189" d="M2681.724,326.561l-34.87,8.282c6.115-13.386,14.525-24.752,26.111-30.04.2-.11.422-.183.642-.294C2676.859,305.868,2683.284,318.629,2681.724,326.561Z" transform="translate(-1240.619 -73.987)" fill="#4f0064"/>
    <path id="Path_190" data-name="Path 190" d="M2731.249,445.939c-14.893,24.843-50.514,32.463-69.592,31.545-36.907-1.781-52.239-34.006-85.217-25.137,1.6-3.838,10.631-19.317,16.618-23.173,49.082-31.527,13.24-62.045,23.742-101.485,10.32-38.8,61.347-38.818,84.115-19.7-.019,0-.036.018-.056.018-.22.111-.44.185-.642.294-11.586,5.289-20,16.654-26.111,30.04a134.09,134.09,0,0,0-5.746,14.873c-4.206,13.037-2.093,25.431,3.4,36.669a83.138,83.138,0,0,0,10.026,15.551c.771.956,1.56,1.91,2.369,2.846.826-3.158,1.817-6.371,4.462-7.712l.716-.165c.807-.147,1.708-.257,2.7-.35-1.653,2.9-3.947,6.887-1.083,15.479C2697.922,436.464,2712.409,430.643,2731.249,445.939Z" transform="translate(-1267.871 -77.482)" fill="#f4274e"/>
    <path id="Path_191" data-name="Path 191" d="M2707.514,437.322c-1.359,8.833-5.16,32.169-8.227,35.64a1.375,1.375,0,0,1-.238.221c-2.332,1.983-15.589,8.888-32.042,16.8-1.008.477-2.038.974-3.065,1.469-1.4.662-2.81,1.322-4.241,2-.405.185-.809.386-1.212.57a2.835,2.835,0,0,1-.33.147c-.7.33-1.4.66-2.075.972-.771.35-1.542.716-2.278,1.065a.9.9,0,0,1-.128.055c-1.029.5-2.074.972-3.122,1.431-.459.221-.918.441-1.4.662-.2.091-.385.165-.588.257-.33.147-.642.294-.954.441-1.121.515-2.222,1.01-3.341,1.524-1.286.569-2.59,1.157-3.894,1.743-.183.093-.385.167-.568.258-19.134,8.5-37.275,15.754-44.656,16.819a9.849,9.849,0,0,1-1.983.109c-6.316-.422-18.637-5.343-20.786-11.457-6.629-18.693.441-74.237.056-75.926,13.146,1.157,32.849,3.58,35.842,7.694,4.536,6.224,0,37.035,0,37.035s53.671-9.346,56.04-10.521c2.35-1.176,4.609-3.949,35.365-29.893C2701.455,434.953,2707.827,435.247,2707.514,437.322Z" transform="translate(-1270.541 -24.595)" fill="#e2a161"/>
    <path id="Path_192" data-name="Path 192" d="M2862.911,411.832l1.333,65.8h-2.666l-1.333-65.8c0-17.1-6.712-27.979-19.439-39.25l-.753-1.276C2856.063,378.4,2862.911,393.224,2862.911,411.832Z" transform="translate(-1165.844 -48.134)" fill="#0060aa"/>
    <path id="Path_193" data-name="Path 193" d="M2833.85,582.122v.081c-9.052-19.689-31.487-68.372-32.02-68.372-1.24,0,14.624-15.637,14.624-15.637l-23.422-10.276,8.584-97.288a9.632,9.632,0,0,1,3.027-6.691l15.583-12.211,2.946,27.635v.012l8.958,83.476Z" transform="translate(-1184.043 -47.971)" fill="#ddd"/>
    <path id="Path_194" data-name="Path 194" d="M2833.771,575.367v.014l1.146,18.263h-12.264c1.734-10.758,2.854-18.209,2.787-19.156v-.08l-1.72-99.273-8.958-83.476a19.543,19.543,0,0,0,16.437,8.772,19.81,19.81,0,0,0,10.385-2.906S2833.771,573.449,2833.771,575.367Z" transform="translate(-1175.633 -40.257)" fill="#f4274e"/>
    <path id="Path_195" data-name="Path 195" d="M2858.754,384.436v.252l-.907,102.753-20.743,3.386s11.332,13.238,10.105,13.238c0,0-.014,0-.014.013s-.027.026-.027.04a.852.852,0,0,1-.054.107c-.8,2.107-6.1,24.915-10.851,45.564-1.146,4.985-2.266,9.838-3.279,14.25-2.44,10.718-4.293,18.783-4.519,19.609,0-1.918,7.812-177.842,7.812-177.842l1.6-6.346,7.413-29.194,10.064,7.386A8.314,8.314,0,0,1,2858.754,384.436Z" transform="translate(-1170.329 -48.537)" fill="#ddd"/>
    <path id="Path_196" data-name="Path 196" d="M2802.935,409.884c1.05-15.368,8.724-29.767,21.7-36.425v-2.972c-14.531,6.909-23.348,22.6-24.381,39.536-.561.06-1.118.133-1.667.241-11.145,1.986-16.957,11.745-16.957,23.462v37.766c0,7.719,3.612,14.01,11.344,14.01h.893v-2.666h-.893c-6.253,0-8.679-5.093-8.679-11.345V433.726c0-10.224,4.612-18.782,14.265-20.756a19.317,19.317,0,0,1,2.666-.359,15.388,15.388,0,0,1,1.587-.067c11.677,0,17.182,9.5,17.182,21.181v37.766a11.133,11.133,0,0,1-2.067,6.491,10.8,10.8,0,0,1-2.612,2.667c-1.866,1.373-.173,2.186-2.667,2.186h-.892V485.5h.892c4.226,0,4.026-1.879,6.6-4.852a14.7,14.7,0,0,0,1.813-2.667,13.883,13.883,0,0,0,1.6-6.491V433.726C2822.664,420.61,2816.023,409.949,2802.935,409.884Z" transform="translate(-1188.455 -48.451)" fill="#0060aa"/>
    <g id="Group_29" data-name="Group 29" transform="translate(1602.271 432.606)">
      <g id="Group_28" data-name="Group 28">
        <path id="Path_197" data-name="Path 197" d="M2791.972,450.2a3.311,3.311,0,1,0,3.784,3.277A3.557,3.557,0,0,0,2791.972,450.2Z" transform="translate(-2788.189 -450.204)" fill="#fc9606"/>
        <ellipse id="Ellipse_15" data-name="Ellipse 15" cx="3.783" cy="3.277" rx="3.783" ry="3.277" transform="translate(16.457 0.001)" fill="#fc9606"/>
      </g>
    </g>
    <circle id="Ellipse_16" data-name="Ellipse 16" cx="8.342" cy="8.342" r="8.342" transform="translate(1688.725 425.147)" fill="#0060aa"/>
    <circle id="Ellipse_17" data-name="Ellipse 17" cx="5.767" cy="5.767" r="5.767" transform="translate(1691.3 427.723)" fill="#fc9606"/>
    <path id="Path_198" data-name="Path 198" d="M2845.738,559.686c.079.04.279.159.573.319h-.066C2845.99,559.845,2845.817,559.739,2845.738,559.686Z" transform="translate(-1163.644 24.775)" fill="#27ae60"/>
    <path id="Rectangle_30" data-name="Rectangle 30" d="M0,0H45.671a0,0,0,0,1,0,0V47.948a5.815,5.815,0,0,1-5.815,5.815H5.815A5.815,5.815,0,0,1,0,47.948V0A0,0,0,0,1,0,0Z" transform="translate(1587.14 548.255) rotate(9.033)" fill="#ddd"/>
    <path id="Path_199" data-name="Path 199" d="M2858.215,590.583l29.173-4.638a8.066,8.066,0,0,0,6.7-9.232l-4.888-30.746h-16.309l-31.082-7.214,7.174,45.131A8.066,8.066,0,0,0,2858.215,590.583Z" transform="translate(-1165.165 16.673)" fill="#ddd"/>
    <path id="Path_200" data-name="Path 200" d="M2922.128,572.273H2880.51c1.573-3.785,3.612-8.891,4.546-11.184l8.971,8.584,17.943-41.684Z" transform="translate(-1150.186 12.507)" fill="#27ae60"/>
    <path id="Path_201" data-name="Path 201" d="M2848.45,580.761l-24.529-74.706h9.754Z" transform="translate(-1172.088 4.018)" fill="#00992b"/>
    <path id="Path_202" data-name="Path 202" d="M2905.063,504.48,2886.908,552.2l-.014-.014c-6.866,11.451-21.062,7.106-23.462,15.3-1.6,5.533,30.3-4.186,15.957,13.6-1.226,1.506-25.115,1.879-27.315,1.907a1.371,1.371,0,0,0-.159-.014l.014.014h.012c.014.026.014.026.028.026.079.053.252.159.506.319h-6.239l-14.771-74.7-1.827-9.252,51.67,3.48Z" transform="translate(-1169.875 1.437)" fill="#27ae60"/>
    <path id="Path_203" data-name="Path 203" d="M2898.84,556.639c-.079.2-.186.466-.32.786-.933,2.293-2.972,7.4-4.545,11.184-.948,2.228-1.72,4-2.027,4.48-2.694,4.426-6.452,4.732-9.665,5.652-12.6,3.586-32.46-7.959-36.032-10.132-.254-.16-.427-.266-.507-.319-.013,0-.013,0-.027-.026h.133c2.2-.028,26.089-.4,27.315-1.907,14.343-17.783-17.556-8.064-15.956-13.6,2.4-8.2,16.6-3.852,23.462-15.3l.013.014,14.423,15.223Z" transform="translate(-1163.653 16.171)" fill="#fabe79"/>
  </g>
</svg>
