<svg xmlns="http://www.w3.org/2000/svg" xmlns:xlink="http://www.w3.org/1999/xlink" width="600" height="310.602" viewBox="0 0 736.216 310.602">
  <defs>
    <filter id="Path_20" x="556.393" y="74.517" width="103.384" height="108.428" filterUnits="userSpaceOnUse">
      <feOffset input="SourceAlpha"/>
      <feGaussianBlur stdDeviation="2.5" result="blur"/>
      <feFlood flood-opacity="0.302"/>
      <feComposite operator="in" in2="blur"/>
      <feComposite in="SourceGraphic"/>
    </filter>
  </defs>
  <g id="covlie_pricing_illustration_" data-name="covlie_pricing_illustration " transform="translate(-1055.783 -364)">
    <g id="Phone" transform="translate(1525.931 364)">
      <g id="Group_1" data-name="Group 1" transform="translate(185.1 96.578)">
        <path id="Path_1" data-name="Path 1" d="M4199.617,2677.873l-.506-1.263a7.55,7.55,0,0,0-10.885-3.678l-15.033,8.976v23.628l24.078-18.918A7.558,7.558,0,0,0,4199.617,2677.873Z" transform="translate(-4173.193 -2671.859)" fill="#dd6e00"/>
        <path id="Path_2" data-name="Path 2" d="M4185.111,2714.545l-11.918,7.763v21.458l20.826-17.041a7.556,7.556,0,0,0-8.908-12.18Z" transform="translate(-4173.193 -2677.589)" fill="#dd6e00"/>
      </g>
      <rect id="Rectangle_1" data-name="Rectangle 1" width="104.496" height="213.495" transform="translate(86.235 22.982)" fill="#fff"/>
      <rect id="Rectangle_2" data-name="Rectangle 2" width="104.496" height="20.56" transform="translate(86.235 35.655)" fill="#27ae60"/>
      <g id="Group_2" data-name="Group 2" transform="translate(80.651 6.317)">
        <path id="Path_3" data-name="Path 3" d="M4151.733,2567.121h-83.727a16.013,16.013,0,0,0-16.015,16.009v97.132a9.518,9.518,0,0,1,5.63-1.338v-95.137h104.5v213.5h-96.395c-.025,7.232-.2,14.651-.25,16.427a16.3,16.3,0,0,0,2.733.232h83.326a16.211,16.211,0,0,0,16.215-16.215v-214.6A16.012,16.012,0,0,0,4151.733,2567.121Z" transform="translate(-4051.991 -2567.121)" fill="#485f7a"/>
        <path id="Path_4" data-name="Path 4" d="M4052.848,2754.264v23.166a65.976,65.976,0,0,1,4.892,7.369v-47.613l-3.534,9.521A21.616,21.616,0,0,0,4052.848,2754.264Z" transform="translate(-4052.109 -2590.627)" fill="#485f7a"/>
      </g>
      <path id="Path_5" data-name="Path 5" d="M4151.585,2559.791h-83.327a16.212,16.212,0,0,0-16.214,16.215v6.1a16.012,16.012,0,0,1,16.015-16.008h83.727a16.012,16.012,0,0,1,16.016,16.008v-6.1A16.212,16.212,0,0,0,4151.585,2559.791Z" transform="translate(-3971.348 -2559.791)" fill="#283747"/>
      <rect id="Rectangle_3" data-name="Rectangle 3" width="40.433" height="1.793" transform="translate(118.289 14.292)" fill="#283747"/>
      <rect id="Rectangle_4" data-name="Rectangle 4" width="40.433" height="1.793" transform="translate(118.312 242.743)" fill="#283747"/>
      <g id="Group_4" data-name="Group 4" transform="translate(86.235 22.982)">
        <rect id="Rectangle_5" data-name="Rectangle 5" width="104.496" height="12.672" fill="#249b54"/>
        <g id="Group_3" data-name="Group 3" transform="translate(3.996 3.126)">
          <rect id="Rectangle_6" data-name="Rectangle 6" width="3.653" height="6.372" transform="translate(92.897 0.024)" fill="#fff"/>
          <path id="Path_6" data-name="Path 6" d="M4163.326,2596.459h2.586v-6.373l-7.132,6.421Z" transform="translate(-4076.332 -2590.086)" fill="#fff"/>
          <path id="Path_7" data-name="Path 7" d="M4063.108,2592.569l.07.276.467-.252h.008v2.345H4064v-2.684h-.31Z" transform="translate(-4063.108 -2590.386)" fill="#fff"/>
          <path id="Path_8" data-name="Path 8" d="M4065.793,2594.622l.215-.2c.565-.545.925-.946.925-1.441a.755.755,0,0,0-.821-.78,1.179,1.179,0,0,0-.76.272l.115.256a.915.915,0,0,1,.57-.227.479.479,0,0,1,.533.524c0,.405-.314.751-1,1.4l-.284.277v.223H4067v-.3h-1.206Z" transform="translate(-4063.409 -2590.379)" fill="#fff"/>
          <path id="Path_9" data-name="Path 9" d="M4068.025,2594.823a.258.258,0,0,0,0,.515.24.24,0,0,0,.247-.255A.243.243,0,0,0,4068.025,2594.823Z" transform="translate(-4063.753 -2590.741)" fill="#fff"/>
          <path id="Path_10" data-name="Path 10" d="M4068.025,2593.132a.258.258,0,0,0,0,.515.24.24,0,0,0,.247-.256A.243.243,0,0,0,4068.025,2593.132Z" transform="translate(-4063.753 -2590.507)" fill="#fff"/>
          <path id="Path_11" data-name="Path 11" d="M4069.626,2592.2c-.545,0-.933.5-.933,1.4s.363,1.379.887,1.379c.595,0,.933-.5.933-1.416C4070.514,2592.705,4070.192,2592.2,4069.626,2592.2Zm-.025,2.494c-.33,0-.546-.4-.546-1.094,0-.731.232-1.119.549-1.119.376,0,.545.434.545,1.094C4070.15,2594.262,4069.973,2594.7,4069.6,2594.7Z" transform="translate(-4063.88 -2590.379)" fill="#fff"/>
          <path id="Path_12" data-name="Path 12" d="M4072.085,2592.2c-.545,0-.933.5-.933,1.4s.363,1.379.887,1.379c.595,0,.933-.5.933-1.416C4072.972,2592.705,4072.651,2592.2,4072.085,2592.2Zm-.025,2.494c-.331,0-.546-.4-.546-1.094,0-.731.232-1.119.549-1.119.376,0,.545.434.545,1.094C4072.609,2594.262,4072.432,2594.7,4072.061,2594.7Z" transform="translate(-4064.22 -2590.379)" fill="#fff"/>
        </g>
      </g>
      <g id="Group_5" data-name="Group 5" transform="translate(121.678 42.976)">
        <path id="Path_13" data-name="Path 13" d="M4099.6,2609.771a9.754,9.754,0,0,1,1.618-.111,2.534,2.534,0,0,1,1.616.424,1.521,1.521,0,0,1,.566,1.224,1.644,1.644,0,0,1-.488,1.256,2.483,2.483,0,0,1-1.718.558,2.088,2.088,0,0,1-.408-.031v1.9H4099.6Zm1.185,2.4a1.79,1.79,0,0,0,.4.031c.636,0,1.029-.322,1.029-.856,0-.486-.338-.776-.942-.776a2.186,2.186,0,0,0-.487.039Z" transform="translate(-4099.598 -2609.66)" fill="#fff"/>
        <path id="Path_14" data-name="Path 14" d="M4107.838,2614.288a5.05,5.05,0,0,0,.062.927h-1.076l-.07-.385h-.024a1.383,1.383,0,0,1-1.1.471,1.176,1.176,0,0,1-1.24-1.177c0-1,.895-1.469,2.252-1.469v-.046c0-.212-.11-.5-.7-.5a2.16,2.16,0,0,0-1.059.29l-.221-.77a3.161,3.161,0,0,1,1.492-.345,1.49,1.49,0,0,1,1.681,1.664Zm-1.155-.887c-.627,0-1.114.149-1.114.6a.428.428,0,0,0,.471.455.659.659,0,0,0,.62-.44.854.854,0,0,0,.023-.2Z" transform="translate(-4100.261 -2609.884)" fill="#fff"/>
        <path id="Path_15" data-name="Path 15" d="M4110.211,2611.391l.574,1.892c.063.22.142.511.188.714H4111c.047-.212.11-.495.165-.722l.479-1.884h1.271l-.895,2.528a5.838,5.838,0,0,1-1.351,2.52,2.092,2.092,0,0,1-1.146.526l-.259-1a1.884,1.884,0,0,0,.519-.2,1.39,1.39,0,0,0,.495-.479.365.365,0,0,0,.062-.173.479.479,0,0,0-.046-.2l-1.414-3.516Z" transform="translate(-4100.882 -2609.899)" fill="#fff"/>
        <path id="Path_16" data-name="Path 16" d="M4114.147,2612.6c0-.479-.016-.879-.031-1.225h1.013l.047.518h.023a1.329,1.329,0,0,1,1.162-.612,1.084,1.084,0,0,1,1.051.659h.017a1.667,1.667,0,0,1,.5-.471,1.465,1.465,0,0,1,.73-.188c.738,0,1.3.518,1.3,1.672v2.26h-1.162v-2.088c0-.558-.181-.879-.565-.879a.594.594,0,0,0-.558.416,1.26,1.26,0,0,0-.039.306v2.245h-1.162v-2.159c0-.479-.173-.808-.558-.808a.609.609,0,0,0-.557.424.792.792,0,0,0-.047.306v2.237h-1.163Z" transform="translate(-4101.605 -2609.884)" fill="#fff"/>
        <path id="Path_17" data-name="Path 17" d="M4122.874,2613.677c.031.495.526.73,1.083.73a3.176,3.176,0,0,0,1.06-.165l.157.808a3.638,3.638,0,0,1-1.39.243,1.842,1.842,0,0,1-2.049-1.955,1.923,1.923,0,0,1,1.939-2.049,1.7,1.7,0,0,1,1.712,1.916,2.963,2.963,0,0,1-.039.471Zm1.4-.816a.692.692,0,0,0-.675-.777.788.788,0,0,0-.738.777Z" transform="translate(-4102.658 -2609.885)" fill="#fff"/>
        <path id="Path_18" data-name="Path 18" d="M4126.8,2612.6c0-.479-.014-.879-.031-1.225h1.036l.056.534h.023a1.38,1.38,0,0,1,1.186-.621c.785,0,1.374.526,1.374,1.657v2.268h-1.193v-2.127c0-.495-.173-.833-.6-.833a.655.655,0,0,0-.613.447.882.882,0,0,0-.039.3v2.213H4126.8Z" transform="translate(-4103.353 -2609.885)" fill="#fff"/>
        <path id="Path_19" data-name="Path 19" d="M4133.368,2610.188v1.037h.855v.879h-.855v1.39c0,.462.117.675.471.675a1.438,1.438,0,0,0,.354-.032l.008.9a2.544,2.544,0,0,1-.77.1,1.28,1.28,0,0,1-.9-.329,1.591,1.591,0,0,1-.329-1.139v-1.57h-.51v-.879h.51v-.714Z" transform="translate(-4104.034 -2609.733)" fill="#fff"/>
      </g>
      <rect id="Rectangle_7" data-name="Rectangle 7" width="104.496" height="200.823" transform="translate(86.235 35.655)" opacity="0.1"/>
      <g transform="matrix(1, 0, 0, 1, -470.15, 0)" filter="url(#Path_20)">
        <path id="Path_20-2" data-name="Path 20" d="M4155.57,2659v85.36c0,2.228-2.3,4.034-5.143,4.034h-78.1c-2.841,0-5.144-1.806-5.144-4.034V2659c0-2.228,2.3-4.034,5.144-4.034h78.1C4153.268,2654.963,4155.57,2656.77,4155.57,2659Z" transform="translate(-3503.29 -2572.95)" fill="#fff"/>
      </g>
      <path id="Path_21" data-name="Path 21" d="M4103.757,2830.9l-18.2,25.135a68.942,68.942,0,0,1-15.833,15.708,82.715,82.715,0,0,0-23.215,16.453h-88.1l36.059-44.328a46.889,46.889,0,0,0,4.2-17.854l1.626-47.7a37.6,37.6,0,0,1,3.991-15.595l35.464-73.958c.838-1.664,18.286,9.842,13.055,25.546,0,0-11.73,33.013-11.73,35.6l-1.325,20.81a65.976,65.976,0,0,1,4.892,7.369c3.278,5.674,7.138,14.031,7.845,22.883.225,2.865.282,7.939.257,13.106-.025,7.232-.2,14.651-.251,16.427,0,.263-.006.4-.006.4Z" transform="translate(-3958.405 -2577.595)" fill="#fabe79"/>
      <rect id="Rectangle_8" data-name="Rectangle 8" width="67.912" height="14.002" rx="3.272" transform="translate(104.279 152.876)" fill="#27ae60"/>
      <path id="Path_22" data-name="Path 22" d="M4130.833,2682.458l-15.129,12.025-3.964,3.152-3.277-3.868-2.99-3.526-3.277-3.864,3.961-3.149,3.28,3.865,2.99,3.525,15.257-12.126Z" transform="translate(-3978.28 -2576.198)" fill="#27ae60"/>
      <g id="Group_6" data-name="Group 6" transform="translate(113.98 127.125)">
        <path id="Path_23" data-name="Path 23" d="M4090.921,2714.5a3.573,3.573,0,0,0,1.808.511c1.032,0,1.635-.545,1.635-1.334,0-.73-.418-1.147-1.472-1.552-1.275-.453-2.063-1.113-2.063-2.214a2.248,2.248,0,0,1,2.526-2.122,3.546,3.546,0,0,1,1.727.383l-.278.823a3.1,3.1,0,0,0-1.483-.37c-1.067,0-1.473.637-1.473,1.17,0,.73.476,1.089,1.554,1.507,1.321.509,1.994,1.146,1.994,2.294,0,1.206-.893,2.249-2.736,2.249a4.052,4.052,0,0,1-1.993-.5Z" transform="translate(-4090.666 -2707.372)" fill="#97a7b7"/>
        <path id="Path_24" data-name="Path 24" d="M4102.406,2714.573c0,.579.012,1.089.047,1.53h-.9l-.059-.915h-.023a2.112,2.112,0,0,1-1.855,1.043c-.88,0-1.936-.487-1.936-2.458v-3.279h1.02v3.106c0,1.066.325,1.786,1.252,1.786a1.437,1.437,0,0,0,1.438-1.449v-3.442h1.02Z" transform="translate(-4091.635 -2707.746)" fill="#97a7b7"/>
        <path id="Path_25" data-name="Path 25" d="M4109.067,2715.875a3.768,3.768,0,0,1-1.612.325,2.665,2.665,0,0,1-2.793-2.864,2.85,2.85,0,0,1,3.014-2.978,3.406,3.406,0,0,1,1.413.29l-.231.788a2.371,2.371,0,0,0-1.182-.266,2.115,2.115,0,0,0-.035,4.218,2.893,2.893,0,0,0,1.251-.278Z" transform="translate(-4092.601 -2707.727)" fill="#97a7b7"/>
        <path id="Path_26" data-name="Path 26" d="M4115.015,2715.875a3.769,3.769,0,0,1-1.612.325,2.665,2.665,0,0,1-2.792-2.864,2.85,2.85,0,0,1,3.013-2.978,3.416,3.416,0,0,1,1.415.29l-.232.788a2.369,2.369,0,0,0-1.183-.266,2.115,2.115,0,0,0-.034,4.218,2.9,2.9,0,0,0,1.251-.278Z" transform="translate(-4093.423 -2707.727)" fill="#97a7b7"/>
        <path id="Path_27" data-name="Path 27" d="M4117.53,2713.462a1.8,1.8,0,0,0,1.924,1.948,3.7,3.7,0,0,0,1.554-.29l.174.73a4.558,4.558,0,0,1-1.867.348,2.605,2.605,0,0,1-2.758-2.828c0-1.692,1-3.025,2.632-3.025a2.377,2.377,0,0,1,2.317,2.642,3.919,3.919,0,0,1-.035.475Zm2.991-.73a1.454,1.454,0,0,0-1.414-1.658,1.69,1.69,0,0,0-1.564,1.658Z" transform="translate(-4094.245 -2707.725)" fill="#97a7b7"/>
        <path id="Path_28" data-name="Path 28" d="M4123.567,2715.039a2.677,2.677,0,0,0,1.344.406c.742,0,1.089-.371,1.089-.835,0-.487-.29-.753-1.043-1.031-1.009-.358-1.483-.916-1.483-1.587a1.73,1.73,0,0,1,1.936-1.646,2.8,2.8,0,0,1,1.379.347l-.255.742a2.182,2.182,0,0,0-1.147-.325c-.6,0-.938.348-.938.765,0,.464.336.672,1.065.95.974.371,1.473.858,1.473,1.692,0,.986-.765,1.681-2.1,1.681a3.2,3.2,0,0,1-1.576-.383Z" transform="translate(-4095.179 -2707.725)" fill="#97a7b7"/>
        <path id="Path_29" data-name="Path 29" d="M4128.9,2715.039a2.677,2.677,0,0,0,1.344.406c.742,0,1.089-.371,1.089-.835,0-.487-.29-.753-1.043-1.031-1.009-.358-1.484-.916-1.484-1.587a1.731,1.731,0,0,1,1.937-1.646,2.8,2.8,0,0,1,1.378.347l-.255.742a2.186,2.186,0,0,0-1.148-.325c-.6,0-.937.348-.937.765,0,.464.336.672,1.065.95.974.371,1.472.858,1.472,1.692,0,.986-.764,1.681-2.1,1.681a3.2,3.2,0,0,1-1.577-.383Z" transform="translate(-4095.915 -2707.725)" fill="#97a7b7"/>
        <path id="Path_30" data-name="Path 30" d="M4134.421,2715.662v-4.833h-.788v-.776h.788v-.267a2.644,2.644,0,0,1,.65-1.959,1.952,1.952,0,0,1,1.368-.521,2.361,2.361,0,0,1,.868.162l-.139.788a1.546,1.546,0,0,0-.649-.126c-.869,0-1.089.765-1.089,1.623v.3h1.355v.776h-1.355v4.833Z" transform="translate(-4096.605 -2707.305)" fill="#97a7b7"/>
        <path id="Path_31" data-name="Path 31" d="M4143.045,2714.573c0,.579.012,1.089.047,1.53h-.9l-.059-.915h-.022a2.113,2.113,0,0,1-1.854,1.043c-.882,0-1.936-.487-1.936-2.458v-3.279h1.019v3.106c0,1.066.325,1.786,1.253,1.786a1.436,1.436,0,0,0,1.437-1.449v-3.442h1.02Z" transform="translate(-4097.253 -2707.746)" fill="#97a7b7"/>
        <path id="Path_32" data-name="Path 32" d="M4145.772,2707.452h1.02v8.23h-1.02Z" transform="translate(-4098.283 -2707.325)" fill="#97a7b7"/>
      </g>
      <path id="Path_33" data-name="Path 33" d="M4129.729,2865.817a44.152,44.152,0,0,0,20.5,19.336l21.207,9.759H4245.6l-7.4-13.833a26.436,26.436,0,0,1-2.612-7.278l-12.153-60.61a20.885,20.885,0,0,0-5.975-10.643l-10.841-9.313-10.873-8.3a12.08,12.08,0,0,0-9.657-.586h0s-9.832-7.388-13.35-9.165c-3.887-1.965-14.994-4.085-14.994-4.085l-23.6-30.729a8.141,8.141,0,0,0-11.145-1.7l-.158.11a8.381,8.381,0,0,0-2.615,10.771c8.392,15.908,29.236,55.492,29.236,55.492s19.313,45.255,5.357,47.389c-9.816,1.5-26.961-25.005-26.961-25.005-4.733-4.733-9.853-6.476-12.893-4.7a7.535,7.535,0,0,0-2.853,10.054Z" transform="translate(-3979.528 -2584.31)" fill="#fabe79"/>
    </g>
    <g id="Laptop" transform="translate(1055.783 364)">
      <circle id="Ellipse_1" data-name="Ellipse 1" cx="2.861" cy="2.861" r="2.861" transform="translate(271.806 3.382)" fill="#fff"/>
      <g id="Group_8" data-name="Group 8">
        <path id="Path_34" data-name="Path 34" d="M3918.564,2899.994l-28.038-19.061a18.83,18.83,0,0,0-10.6-3.266H3453.106a18.828,18.828,0,0,0-10.6,3.266l-28.038,19.061a3.587,3.587,0,0,0-1.534,3.765H3920.1A3.584,3.584,0,0,0,3918.564,2899.994Z" transform="translate(-3412.852 -2603.728)" fill="#485f7a"/>
        <rect id="Rectangle_9" data-name="Rectangle 9" width="438.965" height="273.937" rx="13.649" transform="translate(34.18)" fill="#485f7a"/>
      </g>
      <rect id="Rectangle_10" data-name="Rectangle 10" width="415.064" height="240.81" transform="translate(45.876 12.779)" fill="#54d0ed"/>
      <g id="Group_9" data-name="Group 9" transform="translate(0 277.132)">
        <path id="Path_35" data-name="Path 35" d="M3662.83,2895.063h-13.283l-9.436,8.6h115.644l-9.437-8.6H3662.83Z" transform="translate(-3444.264 -2883.264)" fill="#283747"/>
        <path id="Path_36" data-name="Path 36" d="M3669.048,2907.944h-256.2v4.017a6.554,6.554,0,0,0,6.553,6.553h494.233a6.554,6.554,0,0,0,6.553-6.553v-4.017Z" transform="translate(-3412.852 -2885.044)" fill="#283747"/>
        <path id="Path_37" data-name="Path 37" d="M3882,2881.372H3469.546l-20.639,8.6h445.2Z" transform="translate(-3417.835 -2881.372)" fill="#283747"/>
      </g>
      <g id="Group_11" data-name="Group 11" transform="translate(153.777 32.147)">
        <circle id="Ellipse_2" data-name="Ellipse 2" cx="99.886" cy="99.886" r="99.886" fill="#fff"/>
        <g id="Group_10" data-name="Group 10" transform="translate(21.072 41.96)">
          <rect id="Rectangle_11" data-name="Rectangle 11" width="19.911" height="58.073" transform="translate(8.711 51.437)" fill="#27ae60"/>
          <rect id="Rectangle_12" data-name="Rectangle 12" width="19.911" height="109.51" transform="translate(88.355)" fill="#27ae60"/>
          <path id="Path_38" data-name="Path 38" d="M3647.673,2742h-31.929v-6.187h31.929a8.894,8.894,0,0,0,6.33-2.622l32.558-32.558a15.04,15.04,0,0,1,10.705-4.435h32.562a8.918,8.918,0,0,0,3.533-.726l21.994-9.45a15.035,15.035,0,0,1,5.976-1.231h12.04v6.188h-12.04a8.9,8.9,0,0,0-3.532.727l-22,9.451a15.075,15.075,0,0,1-5.976,1.229h-32.562a8.893,8.893,0,0,0-6.33,2.622l-32.558,32.559A15.044,15.044,0,0,1,3647.673,2742Z" transform="translate(-3615.744 -2651.177)" fill="#54d0ed"/>
          <rect id="Rectangle_13" data-name="Rectangle 13" width="19.911" height="88.769" transform="translate(128.177 20.74)" fill="#27ae60"/>
          <rect id="Rectangle_14" data-name="Rectangle 14" width="19.911" height="85.451" transform="translate(48.533 24.059)" fill="#27ae60"/>
        </g>
      </g>
      <g id="Group_17" data-name="Group 17" transform="translate(45.876 100.027)">
        <g id="Group_12" data-name="Group 12" transform="translate(88.473 39.629)">
          <path id="Path_39" data-name="Path 39" d="M3606.141,2784.832h-22.01l-6.963,4.33a62.18,62.18,0,0,1-2.446,10.427l25.409-2.932C3606.752,2795.892,3608.447,2789.271,3606.141,2784.832Z" transform="translate(-3561.094 -2735.821)" fill="#dd6e00"/>
          <path id="Path_40" data-name="Path 40" d="M3574.679,2732.683l-4.38,1.128a19.206,19.206,0,0,0-8.63,4.867c-2.627,12.34-2.634,25.292,8.229,24.841a18.371,18.371,0,0,0,4.781-.961Z" transform="translate(-3560.221 -2732.683)" fill="#dd6e00"/>
        </g>
        <path id="Path_41" data-name="Path 41" d="M3680.468,2719.627v55.851a5.125,5.125,0,0,1-5.122,5.122h-94.619a5.129,5.129,0,0,1-5.122-5.122v-55.851a5.107,5.107,0,0,1,1.841-3.936l.021-.015a5.193,5.193,0,0,1,3.259-1.171h94.619A5.12,5.12,0,0,1,3680.468,2719.627Z" transform="translate(-3472.674 -2691.96)" fill="#0060aa"/>
        <g id="Group_16" data-name="Group 16" transform="translate(109.239 28.335)">
          <g id="Group_14" data-name="Group 14" transform="translate(5.296)">
            <rect id="Rectangle_15" data-name="Rectangle 15" width="14.968" height="14.968" rx="2.008" fill="#fff"/>
            <g id="Group_13" data-name="Group 13" transform="translate(1.679 2.493)">
              <path id="Path_42" data-name="Path 42" d="M3590.13,2726.4h2.891a.429.429,0,0,0,.391-.459v-2.16a.429.429,0,0,0-.391-.459h-2.891a.429.429,0,0,0-.391.459v2.16A.429.429,0,0,0,3590.13,2726.4Z" transform="translate(-3589.739 -2723.319)" fill="#d1d1d1"/>
              <path id="Path_43" data-name="Path 43" d="M3596.939,2723.319h-2.265a.773.773,0,0,0-.7.827v8.327a.774.774,0,0,0,.7.828h2.265a.774.774,0,0,0,.7-.828v-8.327A.773.773,0,0,0,3596.939,2723.319Z" transform="translate(-3589.993 -2723.319)" fill="#d1d1d1"/>
              <path id="Path_44" data-name="Path 44" d="M3593.039,2726.991h-2.892a.43.43,0,0,0-.391.46v2.16a.43.43,0,0,0,.391.46h2.892a.43.43,0,0,0,.391-.46v-2.16A.43.43,0,0,0,3593.039,2726.991Z" transform="translate(-3589.74 -2723.54)" fill="#d1d1d1"/>
              <path id="Path_45" data-name="Path 45" d="M3593.039,2730.664h-2.892a.43.43,0,0,0-.391.459v2.16a.43.43,0,0,0,.391.459h2.892a.43.43,0,0,0,.391-.459v-2.16A.43.43,0,0,0,3593.039,2730.664Z" transform="translate(-3589.74 -2723.761)" fill="#d1d1d1"/>
              <path id="Path_46" data-name="Path 46" d="M3601.466,2723.319h-2.891a.43.43,0,0,0-.392.459v2.16a.43.43,0,0,0,.392.459h2.891a.429.429,0,0,0,.391-.459v-2.16A.429.429,0,0,0,3601.466,2723.319Z" transform="translate(-3590.247 -2723.319)" fill="#d1d1d1"/>
              <path id="Path_47" data-name="Path 47" d="M3601.466,2726.991h-2.891a.43.43,0,0,0-.392.46v2.16a.43.43,0,0,0,.392.46h2.891a.429.429,0,0,0,.391-.46v-2.16A.429.429,0,0,0,3601.466,2726.991Z" transform="translate(-3590.247 -2723.54)" fill="#d1d1d1"/>
              <path id="Path_48" data-name="Path 48" d="M3601.466,2730.664h-2.891a.43.43,0,0,0-.392.459v2.16a.43.43,0,0,0,.392.459h2.891a.429.429,0,0,0,.391-.459v-2.16A.429.429,0,0,0,3601.466,2730.664Z" transform="translate(-3590.247 -2723.761)" fill="#d1d1d1"/>
            </g>
          </g>
          <path id="Path_49" data-name="Path 49" d="M3582.317,2771.046l5.3,3.567v-7.128Z" transform="translate(-3582.317 -2723.483)" fill="#fff"/>
          <g id="Group_15" data-name="Group 15" transform="translate(68.658 40.619)">
            <path id="Path_50" data-name="Path 50" d="M3665.058,2770.834a6.919,6.919,0,0,0,2.1,4.976,6.947,6.947,0,1,1,0-9.958A6.93,6.93,0,0,0,3665.058,2770.834Z" transform="translate(-3655.37 -2763.885)" fill="#ff0606"/>
            <path id="Path_51" data-name="Path 51" d="M3669.888,2770.96a2.935,2.935,0,1,1-2.1-4.981A6.921,6.921,0,0,1,3669.888,2770.96Z" transform="translate(-3655.99 -2764.011)" fill="#ff7a17"/>
            <path id="Path_52" data-name="Path 52" d="M3679.711,2770.834a6.948,6.948,0,0,1-11.793,4.976,6.942,6.942,0,0,0,0-9.958,6.948,6.948,0,0,1,11.793,4.981Z" transform="translate(-3656.125 -2763.885)" fill="#ffce00"/>
          </g>
        </g>
        <path id="Path_53" data-name="Path 53" d="M3613.08,2759.2l-6.053,3.762-21.37,13.286-.087.052-4.605,2.859-6.963,4.33a62.18,62.18,0,0,1-2.446,10.427c-2.648,8.229-7.924,19.253-18.016,24.972-17.368,9.829-29.635,10.216-29.635,10.216l-.27-2.146-1.55-49.238,5.756-.568,11.947-50.431c2.714-11.117,1.878-18.1,11.737-23l23.349-11.6c13.788-6.847,21.493,10.121,10.863,15.3l-10.114,6-1.375.807-.021.015-10.136,6.016a112.879,112.879,0,0,0-4.715,15.877c-2.627,12.34-2.634,25.292,8.229,24.841a18.381,18.381,0,0,0,4.781-.961,87.685,87.685,0,0,0,9.67-4.1C3592.816,2750.941,3604.779,2745.833,3613.08,2759.2Z" transform="translate(-3469.454 -2690.517)" fill="#fabe79"/>
        <path id="Path_54" data-name="Path 54" d="M3520.272,2783.084l-54.187-2.1v67.049l54.2-7.928v-56.461Z" transform="translate(-3466.085 -2695.96)" fill="#0060aa"/>
        <path id="Path_55" data-name="Path 55" d="M3510.611,2840.114a4.668,4.668,0,1,1,4.52-4.811A4.664,4.664,0,0,1,3510.611,2840.114Z" transform="translate(-3468.475 -2698.956)" fill="#fff"/>
        <path id="Path_56" data-name="Path 56" d="M3671.4,2721.1l-.882.882a.589.589,0,0,1-.832,0l-.882-.882a.587.587,0,0,0-.832,0l-6.653,6.651a.588.588,0,0,0,0,.832l6.653,6.653a.589.589,0,0,0,.832,0l.882-.882a.587.587,0,0,1,.832,0l.882.882a.589.589,0,0,0,.832,0l6.652-6.653a.587.587,0,0,0,0-.832l-6.652-6.651A.587.587,0,0,0,3671.4,2721.1Z" transform="translate(-3477.821 -2692.347)" fill="#fff"/>
      </g>
    </g>
  </g>
</svg>
