<svg xmlns="http://www.w3.org/2000/svg" width="400" height="290" viewBox="0 0 544 447.057">
  <g id="covlie_transfer_medical_data_illustration" transform="translate(-128 -2796.002)">
    <path id="Path_242" data-name="Path 242" d="M359.192,696.6" transform="translate(-106.805 2450.781)"/>
    <g id="Group_44" data-name="Group 44" transform="translate(128 2796.002)">
      <path id="Path_243" data-name="Path 243" d="M580.924,338.449l-.082,0c-1.7-40.184-34.985-72.246-75.812-72.246a75.846,75.846,0,0,0-73.176,55.459,42.86,42.86,0,0,0-34.478,25.974c-1.083-.081-2.167-.164-3.271-.164a42.858,42.858,0,0,0-39.819,26.89,42.867,42.867,0,0,0-83.368-12.293,42.829,42.829,0,0,0-23.689,25.26c-2.356.022-40.4,3.649-40.4,42.356,0,39.538,30.514,42.9,33.011,42.9,28.8,0,42.437-11.984,48.263-28.653a42.833,42.833,0,0,0,40.156-28.893,42.86,42.86,0,0,0,23.04-23.5,42.888,42.888,0,0,0,82.408,14.9c1.083.082,2.167.164,3.271.164a42.812,42.812,0,0,0,21.179-5.595,75.812,75.812,0,0,0,46.87,16.135l.082,0c1.7,40.184,34.985,72.245,75.813,72.245,41.914,0,75.893-33.789,75.893-75.471S622.839,338.449,580.924,338.449Z" transform="translate(-206.833 -266.205)" fill="#e3e3e3"/>
      <rect id="Rectangle_39" data-name="Rectangle 39" width="195.407" height="113.235" transform="translate(339.233 180.634)" fill="#e9c9bc"/>
      <rect id="Rectangle_40" data-name="Rectangle 40" width="171.049" height="100.58" transform="translate(363.591 193.289)" fill="#f9f2df"/>
      <path id="Path_244" data-name="Path 244" d="M552.1,466.429V583.079H239.694V475.048L371.5,408.388l32.3-16.331,1.071-.542,1.084.542L489.349,434.5Z" transform="translate(-212.866 -289.211)" fill="#f9f2df"/>
      <path id="Path_245" data-name="Path 245" d="M561.607,445.509v11.643L549.144,450.8l-.353-.164-60.146-30.608-67-34.1-28.882-14.693-.164-.088L236.735,450.461l-.34.176-12.815,6.515V445.509l141.436-73.1L392.6,358.145l27.571,14.265,26.16,13.521,65.98,34.1Z" transform="translate(-209.908 -283.084)" fill="#485f7a"/>
      <path id="Path_246" data-name="Path 246" d="M552.1,453.562v9.665L489.349,431.3l-83.395-42.441-1.084-.542-1.071.542-32.3,16.331-131.809,66.66V453.562l156.028-79.4.176-.088,29.046,14.781,67.013,34.1Z" transform="translate(-212.866 -286.009)" fill="#e9c9bc"/>
      <rect id="Rectangle_41" data-name="Rectangle 41" width="84.475" height="8.423" transform="translate(140.795 285.447)" fill="#e9c9bc"/>
      <rect id="Rectangle_42" data-name="Rectangle 42" width="62.637" height="118.996" transform="translate(153.117 166.451)" fill="#f30752"/>
      <path id="Path_247" data-name="Path 247" d="M405.348,482.227h45.045v55.049H404.856V482.227Zm44.062.984H405.841v53.082H449.41Z" transform="translate(-243.188 -305.865)" fill="#d62543"/>
      <path id="Path_248" data-name="Path 248" d="M405.348,563.6h45.045v38.756H404.856V563.6Zm44.062.984H405.841v36.789H449.41Z" transform="translate(-243.188 -320.805)" fill="#d62543"/>
      <path id="Path_249" data-name="Path 249" d="M393.752,588.64V469.921H456.39v-2.244H390.945V588.64Z" transform="translate(-240.635 -303.194)" fill="#e9c9bc"/>
      <path id="Path_250" data-name="Path 250" d="M394.383,470.426V589.145h6.176V475.252h56.463v-4.826Z" transform="translate(-241.266 -303.698)" fill="#b00f24" opacity="0.6"/>
      <path id="Path_251" data-name="Path 251" d="M429.676,490.154a13.644,13.644,0,1,1-9.653,3.995,13.614,13.614,0,0,1,9.653-3.995Zm8.3,5.348a11.713,11.713,0,1,0,3.438,8.29A11.706,11.706,0,0,0,437.973,495.5Z" transform="translate(-245.239 -307.32)" fill="#b00f24" opacity="0.5"/>
      <rect id="Rectangle_43" data-name="Rectangle 43" width="44.704" height="80.801" transform="translate(419.736 213.068)" fill="#f30752"/>
      <path id="Path_252" data-name="Path 252" d="M524.752,583.129a36.408,36.408,0,0,1,36.419,35.812h-72.84A36.409,36.409,0,0,1,524.752,583.129Z" transform="translate(-258.514 -324.39)" fill="#27ae60"/>
      <path id="Path_253" data-name="Path 253" d="M283.316,583.129a36.408,36.408,0,0,1,36.42,35.812H246.9A36.408,36.408,0,0,1,283.316,583.129Z" transform="translate(-214.188 -324.39)" fill="#27ae60"/>
      <rect id="Rectangle_44" data-name="Rectangle 44" width="18.602" height="18.588" transform="translate(47.593 203.253)" fill="#e9c9bc"/>
      <rect id="Rectangle_45" data-name="Rectangle 45" width="18.602" height="18.588" transform="translate(67.606 203.253)" fill="#e9c9bc"/>
      <rect id="Rectangle_46" data-name="Rectangle 46" width="18.602" height="18.588" transform="translate(47.593 223.251)" fill="#e9c9bc"/>
      <rect id="Rectangle_47" data-name="Rectangle 47" width="18.602" height="18.588" transform="translate(67.606 223.251)" fill="#e9c9bc"/>
      <path id="Path_254" data-name="Path 254" d="M286.28,492.484a19.333,19.333,0,0,0-11.108,3.5l10.906,13.6h.4l10.905-13.6A19.33,19.33,0,0,0,286.28,492.484Z" transform="translate(-219.38 -307.748)" fill="#e9c9bc"/>
      <path id="Path_255" data-name="Path 255" d="M301.465,497.817,291.24,510.57h17.3A19.41,19.41,0,0,0,301.465,497.817Z" transform="translate(-222.329 -308.727)" fill="#e9c9bc"/>
      <path id="Path_256" data-name="Path 256" d="M272.2,497.817a19.41,19.41,0,0,0-7.073,12.753h17.3Z" transform="translate(-217.536 -308.727)" fill="#e9c9bc"/>
      <rect id="Rectangle_48" data-name="Rectangle 48" width="18.602" height="18.588" transform="translate(92.737 203.253)" fill="#e9c9bc"/>
      <rect id="Rectangle_49" data-name="Rectangle 49" width="18.602" height="18.588" transform="translate(112.75 203.253)" fill="#e9c9bc"/>
      <rect id="Rectangle_50" data-name="Rectangle 50" width="18.602" height="18.588" transform="translate(92.737 223.251)" fill="#e9c9bc"/>
      <rect id="Rectangle_51" data-name="Rectangle 51" width="18.602" height="18.588" transform="translate(112.75 223.251)" fill="#e9c9bc"/>
      <path id="Path_257" data-name="Path 257" d="M341.576,492.484a19.333,19.333,0,0,0-11.108,3.5l10.906,13.6h.4l10.906-13.6A19.332,19.332,0,0,0,341.576,492.484Z" transform="translate(-229.531 -307.748)" fill="#e9c9bc"/>
      <path id="Path_258" data-name="Path 258" d="M356.76,497.817,346.536,510.57h17.3A19.411,19.411,0,0,0,356.76,497.817Z" transform="translate(-232.481 -308.727)" fill="#e9c9bc"/>
      <path id="Path_259" data-name="Path 259" d="M327.5,497.817a19.409,19.409,0,0,0-7.073,12.753h17.3Z" transform="translate(-227.688 -308.727)" fill="#e9c9bc"/>
      <rect id="Rectangle_52" data-name="Rectangle 52" width="18.602" height="18.588" transform="translate(234.219 203.253)" fill="#e9c9bc"/>
      <rect id="Rectangle_53" data-name="Rectangle 53" width="18.602" height="18.588" transform="translate(254.232 203.253)" fill="#e9c9bc"/>
      <rect id="Rectangle_54" data-name="Rectangle 54" width="18.602" height="18.588" transform="translate(234.219 223.251)" fill="#e9c9bc"/>
      <rect id="Rectangle_55" data-name="Rectangle 55" width="18.602" height="18.588" transform="translate(254.232 223.251)" fill="#e9c9bc"/>
      <path id="Path_260" data-name="Path 260" d="M514.874,492.484a19.329,19.329,0,0,0-11.108,3.5l10.905,13.6h.4l10.906-13.6A19.328,19.328,0,0,0,514.874,492.484Z" transform="translate(-261.348 -307.748)" fill="#e9c9bc"/>
      <path id="Path_261" data-name="Path 261" d="M530.058,497.817,519.834,510.57h17.3A19.41,19.41,0,0,0,530.058,497.817Z" transform="translate(-264.298 -308.727)" fill="#e9c9bc"/>
      <path id="Path_262" data-name="Path 262" d="M500.8,497.817a19.411,19.411,0,0,0-7.073,12.753h17.3Z" transform="translate(-259.504 -308.727)" fill="#e9c9bc"/>
      <rect id="Rectangle_56" data-name="Rectangle 56" width="18.602" height="18.588" transform="translate(279.362 203.253)" fill="#e9c9bc"/>
      <rect id="Rectangle_57" data-name="Rectangle 57" width="18.602" height="18.588" transform="translate(299.375 203.253)" fill="#e9c9bc"/>
      <rect id="Rectangle_58" data-name="Rectangle 58" width="18.602" height="18.588" transform="translate(279.362 223.251)" fill="#e9c9bc"/>
      <rect id="Rectangle_59" data-name="Rectangle 59" width="18.602" height="18.588" transform="translate(299.375 223.251)" fill="#e9c9bc"/>
      <path id="Path_263" data-name="Path 263" d="M570.169,492.484a19.333,19.333,0,0,0-11.108,3.5l10.906,13.6h.4l10.906-13.6A19.33,19.33,0,0,0,570.169,492.484Z" transform="translate(-271.499 -307.748)" fill="#e9c9bc"/>
      <path id="Path_264" data-name="Path 264" d="M585.354,497.817,575.129,510.57h17.3A19.406,19.406,0,0,0,585.354,497.817Z" transform="translate(-274.449 -308.727)" fill="#e9c9bc"/>
      <path id="Path_265" data-name="Path 265" d="M556.091,497.817a19.41,19.41,0,0,0-7.073,12.753h17.3Z" transform="translate(-269.656 -308.727)" fill="#e9c9bc"/>
      <g id="Group_42" data-name="Group 42" transform="translate(371.262 212.278)">
        <rect id="Rectangle_60" data-name="Rectangle 60" width="13.724" height="13.713" transform="translate(0 13.662)" fill="#e9c9bc"/>
        <rect id="Rectangle_61" data-name="Rectangle 61" width="13.724" height="13.713" transform="translate(14.765 13.662)" fill="#e9c9bc"/>
        <rect id="Rectangle_62" data-name="Rectangle 62" width="13.724" height="13.713" transform="translate(0 28.415)" fill="#e9c9bc"/>
        <rect id="Rectangle_63" data-name="Rectangle 63" width="13.724" height="13.713" transform="translate(14.765 28.415)" fill="#e9c9bc"/>
        <path id="Path_266" data-name="Path 266" d="M677.188,526.22a14.265,14.265,0,0,0-8.2,2.585l8.046,10.037h.3l8.046-10.037A14.264,14.264,0,0,0,677.188,526.22Z" transform="translate(-662.944 -526.22)" fill="#e9c9bc"/>
        <path id="Path_267" data-name="Path 267" d="M693.608,539.564a14.316,14.316,0,0,0-5.218-9.409l-7.544,9.409Z" transform="translate(-665.12 -526.942)" fill="#e9c9bc"/>
        <path id="Path_268" data-name="Path 268" d="M666.8,530.155a14.315,14.315,0,0,0-5.219,9.409h12.761Z" transform="translate(-661.584 -526.942)" fill="#e9c9bc"/>
      </g>
      <g id="Group_43" data-name="Group 43" transform="translate(484.426 212.278)">
        <rect id="Rectangle_64" data-name="Rectangle 64" width="13.724" height="13.713" transform="translate(0 13.662)" fill="#e9c9bc"/>
        <rect id="Rectangle_65" data-name="Rectangle 65" width="13.724" height="13.713" transform="translate(14.765 13.662)" fill="#e9c9bc"/>
        <rect id="Rectangle_66" data-name="Rectangle 66" width="13.724" height="13.713" transform="translate(0 28.415)" fill="#e9c9bc"/>
        <rect id="Rectangle_67" data-name="Rectangle 67" width="13.724" height="13.713" transform="translate(14.765 28.415)" fill="#e9c9bc"/>
        <path id="Path_269" data-name="Path 269" d="M815.8,526.22a14.263,14.263,0,0,0-8.2,2.585l8.046,10.037h.3L824,528.8A14.261,14.261,0,0,0,815.8,526.22Z" transform="translate(-801.556 -526.22)" fill="#e9c9bc"/>
        <path id="Path_270" data-name="Path 270" d="M832.221,539.564A14.317,14.317,0,0,0,827,530.155l-7.543,9.409Z" transform="translate(-803.733 -526.942)" fill="#e9c9bc"/>
        <path id="Path_271" data-name="Path 271" d="M805.414,530.155a14.32,14.32,0,0,0-5.218,9.409h12.761Z" transform="translate(-800.196 -526.942)" fill="#e9c9bc"/>
      </g>
      <path id="Path_272" data-name="Path 272" d="M429.892,516.687a12.68,12.68,0,1,0-12.693-12.68A12.711,12.711,0,0,0,429.892,516.687Z" transform="translate(-245.455 -307.536)" fill="#fff"/>
      <path id="Path_273" data-name="Path 273" d="M510.253,626.3" transform="translate(-262.539 -332.316)" fill="#fabe79" stroke="#fff" stroke-width="0.386"/>
      <path id="Path_274" data-name="Path 274" d="M778.121,433.946l40.716,43.588H614.074V464.718l12.463,6.351V459.425l-49.3-25.48Z" transform="translate(-274.837 -297.001)" fill="#5e758c"/>
      <path id="Path_275" data-name="Path 275" d="M368.156,528.877l-.554.354-.007.007" transform="translate(-236.348 -314.43)" fill="none"/>
      <line id="Line_1" data-name="Line 1" x1="2.592" y1="3.117" transform="translate(167.711 241.243)" fill="none"/>
      <rect id="Rectangle_68" data-name="Rectangle 68" width="204.763" height="5.305" transform="translate(339.237 180.532)" fill="#485f7a"/>
    </g>
    <g id="Group_46" data-name="Group 46" transform="translate(208.692 2974.951)">
      <path id="Path_276" data-name="Path 276" d="M323.932,781.569v5.313C322.821,784.93,322.785,783.115,323.932,781.569Z" transform="translate(-308.868 -539.771)" fill="#27ae60" opacity="0.25"/>
      <path id="Path_277" data-name="Path 277" d="M382.02,778.741h0a9.1,9.1,0,0,0,5.506,4l8.278,2.07a4.348,4.348,0,0,1,3.293,4.218v2.493H377.142l-7.071-2.274H359.395V776.957l22.625-.455Z" transform="translate(-315.534 -538.84)" fill="#fc9606"/>
      <rect id="Rectangle_69" data-name="Rectangle 69" width="10.676" height="4.323" transform="translate(43.861 250.403)" fill="#4f0064"/>
      <rect id="Rectangle_70" data-name="Rectangle 70" width="21.956" height="2.048" transform="translate(61.608 252.678)" fill="#4f0064"/>
      <path id="Path_278" data-name="Path 278" d="M331.7,779.194h0a9.1,9.1,0,0,0,4.234,5.327l7.422,4.212a4.347,4.347,0,0,1,2.043,4.946l-.668,2.4L323.578,790.2l-6.2-4.086-10.286-2.86,3.291-11.837,21.92,5.622Z" transform="translate(-305.931 -537.906)" fill="#fc9606"/>
      <rect id="Rectangle_71" data-name="Rectangle 71" width="10.676" height="4.323" transform="translate(1.158 245.347) rotate(15.537)" fill="#4f0064"/>
      <rect id="Rectangle_72" data-name="Rectangle 72" width="21.956" height="2.048" transform="translate(17.647 252.292) rotate(15.537)" fill="#4f0064"/>
      <path id="Path_279" data-name="Path 279" d="M386.288,498.339a8.351,8.351,0,0,1-1.621,2.6L371.21,498.17l.053,4.613a1.481,1.481,0,0,1-.927,1.388l-3.844,1.563-1.807,8.775s10.974,1.865,18.013,1.16c-.228,1.186-2.188,10.932-4.867,12.022-2.945,1.2-5.864.53-8.443-.884-.392-.217-.779-.451-1.154-.694a31.082,31.082,0,0,1-7.717-7.828l3.146-15.322s-1.689-3.4-3.522-.815c-.9,1.26-.736,7.8-4.534,6.827a5.479,5.479,0,0,1-1.435-.63c-2.924-1.742-1.107-10.3.387-13.6,2.076-4.565,4.57-11.609,19-8.649C383.693,488.182,387.226,493.78,386.288,498.339Z" transform="translate(-314.289 -485.395)"/>
      <g id="Group_45" data-name="Group 45" transform="translate(23.252 12.775)">
        <path id="Path_280" data-name="Path 280" d="M425.962,599.474l-.255.053-5.879,1.245-7.425,4.4-2.389,11.62c1.711.091,3.681.238,5.514.466,3.294.419,7.017-2.494,7.229-2.669a1.416,1.416,0,0,1-1.605-.292l-3.893-3.178-.016-.015c.032-.128.557-2.3,1.558-2.6,2.452-.736,2.839-4.38,2.839-4.38l4.21-1.483,2.156.106a3.391,3.391,0,0,0,2.977-1.5l.233-.349Z" transform="translate(-348.08 -519.114)" fill="#fabe79"/>
        <path id="Path_281" data-name="Path 281" d="M386.254,510.481l1.128-6.673-13.458-2.764.053,4.613a1.481,1.481,0,0,1-.928,1.388l-3.844,1.563-1.807,8.775s10.974,1.865,18.013,1.16c.016-.074.021-.117.021-.117l.518-.19a2.256,2.256,0,0,0,1.414-2.585Z" transform="translate(-340.256 -501.043)" fill="#fabe79"/>
        <path id="Path_282" data-name="Path 282" d="M369.578,531l-.211,1.02-.011.024-.234-.188-14.761-11.7.047-.212,1.526-7.427c3.79.974,3.626-5.561,4.529-6.829,1.83-2.581,3.52.822,3.52.822l-3.145,15.323a31.3,31.3,0,0,0,7.721,7.826l.211.282Z" transform="translate(-337.862 -501.719)" fill="#fabe79"/>
        <path id="Path_283" data-name="Path 283" d="M334.152,648.809l.471,1.579,1.409,4.708.159.53a14.5,14.5,0,0,1,4.909-5.54,17.851,17.851,0,0,1,5.2-2.706l.127-.038.18-.047.2-.047.063-.016-2.166-3.877Z" transform="translate(-334.152 -527.17)" fill="#fabe79"/>
      </g>
      <path id="Path_284" data-name="Path 284" d="M372.734,552.2l-10.278-12.355-10.971-13.212,2.276-3.074.07.059,15.007,11.862-.012.023-2.488,5.339,2.98,2.886Z" transform="translate(-314.082 -492.402)" fill="#fff"/>
      <path id="Path_285" data-name="Path 285" d="M351.9,556.648l5.55-4.137h-8.86s-6.382-10.931-9.867-17.086l-14.342,9.131a6.547,6.547,0,0,0-3.03,5.518l-9.83,46.226a4.153,4.153,0,0,0,.233,2.495l7.817,18.621L318.048,638.9c-.064.884.726,1.393,1.61,1.356.477-.021,1.324-.064,2.155-.127l6.541,31.248-19.692,58.275,23.426,5.841,15.661-47.02,2.542-7.632a15.728,15.728,0,0,0,.8-4.973V641.261l16.508-.588a3.139,3.139,0,0,0,3.13-3.13V578.378C365.518,565.048,351.9,556.648,351.9,556.648Zm-9.782,70.785-.2.047-.18.047-.127.038a17.849,17.849,0,0,0-5.2,2.706,14.5,14.5,0,0,0-4.909,5.54l-.159-.53-1.409-4.708-.471-1.579-.588.308-2.082-2.145,5.789-2.928,6.17-3.125.445-.222.81,2.658,2.166,3.877Z" transform="translate(-306.22 -494.58)" fill="#0060aa"/>
      <path id="Path_286" data-name="Path 286" d="M411.153,606.268l-2.389,11.62h0l-5.551.79,2.7-13.161-.207-.047Z" transform="translate(-323.578 -507.44)" fill="#fff"/>
      <path id="Path_287" data-name="Path 287" d="M442.051,598.286l-17.276,14.358a1.555,1.555,0,0,1-.381.27c-.006,0-.006,0-.011.006a1.416,1.416,0,0,1-1.605-.291l-3.893-3.178-.016-.016a8.218,8.218,0,0,1,.376-1.144l4.925,3.856,16.949-14-6.748-6.213-6.313,6-.471-.127-.255.053,7.182-7.055a1.413,1.413,0,0,1,2,.021l5.561,5.461A1.411,1.411,0,0,1,442.051,598.286Z" transform="translate(-326.453 -504.674)"/>
      <path id="Path_288" data-name="Path 288" d="M441.2,598.493l-16.949,14-4.925-3.856c.26-.62.657-1.3,1.181-1.451,2.452-.736,2.839-4.38,2.839-4.38l4.21-1.483,2.156.106a3.391,3.391,0,0,0,2.977-1.5l.233-.349-4.782-1.3,6.313-6Z" transform="translate(-326.538 -505.019)" fill="#54d0ed"/>
      <path id="Path_289" data-name="Path 289" d="M376.4,664.236l-16.508.588v34.611a15.733,15.733,0,0,1-.8,4.974l-2.542,7.632v46H381.5v-54.4l-3.464-39.87A3.092,3.092,0,0,1,376.4,664.236Z" transform="translate(-315.01 -518.144)" fill="#00477e"/>
      <path id="Path_290" data-name="Path 290" d="M377.929,557.123l-1.854-2.241-3.414-8.472-2.98-2.886,2.488-5.339.012-.023,2.98,5.409Z" transform="translate(-317.422 -495.083)" fill="#f30752"/>
      <path id="Path_291" data-name="Path 291" d="M395.312,591.167l-2.523,12.308-.176.857-.681,3.344-10.689-.739v24.816a2.568,2.568,0,0,1-2.569,2.569H377.5V576.887c-5.222-13.329-18.832-21.73-18.832-21.73l5.55-4.13h-8.87s-6.371-10.936-9.857-17.084v-.011l2.394-3.239,2.5-3.367,10.971,13.211,10.279,12.356,1.854,2.241-2.769-13.552-2.981-5.409.212-1.021,11.7,15.206a7.78,7.78,0,0,1,1.6,4.717v32.853l13.858,3.191Z" transform="translate(-312.982 -493.093)" fill="#00477e"/>
      <rect id="Rectangle_73" data-name="Rectangle 73" width="17.123" height="3.002" transform="translate(41.53 119.595)" fill="#00477e"/>
      <ellipse id="Ellipse_20" data-name="Ellipse 20" cx="1.166" cy="1.166" rx="1.166" ry="1.166" transform="translate(18.605 126.3)" fill="#00477e"/>
      <ellipse id="Ellipse_21" data-name="Ellipse 21" cx="1.166" cy="1.166" rx="1.166" ry="1.166" transform="translate(15.575 121.432)" fill="#00477e"/>
    </g>
    <g id="Group_51" data-name="Group 51" transform="translate(353.314 3026.984)">
      <rect id="Rectangle_74" data-name="Rectangle 74" width="285.278" height="12.508" rx="6.254" transform="translate(0 203.568)" fill="#e4f2f0"/>
      <g id="Group_50" data-name="Group 50" transform="translate(12.26)">
        <path id="Path_292" data-name="Path 292" d="M715.365,726.27v37.989h-174.3V726.27H497.836v54.494a8.708,8.708,0,0,0,8.708,8.708h25.811a8.708,8.708,0,0,0,8.708-8.708v-8.973H568l11.439-3.31H680.158l11.439,3.31h23.769v8.973a8.708,8.708,0,0,0,8.707,8.708h25.811a8.708,8.708,0,0,0,8.708-8.708V726.27Z" transform="translate(-497.833 -581.651)"/>
        <path id="Path_293" data-name="Path 293" d="M758.566,661.484a18.063,18.063,0,0,0-1.325-6.817l-.038-.1a31.4,31.4,0,0,1-2.108-8.358l-1.389-12.523a21.423,21.423,0,0,0-3.711-9.885l-6-8.61h8.647a4.585,4.585,0,0,0,4.57-4.57v-1.616a12.082,12.082,0,0,0-12.069-12.056H732.118l-21.676-40.562a13.693,13.693,0,0,0-12.094-7.259H558.095a13.727,13.727,0,0,0-12.107,7.259l-21.676,40.562H511.284a12.072,12.072,0,0,0-12.057,12.056v1.616a4.577,4.577,0,0,0,4.57,4.57h8.635l-5.984,8.61a21.423,21.423,0,0,0-3.711,9.885l-1.389,12.523a31.363,31.363,0,0,1-2.108,8.358l-.051.1a18.307,18.307,0,0,0-1.326,6.817s.164,18.457.038,27.344H758.516C758.4,679.94,758.566,661.484,758.566,661.484ZM521.61,602l-8.294,11.93H503.8a3.3,3.3,0,0,1-3.307-3.307v-1.616a10.8,10.8,0,0,1,10.794-10.794h12.346Zm213.21,0-2.02-3.787h12.347a10.8,10.8,0,0,1,10.806,10.794v1.616a3.31,3.31,0,0,1-3.307,3.307h-9.518Z" transform="translate(-497.838 -549.129)" fill="#fc9606"/>
        <path id="Path_294" data-name="Path 294" d="M717.464,621.785h19.479a6.462,6.462,0,0,1,4.343,1.654l-7.815-14.19h-200.5l-7.8,14.177a6.513,6.513,0,0,1,4.343-1.641h19.492c9.973,0,16.676,11.387,16.676,15.743,0,8.206-2.524,12.523-5.706,14.795-3.964,2.828-8.963,2.462-11.374,2.462H547.9l2.512,10.679a9.749,9.749,0,0,0,9.405,7.638H706.645a9.763,9.763,0,0,0,9.417-7.638l2.5-10.679h-.694c-2.412,0-7.411.366-11.387-2.462-3.182-2.272-5.706-6.589-5.706-14.795C700.775,633.172,707.477,621.785,717.464,621.785Z" transform="translate(-502.852 -560.167)" fill="#dd6e00"/>
        <path id="Path_295" data-name="Path 295" d="M525.144,621.523" transform="translate(-502.846 -562.42)" fill="none"/>
        <path id="Path_296" data-name="Path 296" d="M524.221,609.249l-2.021,3.787-8.294,11.93h-9.519a3.3,3.3,0,0,1-3.307-3.307v-1.616a10.8,10.8,0,0,1,10.794-10.794Z" transform="translate(-498.429 -560.167)" fill="#2c2c2c"/>
        <path id="Path_297" data-name="Path 297" d="M627.53,553.764v.4a19.528,19.528,0,0,1-19.525,19.524,19.528,19.528,0,0,0-19.537,19.524v5.842H534.7l21.4-40.025a9.919,9.919,0,0,1,8.757-5.268Z" transform="translate(-504.601 -549.98)" fill="#2c2c2c"/>
        <path id="Path_298" data-name="Path 298" d="M747.367,599.057H600.559v-5.842A19.528,19.528,0,0,1,620.1,573.691a19.528,19.528,0,0,0,19.524-19.524v-.4h77.586a9.932,9.932,0,0,1,8.757,5.268Z" transform="translate(-516.692 -549.98)"/>
        <path id="Path_299" data-name="Path 299" d="M725.762,763.153H530.656s-33.9,0-32.8-40.6c.013-.656.025-1.439.038-2.31H758.51c.025.871.038,1.654.05,2.31C759.659,763.153,725.762,763.153,725.762,763.153Z" transform="translate(-497.832 -580.544)" fill="#dd6e00"/>
        <path id="Path_300" data-name="Path 300" d="M789.921,621.523" transform="translate(-551.457 -562.42)" fill="none"/>
        <rect id="Rectangle_75" data-name="Rectangle 75" width="88.554" height="29.603" transform="translate(86.102 78.797)" fill="#ba5800"/>
        <rect id="Rectangle_76" data-name="Rectangle 76" width="84.896" height="25.945" transform="translate(87.931 80.626)" fill="#fff"/>
        <path id="Path_301" data-name="Path 301" d="M642.367,626.417v1.122a4.927,4.927,0,0,0,4.927,4.926H662.2a4.927,4.927,0,0,0,4.926-4.926v-1.122a1.816,1.816,0,0,0-1.816-1.816h-21.13A1.816,1.816,0,0,0,642.367,626.417Z" transform="translate(-524.368 -562.985)"/>
        <path id="Path_302" data-name="Path 302" d="M808.785,620.043v1.616a3.31,3.31,0,0,1-3.307,3.307h-9.518l-8.307-11.93-2.02-3.787h12.347A10.8,10.8,0,0,1,808.785,620.043Z" transform="translate(-550.67 -560.167)" fill="#2c2c2c"/>
        <path id="Path_303" data-name="Path 303" d="M562.753,640.347c0,8.206-2.524,12.523-5.706,14.8-3.965,2.828-8.963,2.462-11.374,2.462H511.688a2.48,2.48,0,0,1-2.474-2.55c.139-3.774.492-10.692,1.452-13.369,1.426-4.015,7.46-8.711,10.275-13.811a6.066,6.066,0,0,1,1.3-1.629,6.513,6.513,0,0,1,4.343-1.641h19.492C556.049,624.6,562.753,635.991,562.753,640.347Z" transform="translate(-499.922 -562.986)"/>
        <path id="Path_304" data-name="Path 304" d="M793.8,655.054a2.469,2.469,0,0,1-2.462,2.55H757.357c-2.412,0-7.41.366-11.387-2.462-3.182-2.272-5.706-6.589-5.706-14.8,0-4.355,6.7-15.743,16.689-15.743h19.479a6.463,6.463,0,0,1,4.343,1.654,5.808,5.808,0,0,1,1.3,1.616c2.815,5.1,8.862,9.8,10.289,13.811C793.31,644.361,793.677,651.279,793.8,655.054Z" transform="translate(-542.341 -562.986)"/>
        <g id="Group_47" data-name="Group 47" transform="translate(204.625 69.48)">
          <path id="Path_305" data-name="Path 305" d="M772.15,648.377a10.048,10.048,0,1,0,15.94-11.171,9.754,9.754,0,0,1,.646,3.537,10.05,10.05,0,0,1-16.585,7.634Z" transform="translate(-752.82 -634.78)" fill="#d8d8d8"/>
          <path id="Path_306" data-name="Path 306" d="M771.358,644.282a10.12,10.12,0,0,0,.647,3.549A10.05,10.05,0,0,0,788.59,640.2a9.753,9.753,0,0,0-.646-3.537,10.041,10.041,0,0,0-16.586,7.622Z" transform="translate(-752.675 -634.234)" fill="#fff"/>
          <path id="Path_307" data-name="Path 307" d="M755.949,640.552a7.532,7.532,0,0,0-7.476,7.476,7.47,7.47,0,0,0,14.672,1.988,7.125,7.125,0,0,0,.28-1.988A7.469,7.469,0,0,0,755.949,640.552Z" transform="translate(-748.473 -635.394)" fill="#f30752"/>
        </g>
        <g id="Group_48" data-name="Group 48" transform="translate(103.444 85.964)">
          <path id="Path_308" data-name="Path 308" d="M687.191,665.937a.827.827,0,0,0,.827-.826V665.1a5.564,5.564,0,0,0-.128-1.19,5.457,5.457,0,0,0-.271-.875,5.537,5.537,0,0,0-5.135-3.467h0a5.533,5.533,0,0,0-3.984,9.446,5.517,5.517,0,0,0,3.913,1.62h.071a5.529,5.529,0,0,0,4.64-2.517.614.614,0,0,0-.511-.951h-.468a1.835,1.835,0,0,0-1.265.487,3.5,3.5,0,0,1-2.41.958h-.045a3.509,3.509,0,0,1-3.408-2.67s0-.006.006-.006h8.167Zm-8.06-2.025a.005.005,0,0,1,0-.007,3.517,3.517,0,0,1,3.3-2.313h.045a3.517,3.517,0,0,1,3.3,2.312s0,.007,0,.007Z" transform="translate(-634.148 -655.369)" fill="#5e758c"/>
          <path id="Path_309" data-name="Path 309" d="M647.368,659.573H647.3a5.533,5.533,0,0,0-5.534,5.533h0a5.533,5.533,0,0,0,5.534,5.534h.071a5.533,5.533,0,0,0,5.534-5.534h0A5.533,5.533,0,0,0,647.368,659.573Zm3.5,5.533a3.51,3.51,0,0,1-3.511,3.511h-.045a3.51,3.51,0,0,1-3.51-3.511h0a3.51,3.51,0,0,1,3.51-3.51h.045a3.51,3.51,0,0,1,3.511,3.51Z" transform="translate(-627.7 -655.37)" fill="#5e758c"/>
          <path id="Path_310" data-name="Path 310" d="M636.664,666.194a1.929,1.929,0,0,0-1.131.379,5.549,5.549,0,0,1-3.275,1.063h-.072a5.577,5.577,0,0,1-5.576-5.577h0a5.576,5.576,0,0,1,5.576-5.577h.072a5.548,5.548,0,0,1,3.337,1.11,1.92,1.92,0,0,0,1.15.394h.474a.735.735,0,0,0,.531-1.243,7.61,7.61,0,0,0-5.478-2.319h-.1a7.635,7.635,0,0,0-7.635,7.635h0a7.635,7.635,0,0,0,7.635,7.635h.1a7.611,7.611,0,0,0,5.413-2.253.734.734,0,0,0-.527-1.247Z" transform="translate(-624.538 -654.424)" fill="#5e758c"/>
          <path id="Path_311" data-name="Path 311" d="M662.906,660.738l-2.609,6.8-2.608-6.8a1.6,1.6,0,0,0-1.49-1.024h-.18a.612.612,0,0,0-.572.832l3.584,9.338a.614.614,0,0,0,.571.393h1.389a.613.613,0,0,0,.572-.393l3.585-9.338a.612.612,0,0,0-.571-.832H664.4A1.6,1.6,0,0,0,662.906,660.738Z" transform="translate(-630.205 -655.395)" fill="#5e758c"/>
          <rect id="Rectangle_77" data-name="Rectangle 77" width="2.024" height="2.024" rx="1.012" transform="translate(39.733 0.004)" fill="#5e758c"/>
          <path id="Path_312" data-name="Path 312" d="M670.612,655.042a.612.612,0,0,0-.831-.572l-.169.065a1.6,1.6,0,0,0-1.025,1.489v12.8a.612.612,0,0,0,.612.612h.8a.613.613,0,0,0,.612-.612Z" transform="translate(-632.625 -654.425)" fill="#5e758c"/>
          <path id="Path_313" data-name="Path 313" d="M675.23,660.491a.612.612,0,0,0-.831-.572l-.169.065a1.6,1.6,0,0,0-1.025,1.49v8.354a.612.612,0,0,0,.612.612h.8a.613.613,0,0,0,.612-.612Z" transform="translate(-633.473 -655.425)" fill="#5e758c"/>
        </g>
        <g id="Group_49" data-name="Group 49" transform="translate(17.357 69.48)">
          <path id="Path_314" data-name="Path 314" d="M538.543,648.377A10.048,10.048,0,1,1,522.6,637.206a9.733,9.733,0,0,0-.647,3.537,10.05,10.05,0,0,0,16.586,7.634Z" transform="translate(-519.092 -634.78)" fill="#d8d8d8"/>
          <path id="Path_315" data-name="Path 315" d="M539.834,644.282a10.118,10.118,0,0,1-.646,3.549A10.05,10.05,0,0,1,522.6,640.2a9.736,9.736,0,0,1,.646-3.537,10.04,10.04,0,0,1,16.585,7.622Z" transform="translate(-519.737 -634.234)" fill="#fff"/>
          <path id="Path_316" data-name="Path 316" d="M555.756,640.552a7.531,7.531,0,0,1,7.476,7.476,7.469,7.469,0,0,1-14.671,1.988,7.119,7.119,0,0,1-.281-1.988A7.469,7.469,0,0,1,555.756,640.552Z" transform="translate(-524.451 -635.394)" fill="#f30752"/>
        </g>
      </g>
    </g>
  </g>
</svg>
