<svg xmlns="http://www.w3.org/2000/svg" width="400" height="311.884" viewBox="0 0 544 311.884">
  <g id="covlie_instant_consultation_illustration_" data-name="covlie_instant_consultation_illustration " transform="translate(-128 -1369)">
    <path id="Path_317" data-name="Path 317" d="M839.289,343H742.031a11.951,11.951,0,0,0-11.951,11.951v6.626H851.24v-6.626A11.951,11.951,0,0,0,839.289,343Z" transform="translate(-179.24 1026)" fill="#0060aa"/>
    <path id="Path_318" data-name="Path 318" d="M730.08,604.276a11.959,11.959,0,0,0,11.951,11.959H839.29a11.951,11.951,0,0,0,11.951-11.959V597.65H730.08Z" transform="translate(-179.24 973.43)" fill="#0060aa"/>
    <rect id="Rectangle_87" data-name="Rectangle 87" width="121.16" height="183.494" transform="translate(550.84 1387.601)" fill="#54d0ed"/>
    <path id="Path_319" data-name="Path 319" d="M834.3,440.964a24.886,24.886,0,0,0-35.17.849l-5.222,5.483-5.222-5.483a24.874,24.874,0,1,0-36.012,34.321l41.265,43.273L835.2,476.135A24.878,24.878,0,0,0,834.3,440.964Z" transform="translate(-182.487 1007.193)" fill="#f30752"/>
    <path id="Path_320" data-name="Path 320" d="M332.863,364.76V581.528H197.26V375.036a10.451,10.451,0,0,1,10.6-10.277Z" transform="translate(-69.244 1021.508)" fill="#54d0ed"/>
    <path id="Path_321" data-name="Path 321" d="M634.627,375.036V581.528H499V364.76H624.025A10.443,10.443,0,0,1,634.627,375.036Z" transform="translate(-131.536 1021.508)" fill="#54d0ed"/>
    <path id="Path_322" data-name="Path 322" d="M273.944,438.323V364.76h-6.015v73.563a37.456,37.456,0,0,0-34.409,37.3v62.294a13.49,13.49,0,0,0,13.49,13.49H255.6V545.4h-8.578a7.5,7.5,0,0,1-7.491-7.491V475.612a31.409,31.409,0,1,1,62.818,0v62.294a7.5,7.5,0,0,1-7.491,7.491h-8.578v6.039h8.586a13.49,13.49,0,0,0,13.49-13.49V475.652a37.455,37.455,0,0,0-34.406-37.329Z" transform="translate(-76.73 1021.508)" fill="#0060aa"/>
    <path id="Path_323" data-name="Path 323" d="M639.1,455.869c-15.665,0-28.409,15.562-28.409,34.686,0,12.562-3.682,23.077-10.642,30.425a31.386,31.386,0,0,1-23.013,9.967c-15.871,0-33.044-12.641-33.044-40.392V364.38H538V490.556c0,31.9,20.267,46.439,39.091,46.439a37.4,37.4,0,0,0,27.346-11.824c8.047-8.491,12.292-20.45,12.292-34.583,0-15.792,10.039-28.647,22.37-28.647h87.379V455.9Z" transform="translate(-139.587 1021.586)" fill="#0060aa"/>
    <path id="Path_324" data-name="Path 324" d="M818.527,478.861a17.7,17.7,0,0,1-35.147,2.952H792.7a8.729,8.729,0,1,0,0-5.912H783.38a17.7,17.7,0,0,1,35.147,2.96Z" transform="translate(-190.244 1001.61)" fill="#0060aa"/>
    <path id="Path_325" data-name="Path 325" d="M368.14,392.225l51.938,46.907,51.938-46.907V364.76H368.14Z" transform="translate(-104.521 1021.508)" fill="#fc9606"/>
    <path id="Path_326" data-name="Path 326" d="M261.278,589.46h-1.262a5.214,5.214,0,0,0,0,10.419h1.262a5.214,5.214,0,0,0,0-10.419Z" transform="translate(-81.165 975.12)" fill="#fff"/>
    <path id="Path_327" data-name="Path 327" d="M299.106,589.46h-1.27a5.214,5.214,0,0,0,0,10.419h1.27a5.214,5.214,0,0,0,0-10.419Z" transform="translate(-88.973 975.12)" fill="#fff"/>
    <path id="Path_328" data-name="Path 328" d="M799.25,472.47a8.729,8.729,0,0,0-8.2,5.769H775.38v5.912h15.673a8.729,8.729,0,1,0,8.2-11.681Z" transform="translate(-188.592 999.272)" fill="#fff"/>
    <path id="Path_329" data-name="Path 329" d="M197.24,638.9v31.377c0,6.015,5.333,11.11,12.76,12.959a25.18,25.18,0,0,0,6.087.73H329.844v18.045H319.527c-6.4,0-11.578,4.761-11.578,10.673v4.063H461.638v-4.039c0-5.9-5.182-10.673-11.586-10.673H439.735V683.966H553.73a25.272,25.272,0,0,0,6.253-.794c7.348-1.873,12.594-6.952,12.594-12.919V638.9Z" transform="translate(-69.24 964.136)" fill="#0060aa"/>
    <path id="Path_330" data-name="Path 330" d="M1278.339,2545.96l51.971,47.5,51.971-47.5v189.612H1278.339Z" transform="translate(-1014.813 -1132.437)" fill="#fff"/>
  </g>
</svg>
