<svg xmlns="http://www.w3.org/2000/svg" width="500.655" height="400.451" viewBox="0 0 670.655 524.451">
  <g id="covlie_blog_illustration_" data-name="covlie_blog_illustration " transform="translate(-1122 -295)">
    <path id="Union_2" data-name="Union 2" d="M-2084,294.415l18.707-57.959,1.518-4.7,95.2,25.943c16.632,14.508,40.23,13.127,52.671,2.632,14.585-12.311,21.539-39.489,23.149-46.565,26.966-44.022,72.194-125.627,84.94-148.721a30.89,30.89,0,0,0,3.777-18.44c-1.662-14.265-10.249-27.766-22.1-36.246l-16.454-8.983h-.007a17.052,17.052,0,0,1-1.7-1.374c3.565.518,6.778,2.045,9.914,2.023a249.155,249.155,0,0,1,35.078,2.128q2.3,1.426,4.547,3.025-2.249-1.6-4.547-3.025c169.175,0,189.631,210.758,135.438,307.1-37.416,66.517-131.069,102.315-220.837,102.318C-1977.038,413.573-2065.272,375.7-2084,294.415Zm227,27.209c-63.481-.14-120.686-55.783-190.274-79.787C-1977.684,265.842-1920.475,321.485-1856.995,321.625Zm58.262-16.587.551-.323Zm.633-.372c.329-.194.663-.393.993-.591Q-1797.6,304.373-1798.1,304.666Zm2.036-1.224.188-.115Zm.581-.357.32-.2Zm-251.847-61.269-.493-.169Zm57.376-101.549a1.81,1.81,0,0,0-.117-.215l-.876-19.5a4.593,4.593,0,0,0-3.433-4.077l-11.467-2.731c2.731-19.279,20.655-91.712,49.917-96.451l14.024,20.19-43.771,109.4Z" transform="translate(3429.27 401.975)" fill="#0060aa" stroke="rgba(0,0,0,0)" stroke-width="1"/>
    <rect id="Rectangle_1" data-name="Rectangle 1" width="665.013" height="9.698" transform="translate(1122 809.752)" fill="#0060aa" opacity="0.26"/>
    <g id="Group_1" data-name="Group 1" transform="translate(1181.288 442.956)">
      <path id="Path_2" data-name="Path 2" d="M2514.413,2658.285c-1.742-12.671-9.082-18.58-22.191-17.866C2493.965,2653.091,2501.3,2659,2514.413,2658.285Z" transform="translate(-2492.223 -2634.781)" fill="#27ae60"/>
      <path id="Path_3" data-name="Path 3" d="M2516,2673c1.742-12.671,9.082-18.58,22.19-17.866C2536.446,2667.805,2529.108,2673.715,2516,2673Z" transform="translate(-2489.586 -2633.149)" fill="#27ae60"/>
      <rect id="Rectangle_2" data-name="Rectangle 2" width="4.214" height="54.108" transform="translate(22.147)" fill="#27ae60"/>
    </g>
    <path id="Path_4" data-name="Path 4" d="M2559.555,2600.453c-10.29.547-18.625,2.584-25.084,6.075.1-.057.2-.116.3-.172q-2.951-9.828-16.4-19.905-13.947,9.845-16.749,19.841,14.871,7.805,16.608,25.863c-.008.082-.024.157-.032.24-1.848-20-15.564-30.572-41.359-31.942C2473.067,2655.446,2563.325,2655.445,2559.555,2600.453Zm-28.1,7.909c-.12.082-.239.164-.357.248C2531.214,2608.526,2531.333,2608.444,2531.453,2608.361Z" transform="translate(-1312.654 -2197.804)" fill="#f30752"/>
    <path id="Path_5" data-name="Path 5" d="M2515.9,2625.426a29.759,29.759,0,0,1,9.645-16.709,11.63,11.63,0,0,0-20.886,0,29.749,29.749,0,0,1,9.644,16.709,42.67,42.67,0,0,1,.8,5.221A43.05,43.05,0,0,1,2515.9,2625.426Z" transform="translate(-1309.556 -2196.057)" fill="#ffe000"/>
    <path id="Path_6" data-name="Path 6" d="M2500.23,2682.146l-18.816,75.614c-6.745,27.107,2.475,33.8,17.2,33.614h38.614c14.727.188,23.949-6.507,17.2-33.614l-18.815-75.614C2523.553,2681.96,2512.3,2681.96,2500.23,2682.146Z" transform="translate(-1312.383 -2187.207)" fill="#ffe000"/>
    <path id="Path_7" data-name="Path 7" d="M2579.985,2787.344v-.865a6.265,6.265,0,0,0-6.264-6.264H2466.359a6.264,6.264,0,0,0-6.265,6.264v.865a6.264,6.264,0,0,0,6.265,6.264h18.769l-25.033,193.517h6.575l31.462-193.517h43.818l31.462,193.517h6.574l-25.033-193.517h18.769A6.265,6.265,0,0,0,2579.985,2787.344Z" transform="translate(-1314.498 -2176.314)" fill="#0060aa"/>
    <path id="Path_8" data-name="Path 8" d="M2810.915,2607.377l.291-1.692-16.542,1.945a8.008,8.008,0,0,1-6.125-6.839l-.8-15.278-.137-2.68a.905.905,0,0,0-.892-.853h-.018a5.833,5.833,0,0,1-2.631-.579,5.185,5.185,0,0,1-2.579-2.681,2.468,2.468,0,0,1-.118-.341,6.627,6.627,0,0,1-.124-4.085l4.258-14.718a7.551,7.551,0,0,0-2.028-7.084c-1.087-2.252-2.48-6.96-2.082-9.424l2.644-17.261a.59.59,0,0,0,.093.068c6.646,4.281,31.227,1.945,31.227,1.945l-1.388,13.866c-.349,3.559,12.947,1.22,15.471,3.748,1.458,1.456-2.019,9.637,0,12.544,1.605,2.307-2.692,7.57-1.183,5.208,0,0,4.195-12.628,8.007-15.821,3.7-3.1,13.059-3.537,7.7,18.5-1.362,5.6,7.249,10.269,11.956,10.174-3.8,17.384,4.092,26.948,7.968,30.469a17.8,17.8,0,0,0,1.694,1.375h.01a2.633,2.633,0,0,0,.28.192l-57.3,47.015.6-37.688Z" transform="translate(-1278.909 -2204.531)" fill="#fabe79"/>
    <path id="Path_9" data-name="Path 9" d="M2906.2,2667.775c-12.745,23.1-57.973,104.7-84.937,148.723.243-1.1.367-1.711.367-1.711l-65.364-29.752,1.8-1.452,71.323-9.6a14.853,14.853,0,0,0,10.815-7.174l34.321-55.411-40.49-17.262-11.985,45.4-85.218,30.3L2729.7,2751.7l-1.353-2.086,43.771-109.4-14.023-20.183-19.509-28.076,5.433-4.94v.009l27.674-25.088,2.306-2.094,13.212,14.767a2.469,2.469,0,0,0,.118.341,5.183,5.183,0,0,0,2.578,2.681l3.678,4.113.8,15.278a8.008,8.008,0,0,0,6.125,6.839l16.542-1.945-.291,1.692-1.742,10.024-.6,37.688,57.3-47.015a2.665,2.665,0,0,1-.28-.192l16.453,8.981c11.851,8.475,20.435,21.981,22.1,36.245A30.86,30.86,0,0,1,2906.2,2667.775Z" transform="translate(-1284.747 -2200.756)" fill="#fff"/>
    <path id="Path_10" data-name="Path 10" d="M2761.85,2838.549l-95.21-25.943-20.224,62.659-16.18,50.142-15.213-2.749-30.529-5.507-4.015-.723,27.273-93.465.347-.419,2.006-7.634,8.437-32.18c11.85-39.264,53.728-25.7,67.527-9.872l1.927,1.671.558.48,1.144.99.177.153.753.653.4.345.847.73,69.066,59.872Z" transform="translate(-1301.147 -2178.876)" fill="#4f0064"/>
    <path id="Path_11" data-name="Path 11" d="M2842.117,2797.6s-.123.609-.37,1.712c-1.607,7.074-8.564,34.253-23.147,46.564-12.439,10.49-36.041,11.874-52.666-2.633l-.911-.8-3.23-2.8c-15.022-13.077-43.125-37.412-59.307-51.415l-6.529-5.652-.851-.731-.4-.35-.753-.652-.173-.155-1.144-.988-.558-.482-1.927-1.664c-13.8-15.836-55.679-29.4-67.528,9.865l-8.438,32.186-2.006,7.633-.342.422-33.568,40.452-10.844-9.4-23.216-20.128-.542-.474,85.649-111.91a31.076,31.076,0,0,1,36.11-9.017l39.9,18.156v.008l.759.34,6.131,2.792,20.4,9.291h.008l2.326,1.06,6.192,2.815,3.183,1.448,32.429,14.756Z" transform="translate(-1305.229 -2183.573)" fill="#8541b7"/>
    <path id="Path_12" data-name="Path 12" d="M2618.492,2960.565l-.629,9.373-100.724-1.59.451-10.073a10.393,10.393,0,0,1,6.149-9.021l26.122-11.59c11.813,6.089,10.884,21.99,10.884,21.99Z" transform="translate(-1308.171 -2158.851)" fill="#f30752"/>
    <path id="Path_13" data-name="Path 13" d="M2616.086,2951.878l-.861,12.734-57.747-.911s.93-15.9-10.884-21.99l25.762-11.437a17.976,17.976,0,0,0,9.453-9.883l6.442-19.219,30.529,5.507-3.865,11.858C2610.239,2927.468,2615.16,2947.847,2616.086,2951.878Z" transform="translate(-1304.905 -2162.899)" fill="#fabe79"/>
    <path id="Path_14" data-name="Path 14" d="M2554.059,2895.631l-3.907,8.542-93.634-37.156,3.989-9.261a10.391,10.391,0,0,1,8.945-6.259l28.535-1.588c8.891,9.878,2.39,24.42,2.39,24.42Z" transform="translate(-1314.895 -2168.584)" fill="#f30752"/>
    <path id="Path_15" data-name="Path 15" d="M2572.948,2846.354l-7,8.705c-7.536,6.7-10.156,27.5-10.711,31.6l-5.312,11.6-53.683-21.3s6.5-14.541-2.4-24.421l28.143-1.573a18,18,0,0,0,12.341-5.9l15.4-18.841Z" transform="translate(-1310.755 -2171.211)" fill="#fabe79"/>
    <path id="Path_18" data-name="Path 18" d="M2789.64,2546.031l-30.8,3.049,14.214,17.611-27.674,25.088v-.009l-26.8-46.305a18.984,18.984,0,0,1,16.412-28.49l54.163-.06c-.03.1-.06.217-.081.329-.94,4.558.051,8.1,2.168,9.548Z" transform="translate(-1286.116 -2205.517)" fill="#fabe79"/>
    <path id="Path_19" data-name="Path 19" d="M2728.462,2727.666a3.021,3.021,0,0,0-.773-.891,3.072,3.072,0,0,0-4.976,2.365,2.775,2.775,0,0,0,.038.558l4.375,9.565-.145,9.234-10.326,1.34h-.008l-20.4-9.291-6.131-2.792-.759-.34v-.008l-1.74-38.262a2.788,2.788,0,0,1,3.634-2.9l21.438,5.109,11.468,2.731a4.594,4.594,0,0,1,3.432,4.077Z" transform="translate(-1289.264 -2185.638)"/>
    <path id="Path_20" data-name="Path 20" d="M2876.15,2698l-34.324,55.41a14.851,14.851,0,0,1-10.815,7.172l-71.324,9.592-1.8,1.453-32.429-14.756-3.183-1.448-6.192-2.815-2.326-1.06,10.326-1.34.145-9.234-4.375-9.565a2.775,2.775,0,0,1-.038-.558,3.072,3.072,0,0,1,4.976-2.365,3.021,3.021,0,0,1,.773.891,1.916,1.916,0,0,1,.118.215l4.278,6.609,1.355,2.089,7.141,18.144,85.216-30.3,11.99-45.4Z" transform="translate(-1286.365 -2187.348)" fill="#fabe79"/>
    <path id="Path_21" data-name="Path 21" d="M2700.819,2706.411c-.362-2.229-1.948-3.929-3.691-3.957a2.649,2.649,0,0,0-1.83.708,3.74,3.74,0,0,0-3.053-2.134,2.672,2.672,0,0,0-2.092.953,4.192,4.192,0,0,0-.79,3.434,5.1,5.1,0,0,1,2.592,6.181c.361,2.227,1.948,3.928,3.69,3.956a2.677,2.677,0,0,0,2.091-.953,4.192,4.192,0,0,0,.791-3.435c-.022-.141-.064-.273-.1-.41a2.685,2.685,0,0,0,1.6-.905A4.2,4.2,0,0,0,2700.819,2706.411Z" transform="translate(-1289.078 -2185.096)" fill="#333232"/>
    <g id="Group_3" data-name="Group 3" transform="translate(1401.74 517.456)">
      <path id="Path_22" data-name="Path 22" d="M2694.276,2705.076c-.237-1.462-1.225-2.66-2.208-2.675s-1.587,1.158-1.351,2.619,1.225,2.658,2.208,2.674S2694.513,2706.537,2694.276,2705.076Z" transform="translate(-2690.666 -2702.401)" fill="#fff"/>
      <path id="Path_23" data-name="Path 23" d="M2698.671,2706.361c-.237-1.462-1.225-2.66-2.208-2.675s-1.588,1.156-1.352,2.618,1.227,2.659,2.208,2.674S2698.908,2707.822,2698.671,2706.361Z" transform="translate(-2690.178 -2702.258)" fill="#fff"/>
      <ellipse id="Ellipse_1" data-name="Ellipse 1" cx="1.732" cy="2.712" rx="1.732" ry="2.712" transform="translate(1.993 6.717) rotate(-16.481)" fill="#fff"/>
    </g>
    <path id="Path_24" data-name="Path 24" d="M2840.112,2502.826c-7.732-1.412-53.954-2.29-58.212,15.723-.031.106-.061.221-.084.335-.939,4.557.053,8.1,2.167,9.548.031.023.069.045.092.061,6.648,4.281,27.56,2.755,27.56,2.755l-.03.26-1.389,13c-.351,3.557,18.7,8.281,14.524,24.889-.687,2.725,5.029,2.236,6.541-.13,0,0,1.115-16.081,4.93-19.279,3.7-3.1,13.059-3.534,7.7,18.5-1.358,5.6,7.251,10.273,11.96,10.174a4.68,4.68,0,0,0,1.633-.283c8.342-3.418,12.227-23.385,12.875-34.483.069-1.136.1-2.175.1-3.1C2870.48,2510.306,2845.263,2503.765,2840.112,2502.826Z" transform="translate(-1278.856 -2207.154)"/>
  </g>
</svg>
