<svg xmlns="http://www.w3.org/2000/svg" width="300.159" height="250.399" viewBox="0 0 348.159 329.399">
  <g id="covlie_demo_illustration_I_" data-name="covlie_demo_illustration_I " transform="translate(-900 -4179.851)">
    <path id="Path_204" data-name="Path 204" d="M1510.4,612.715c-1.324-3.923-1.44-4.986-5.839-10.747-21.329-27.933-5.718-52.851,15.938-52.851V523.4c0-11.523,0-20.872,19.652-20.872h184.482c19.653,0,19.653,9.348,19.653,20.872v25.72c21.656,0,37.267,24.917,15.938,52.851-4.4,5.761-4.516,6.823-5.84,10.747-3.967,11.752,4.48,22.495,5.9,35.976,2.338,22.125-11.9,27.622-21.6,28.84v12.942h-10.975l-4.749-12.78H1541.82l-4.749,12.78H1526.1V677.531c-9.7-1.218-23.937-6.715-21.6-28.84C1505.92,635.209,1514.367,624.467,1510.4,612.715Z" transform="translate(-594.4 3818.778)" fill="#0060aa"/>
    <g id="Group_33" data-name="Group 33" transform="translate(937.474 4179.851)">
      <g id="Group_32" data-name="Group 32" transform="translate(0 2.39)">
        <rect id="Rectangle_32" data-name="Rectangle 32" width="120.169" height="196.432" transform="translate(201.034 4.478) rotate(90)" opacity="0.1"/>
        <rect id="Rectangle_33" data-name="Rectangle 33" width="120.169" height="196.432" transform="translate(196.432 0) rotate(90)"/>
        <rect id="Rectangle_34" data-name="Rectangle 34" width="181.283" height="107.05" transform="translate(7.575 6.559)" fill="#fff"/>
        <path id="Path_205" data-name="Path 205" d="M1579.738,308.429v48.385c7.955-5.51,22.785-15.069,30.331-15.374,10.412-.432,30.7,9.3,45,16.983a172.012,172.012,0,0,0,15.94-11.5A121.672,121.672,0,0,0,1682.293,354c6.957-7.119,16.137-14.394,24.6-14.394,7.75,0,27.186,12.02,42,22.013V308.429Z" transform="translate(-1566.098 -296.091)" fill="#e4f2f0"/>
        <path id="Path_206" data-name="Path 206" d="M1579.738,415.706v24.927h169.153V425.868c-10.666-2.644-20.156-6.389-21.576-6.585-3.315-.46-45.267-8.228-75.295-3.657C1633.784,418.4,1601.943,417.133,1579.738,415.706Z" transform="translate(-1566.098 -332.801)" fill="#54d0ed"/>
        <g id="Group_31" data-name="Group 31" transform="translate(13.64 43.518)">
          <path id="Path_207" data-name="Path 207" d="M1604.334,356.185c7.75,0,27.186,12.02,42,22.013v12.426c-2.94-.27-6.419-.622-10.527-1.075-23.544-2.576-44.058-12.169-56.071-18.97C1586.7,363.46,1595.875,356.185,1604.334,356.185Z" transform="translate(-1477.183 -356.185)" fill="#ffe000"/>
          <path id="Path_208" data-name="Path 208" d="M1753.775,358.984c10.412-.432,30.7,9.3,45,16.983-5.651,3.556-11.8,6.781-16.636,7.694-10.845,2.042-41.935-5.213-58.692-5.638v-3.665C1731.4,368.848,1746.229,359.288,1753.775,358.984Z" transform="translate(-1723.444 -357.152)" fill="#ffe000"/>
        </g>
        <path id="Path_209" data-name="Path 209" d="M1638.431,386.583c4.834-.913,10.984-4.138,16.636-7.694a172.013,172.013,0,0,0,15.94-11.5,121.657,121.657,0,0,0,11.286,7.079c12.012,6.8,32.527,16.394,56.071,18.97,4.107.453,7.587.805,10.527,1.075v15.11c-10.666-2.643-20.156-6.389-21.576-6.585-3.315-.46-45.267-8.228-75.295-3.657-18.236,2.779-50.077,1.508-72.282.081V380.944C1596.5,381.37,1627.586,388.624,1638.431,386.583Z" transform="translate(-1566.098 -316.556)" fill="#27ae60"/>
      </g>
      <path id="Path_210" data-name="Path 210" d="M1816.209,285.87l.914,1.139V285.87Z" transform="translate(-1788.72 -285.87)" fill="#dff4f0"/>
    </g>
    <path id="Path_211" data-name="Path 211" d="M1560.344,480.408" transform="translate(-427.415 3826.455)" fill="#eaab6c"/>
    <g id="Group_36" data-name="Group 36" transform="translate(949.069 4321.304)">
      <path id="Path_212" data-name="Path 212" d="M1812.439,575" transform="translate(-1793.169 -527.682)" fill="none" stroke="#000" stroke-width="0.347"/>
      <g id="Group_34" data-name="Group 34" transform="translate(6.94 17.862)">
        <path id="Path_213" data-name="Path 213" d="M1799.584,530.317l.242.254a6.738,6.738,0,0,1,.031,9.244l-.673.717a8.036,8.036,0,0,1-1.746-5.166,7.769,7.769,0,0,1,1.885-5.482A1.078,1.078,0,0,0,1799.584,530.317Z" transform="translate(-1779.552 -529.884)" fill="#c11036"/>
        <path id="Path_214" data-name="Path 214" d="M1816.788,547.581l.053-.054a8.576,8.576,0,0,1,6.028,2.672,8.489,8.489,0,0,1,2.794,6.044l-.011.012a6.1,6.1,0,0,1-8.947.028A6.362,6.362,0,0,1,1816.788,547.581Z" transform="translate(-1815.026 -536.006)" fill="#c11036"/>
      </g>
      <path id="Path_215" data-name="Path 215" d="M1804.823,526.051a4.276,4.276,0,0,0,1.19-3.015l-.228-20.51h12.583l-1.252,17.5a.946.946,0,0,0,.07.363,7.768,7.768,0,0,0-1.885,5.482,8.035,8.035,0,0,0,1.746,5.166l-8.995,9.589a8.492,8.492,0,0,0-2.795-6.044,8.577,8.577,0,0,0-6.027-2.672Z" transform="translate(-1790.475 -502.526)" fill="#e5c400"/>
      <path id="Path_216" data-name="Path 216" d="M1808.778,535.711a8.58,8.58,0,0,1,6,2.739,8.488,8.488,0,0,1,2.727,6.075l9.1-9.489a8.035,8.035,0,0,1-1.69-5.186,7.768,7.768,0,0,1,1.946-5.46.934.934,0,0,1-.065-.364l1.778-21.5h-12.914v24.389a4.274,4.274,0,0,1-1.223,3Z" transform="translate(-1806.912 -502.526)" fill="#ffe000"/>
      <g id="Group_35" data-name="Group 35" transform="translate(0 21.865)">
        <path id="Path_217" data-name="Path 217" d="M1810.088,536.45l.239.257a6.739,6.739,0,0,1-.072,9.244l-.68.71a8.034,8.034,0,0,1-1.689-5.186,7.768,7.768,0,0,1,1.945-5.46A1.078,1.078,0,0,0,1810.088,536.45Z" transform="translate(-1789.884 -536.015)" fill="#f30752"/>
        <path id="Path_218" data-name="Path 218" d="M1827.536,553.406l.053-.053a8.578,8.578,0,0,1,6,2.739,8.489,8.489,0,0,1,2.727,6.075l-.012.012a6.1,6.1,0,0,1-8.945-.071A6.361,6.361,0,0,1,1827.536,553.406Z" transform="translate(-1825.724 -542.032)" fill="#f30752"/>
      </g>
    </g>
    <g id="Group_37" data-name="Group 37" transform="translate(912.054 4382.183)">
      <ellipse id="Ellipse_18" data-name="Ellipse 18" cx="10.385" cy="10.385" rx="10.385" ry="10.385" transform="translate(231.105 0)" fill="#00477e"/>
      <ellipse id="Ellipse_19" data-name="Ellipse 19" cx="10.385" cy="10.385" rx="10.385" ry="10.385" transform="translate(0 0)" fill="#00477e"/>
      <rect id="Rectangle_35" data-name="Rectangle 35" width="172.245" height="35.595" transform="translate(39.815 23.718)" fill="#00477e"/>
    </g>
    <path id="Path_219" data-name="Path 219" d="M1596.446,493.472v28.013a1.928,1.928,0,0,0,1.933,1.923h13.841a1.927,1.927,0,0,0,1.933-1.923v-1.848a8.563,8.563,0,0,1-1.612-1.179c-.236-.2-.386-.349-.386-.349s-4.9.386-6.468,0c-4.875-1.207-1.7-9.882-1.047-10.589,1.509-1.631,5.865-3.083,8.835-3.545l.17-.028a2.221,2.221,0,0,0-.151-.245c-2.3-3.554-6.732-.094-8.76-1.442-.716-.471-1.706-2.207,1.868-3.46,4.817-1.7,6.148-2.112,7.3-1.452a1.786,1.786,0,0,1,.254.151v-4.026a1.935,1.935,0,0,0-1.414-1.857,1.868,1.868,0,0,0-.519-.075h-13.841A1.935,1.935,0,0,0,1596.446,493.472Z" transform="translate(-504.795 3822.591)"/>
    <g id="Group_39" data-name="Group 39" transform="translate(984.374 4247.932)">
      <path id="Path_220" data-name="Path 220" d="M1646.862,519.382a6.837,6.837,0,0,0,3.258,4.95c8.771,5.366,8.443,5.388,11.031,8.341.1.124.219.255.336.387l5.147-3.142s9.485,16.075,3.7,25.7c-.685,1.137.518,2.376,2.428,3.529a43.013,43.013,0,0,0,7.276,3.2c9.536-1.349,25.108-3.573,35.855-5.264a2.143,2.143,0,0,0-.073-1.714c-3.069-7.057-4.1-14.253-.86-16.76a14,14,0,0,0,3.055-3.237c4.994-7.357,1.458-17.381,1.458-17.381l8.063-3.288.357-.146s-3.12-5.533-12.409-19.648c-.962-1.465-6.75-3.222-12.065-4.564,1.64,2.282.518,9.033-1.313,12.139-2.537,4.287-9.317,8.7-9.317,8.7s-4.63-8.508-8.545-11.92c-1.961-1.713-8.18-14.509-8.18-14.509l.044-.182c-3.675,1.218-15.018,5.191-17.869,8.523-2.012,2.34-2.377,8.967-3.464,11.862-1.071,2.843-5.789,10.87-7.385,13.546-.022.036-.043.066-.065.1C1647.037,519.1,1646.862,519.382,1646.862,519.382Z" transform="translate(-1635.821 -422.922)" fill="#4f0064"/>
      <g id="Group_38" data-name="Group 38" transform="translate(0 0)">
        <path id="Path_221" data-name="Path 221" d="M1685.217,465.019s6.223,12.795,8.184,14.511c3.912,3.4,8.543,11.918,8.543,11.918a42.435,42.435,0,0,0,8-6.855c-1.989-12.484-13.407-22.261-13.407-22.261l8.042.829a.309.309,0,0,1,.019-.056s.453.075,1.15.17l.1.019c.6.075,1.367.16,2.159.217l.141.009c1.679.1,3.433.047,3.97-.546,1.32-1.424,3.018-10.683,3.979-18.688v-.01c-.415-2.452-2.045-11.428-4.261-13.785-3.942-4.186-17.085-3.319-21.413.462-2.517,2.216-2.466,2.617-2.635,5.116-.1,1.472-8.129-4.429-8.762-2.142-.9,3.253,6.7,19.71,6.4,20.562,2.9,5.845,1.25,9.586-.165,10.341A.139.139,0,0,0,1685.217,465.019Z" transform="translate(-1644.977 -403.186)" fill="#fabe79"/>
        <path id="Path_222" data-name="Path 222" d="M1601.5,551.39c2.443,1.968,5.65,4.52,9.077,7.145,4.827,3.7,10.1,7.546,14.26,10.09,1.028.627,5.825.1,6.6-.816a11.4,11.4,0,0,0,1.036-1.487c4.1-6.824,5.679-21.646,8.522-29.308h-10.877a80.077,80.077,0,0,1-7.6,12.022s-5.643-10.9-11.5-18.314l-8.063,3.288S1606.5,544.034,1601.5,551.39Z" transform="translate(-1519.315 -438.941)" fill="#fabe79"/>
        <path id="Path_223" data-name="Path 223" d="M1592.823,524.64c1.565.387,6.468,0,6.468,0a10.846,10.846,0,0,0,2,1.527,1.241,1.241,0,0,0,.735.2c.6-.123,1.387-1.99,1.387-1.99s2.055-5.431,1.961-7.326c-.086-1.763-.726-6.4-2.48-6.656a1.96,1.96,0,0,0-.34-.029,6.742,6.742,0,0,0-1.263.057c-.16.01-.33.038-.51.057a25.134,25.134,0,0,0-5.223,1.405,10.533,10.533,0,0,0-3.781,2.168,2.028,2.028,0,0,0-.226.359C1590.635,516.2,1588.373,523.536,1592.823,524.64Z" transform="translate(-1476.286 -431.871)" fill="#fabe79"/>
        <path id="Path_224" data-name="Path 224" d="M1594.415,504.724a1.756,1.756,0,0,0,.452.462,3.712,3.712,0,0,0,2.659.189c2.15-.377,4.733-1.169,6.251,1.5.179-.019.349-.047.509-.057a6.733,6.733,0,0,1,1.263-.057c.311-2.121.339-4.884-.49-5.685a7.143,7.143,0,0,0-.774-.65c-1.225-.868-2.385-.518-7.552,1.3C1593.934,502.707,1593.934,503.989,1594.415,504.724Z" transform="translate(-1479.283 -428.268)" fill="#fabe79"/>
        <path id="Path_225" data-name="Path 225" d="M1521,693.855c1.886,2.478,3.821,5.663,4.251,8.68,1.429,10.011,2.7,11.6,9.467,12,4.471.26,5.123,2.355,10.559,5.873s16.059-.075,19.638-2.655.778-4.4.778-4.4-23.867-11.552-26.706-15.293c-.417-.544-5.275-7.444-8.091-11.438Z" transform="translate(-1392.494 -493.054)" fill="#fabe79"/>
        <path id="Path_226" data-name="Path 226" d="M1617.833,749.421c3.44,2.909,2.734,4.884,5.037,10.841s12.941,9.667,17.337,9.878,3.215-2.865,3.215-2.865-12.394-23.2-12.474-27.748c-.007-.313.022-2.326.066-4.863l-2.136-.438-10.6-2.151a10.92,10.92,0,0,1-1,2.529q-.546.973-1.006,1.837C1612.583,743.377,1613.028,745.367,1617.833,749.421Z" transform="translate(-1529.927 -508.833)" fill="#fabe79"/>
        <path id="Path_227" data-name="Path 227" d="M1646.644,643.962s-.32,11.337-.044,14.683c.54,6.627,2.428,6.11,2.756,24.037.051,2.968-1.481,12.934-1.481,12.934l1.685.343,10.6,2.151,2.137.438,1.4.284s.117-1.115.321-3.026c.678-6.357,2.3-21.544,3.609-33.937.357-3.354.684-6.5.969-9.223.561-5.373.94-9.048.94-9.237a33.084,33.084,0,0,0-.423-5.541c-1.7-9.864-8-10.04-10.557-9.791-7.589.729-18.248,5.059-25.779,8.537-.962.437-1.867.868-2.712,1.269-1.312.626-2.465,1.2-3.427,1.676a33.562,33.562,0,0,1-4.677,1.752Z" transform="translate(-1561.211 -472.714)" fill="#c11036"/>
        <path id="Path_228" data-name="Path 228" d="M1572.3,601.583v-.007a.014.014,0,0,1,0-.022c.044-.27.065-.415.065-.415a.19.19,0,0,0,.043-.007c.35-1.327.8-2.792,1.138-4.374a43.011,43.011,0,0,0,7.276,3.2c6.641-.941,16.221-2.3,25.05-3.617,3.842-.576,7.545-1.137,10.8-1.647,3.222-.5,6.015-.963,8.078-1.335a18.44,18.44,0,0,1,8.523.117c6.649,1.917,10.17,8.872,17.279,20.012q1.465,2.3,3.157,4.834l23.935,38.669-2.771,1.479-10.819,5.767L1662,665.331l-18.007-24.868c.561-5.373.94-9.048.94-9.237a33.109,33.109,0,0,0-.422-5.54c-1.7-9.865-8-10.04-10.557-9.792-7.589.729-18.248,5.059-25.779,8.537-.962.438-1.866.868-2.711,1.269-1.313.627-2.465,1.2-3.428,1.676-5.766,2.166-10.4,3.893-10.6,3.908-7.363.649-12.022-1.815-14.938-5.584-3.12-4.032-4.243-9.551-4.549-14.334A51.306,51.306,0,0,1,1572.3,601.583Z" transform="translate(-1536.609 -460.533)" fill="#f30752"/>
        <path id="Path_229" data-name="Path 229" d="M1737.235,560.237c.955,9.033,13.278,23.55,15.784,32.145,1.66,5.7-2.046,11.152-.4,14.119.1.187,8.9,3.787,9.713,3.787.991,0,4.807-.447,5.934-1.48,1.283-1.177,2.24-5.655,1.976-6.678-.753-2.927-6.525-6.452-7.91-9.142-3.857-7.516-7.9-32.865-7.9-32.865l8.107-9.354c-2.588-2.952-2.259-2.975-11.03-8.341a6.838,6.838,0,0,1-3.259-4.95s.176-.284.459-.78c-3.185,4.534-6.875,10.068-8.121,13.042C1739.2,553.056,1736.951,557.5,1737.235,560.237Z" transform="translate(-1737.211 -441.015)" fill="#fabe79"/>
        <path id="Path_230" data-name="Path 230" d="M1683.131,480.737s1.626,15.049,13.407,22.261a15.181,15.181,0,0,0,1.32-1.848c1.829-3.1,2.951-9.853,1.311-12.135-.255-.359-1.622-.631-2.028-.745-7.477-2.027-6.176-6.166-5.968-6.7Z" transform="translate(-1631.578 -421.591)" fill="#e2a161"/>
        <path id="Path_231" data-name="Path 231" d="M1605.125,510.278a3.179,3.179,0,0,0,2.319,3.055,2.049,2.049,0,0,1,.226-.358,10.533,10.533,0,0,1,3.781-2.168,3.26,3.26,0,0,0,.047-.528,3.134,3.134,0,0,0-1.075-2.376,3.711,3.711,0,0,1-2.659-.189,1.769,1.769,0,0,1-.453-.462A3.188,3.188,0,0,0,1605.125,510.278Z" transform="translate(-1492.181 -430.794)" fill="#fff"/>
        <rect id="Rectangle_36" data-name="Rectangle 36" width="2.163" height="2.163" rx="1.082" transform="translate(121.509 67.883)" fill="#fff"/>
        <rect id="Rectangle_37" data-name="Rectangle 37" width="2.163" height="2.163" rx="1.082" transform="translate(118.837 67.855)" fill="#fff"/>
        <path id="Path_232" data-name="Path 232" d="M1680.416,396.737c16.433-12.058,29.477-4.97,35.682.79,10.717,9.958,8.371,14.987,8.524,18.581.094,2.224-3.018,8.377-3.018,8.377l-3.011,7.37s-.036-.218-.094-.612v-.008c-.408-2.45-2.042-11.432-4.257-13.786-3.944-4.184-17.09-3.317-21.412.467-2.516,2.209-1.2,7.422-1.371,9.915-.008.124-.027.266-.041.4a2.776,2.776,0,0,0-2.312-1.646c-1.657,0-3,1.993-3,4.451s1.181,4.131,2.49,4.131a3.755,3.755,0,0,1,1.17.2c2.413,1.451-1.61,5.136-1.857,5.857-.044.146-.072.219-.072.219s-14.535-11.674-15.9-14.99C1663.9,406.885,1677.193,399.1,1680.416,396.737Z" transform="translate(-1647.382 -390.147)"/>
      </g>
    </g>
    <g id="Group_41" data-name="Group 41" transform="translate(1188.715 4299.933)">
      <g id="Group_40" data-name="Group 40" transform="translate(17.65 26.928)">
        <path id="Path_233" data-name="Path 233" d="M1410.958,524.162c.863-6.283,4.5-9.213,11-8.859C1421.1,521.587,1417.458,524.516,1410.958,524.162Z" transform="translate(-1397.862 -512.508)" fill="#fff"/>
        <path id="Path_234" data-name="Path 234" d="M1442.017,536.576c-.863-6.283-4.5-9.212-11-8.858C1431.878,534,1435.517,536.93,1442.017,536.576Z" transform="translate(-1431.016 -516.817)" fill="#fff"/>
        <rect id="Rectangle_38" data-name="Rectangle 38" width="2.089" height="26.828" transform="translate(11.027)" fill="#fff"/>
      </g>
      <path id="Path_235" data-name="Path 235" d="M1397.938,476.736a29.383,29.383,0,0,1,12.438,3.012c-.051-.027-.1-.057-.15-.085q1.463-4.873,8.133-9.87,6.915,4.882,8.3,9.838-7.373,3.87-8.235,12.824c0,.041.012.078.016.119.917-9.914,7.717-15.158,20.507-15.837C1440.821,504,1396.068,504,1397.938,476.736Zm13.934,3.921.177.123Z" transform="translate(-1388.722 -469.793)" fill="#f30752"/>
      <path id="Path_236" data-name="Path 236" d="M1426.228,494.6a14.753,14.753,0,0,0-4.782-8.285,5.766,5.766,0,0,1,10.356,0,14.749,14.749,0,0,0-4.782,8.285,21.4,21.4,0,0,0-.4,2.589A21.145,21.145,0,0,0,1426.228,494.6Z" transform="translate(-1396.902 -474.406)" fill="#ffe000"/>
      <path id="Path_237" data-name="Path 237" d="M1427.934,550.477l9.329,37.491c3.345,13.44-1.228,16.76-8.53,16.666h-19.145c-7.3.093-11.875-3.226-8.53-16.666l9.329-37.491C1416.37,550.386,1421.95,550.386,1427.934,550.477Z" transform="translate(-1389.438 -497.775)" fill="#ffe000"/>
      <path id="Path_238" data-name="Path 238" d="M1383.853,636.8v-.429a3.106,3.106,0,0,1,3.106-3.106h53.232a3.106,3.106,0,0,1,3.106,3.106v.429a3.106,3.106,0,0,1-3.106,3.106h-9.306l12.412,95.949h-3.26l-15.6-95.949h-21.726l-15.6,95.949h-3.26l12.412-95.949h-9.306A3.106,3.106,0,0,1,1383.853,636.8Z" transform="translate(-1383.853 -526.534)" fill="#0060aa"/>
    </g>
    <path id="Path_239" data-name="Path 239" d="M1823.28,671.953a1.955,1.955,0,0,1-1.477-1.415,4.793,4.793,0,0,1,.739-3.015s8.658-2.4,9.125-5.169.88-5.79.24-6.713-2.769-1.145-2.769-1.145l-6.966,4.535s-5.735-2.253-7.643-2.129c-2.227.141-7.494,3.606-7.494,3.606l-.524.671h1.687v7.772a2.182,2.182,0,0,1-2.179,2.178h-.517l-.393,14.479s-18.873,24.86-21.334,30.835c-2.831,6.861,0,20.491,0,20.491s-17.722-10.2-19.021-15.692c-1.188-5.027-3.028,21.98,23.193,21.98,20.121,0,41.055-.006,41.055-.006a8.8,8.8,0,0,0-7.015-5.729c-1.5-.221.185-23.814.185-23.814s4.228-3,4.228-7.427-2.2-14.356-2.751-16.018.184-14.4.184-14.4,5.828-2.136,7.379-3.4a.973.973,0,0,0,.375-.48,20.98,20.98,0,0,0,0-3.507S1826.234,672.876,1823.28,671.953Zm-16.14,66.365-1.052-10.652,8.2-7.606,1.988,18.257Z" transform="translate(-832.392 3766.028)" fill="#fff"/>
    <path id="Path_240" data-name="Path 240" d="M1807.443,664.731V672.5a2.183,2.183,0,0,1-2.179,2.178H1801V666.91a2.182,2.182,0,0,1,2.178-2.179Z" transform="translate(-831.637 3762.475)" fill="#e6e6e6"/>
    <path id="Path_241" data-name="Path 241" d="M1772.852,679.624a2.74,2.74,0,0,1-2.584.2,2.5,2.5,0,0,1-.517-1.114.975.975,0,0,0,.375-.48,20.983,20.983,0,0,0,0-3.507s-5.354,4.43-8.307,3.507a1.955,1.955,0,0,1-1.477-1.415,71.018,71.018,0,0,1,8.412-4.031,2.942,2.942,0,0,1,4.1,2.443C1773.2,676.886,1773.615,678.83,1772.852,679.624Z" transform="translate(-770.93 3759.748)" fill="#f30752"/>
  </g>
</svg>
