<svg xmlns="http://www.w3.org/2000/svg" width="450" height="362.599" viewBox="0 0 635.898 362.599">
  <g id="covlie_wireless_posthospt_illustration" transform="translate(-1108 -2084)">
    <path id="Path_52" data-name="Path 52" d="M783.478,1749.587H224.483V1543h56.412v-29.611h23.384v33.146h15.244v27.961l64.121-56.217v61.76h39.218V1477.976h19.481v22.013H468.92v-22.956h18.969v22.956h26.792v-22.013h18.811v87.881h62.426V1505.6h48.294l39.3-34.456v44.626h32.6V1492.72h20.92v-26.041h46.445Z" transform="translate(932.229 637.343)" fill="#e4f2f0"/>
    <path id="Path_53" data-name="Path 53" d="M217.414,1700.069c26.89,0,27.031,19.914,29.766,20.807,13-13.583,16.3-16.752,30.757-17.948,21.262,2.054,21.618,10.56,25.308,7.957s10.546-1.528,16.345,4.667,17.927-17.038,43.763,2.582c7.511,5.7,18.454-11.36,31.108-9.81s20.036,17.038,24.781,19.621,21.09,4.13,29,8.261,17.4,18.588,24.782,19.861,13.182,9.8,13.182,9.8l-314.741-.487S190.524,1700.069,217.414,1700.069Z" transform="translate(936.536 621.063)" fill="#27ae60"/>
    <path id="Path_54" data-name="Path 54" d="M835.77,1695.091c-20.682-2.869-28.492,11.907-31.21,12.8-3.144,1.033-11.836-4.2-26.206-5.4-20.441-1.7-21.488,10.56-25.157,7.957s-10.482-1.528-16.248,4.667-17.82-17.038-43.5,2.582c-7.466,5.7-18.344-11.36-30.923-9.81s-19.917,17.038-24.633,19.621-20.965,4.13-28.826,8.261-17.3,18.588-24.634,19.861-13.1,9.8-13.1,9.8H835.77Z" transform="translate(908.128 621.497)" fill="#27ae60"/>
    <g id="Group_5" data-name="Group 5" transform="translate(1316.82 2193.11)">
      <path id="Path_55" data-name="Path 55" d="M396.547,1562.42v21.417L768.14,1587.6v-21.66C768.14,1564,396.547,1562.42,396.547,1562.42Z" transform="translate(-396.547 -1562.42)" fill="#dd6e00" opacity="0.72"/>
      <path id="Path_56" data-name="Path 56" d="M396.547,1597.321v21.362l371.593,3.823v-21.66C768.14,1598.9,396.547,1597.321,396.547,1597.321Z" transform="translate(-396.547 -1564.845)" fill="#dd6e00" opacity="0.72"/>
      <path id="Path_57" data-name="Path 57" d="M396.547,1632.221v21.2l371.593,3.982v-21.66C768.14,1633.8,396.547,1632.221,396.547,1632.221Z" transform="translate(-396.547 -1567.27)" fill="#dd6e00" opacity="0.72"/>
    </g>
    <path id="Path_58" data-name="Path 58" d="M387.581,1679.033v42.885h.962v-27H725.348v27h36.943c7.9,0,14.318-4.541,14.318-10.156v-32.73Z" transform="translate(920.896 622.587)" fill="#dd6e00"/>
    <path id="Path_59" data-name="Path 59" d="M767.922,1608.8c-23.509,0-42.574.542-42.574,41.42v39.82H439.236l-.393-39.82c0-40.877-19.064-41.42-42.574-41.42h-8.687v166.262h51.261v-58.025H725.348v58.025h51.261V1608.8Z" transform="translate(920.896 627.467)" fill="#fc9606"/>
    <g id="Group_6" data-name="Group 6" transform="translate(1394.016 2092.454)">
      <path id="Path_60" data-name="Path 60" d="M526.979,1483.9c6.421,1.744,2.349,13.114-2.427,14.727,1.07,10.1.26,14.987-6.969,19.877-11.274,6.115-14.093,6.115-25.367,0-7.229-4.891-8.039-9.782-6.969-19.877-4.775-1.613-8.847-12.983-2.427-14.727.287-.077.6-.129.913-.181l6.707-12.723h28.917l6.707,12.723c.314.052.626.1.914.181Z" transform="translate(-479.508 -1455.411)" fill="#fabe79"/>
      <path id="Path_61" data-name="Path 61" d="M485.634,1488.171c-21.27-43.762,60.182-46.676,38.886,0-1.409-10.407-6.5-4.917-5.35-15.012a71.953,71.953,0,0,1-28.212,0c1.148,10.095-3.941,4.605-5.324,15.012Z" transform="translate(-479.685 -1454.248)"/>
    </g>
    <path id="Path_62" data-name="Path 62" d="M577.4,1503.7v-13l-76.158,13.787-74.414-12.582v13l73.71,8.909Z" transform="translate(918.169 635.673)" fill="#f2efeb"/>
    <rect id="Rectangle_8" data-name="Rectangle 8" width="18.344" height="29.268" transform="translate(1434.963 2413.401) rotate(180)" fill="#fabe79"/>
    <path id="Path_63" data-name="Path 63" d="M497.21,1826.026c5.541,4.629,25.162,4.644,30.687,0,1.367-1.146,1.044-4.116.588-6.673a2.158,2.158,0,0,1-.588.794c-5.525,4.644-25.146,4.629-30.687,0a3,3,0,0,1-.911-1.425C495.828,1821.631,495.667,1824.746,497.21,1826.026Z" transform="translate(913.364 612.881)" fill="#c11036"/>
    <path id="Path_64" data-name="Path 64" d="M496.354,1816.689a22.857,22.857,0,0,1,31.952-.236c-.162-.852-.309-1.6-.382-2.175-.72-5.57-4.733-18.269-9.377-20.841-2.41-1.337-8.979-1.337-11.376,0-4.952,2.749-9.156,13.521-9.935,18.607C497.06,1813.176,496.663,1814.881,496.354,1816.689Z" transform="translate(913.338 614.707)" fill="#f30752"/>
    <path id="Path_65" data-name="Path 65" d="M496.323,1818.211a3,3,0,0,0,.911,1.426c5.541,4.63,25.162,4.644,30.687,0a2.154,2.154,0,0,0,.588-.794c-.074-.368-.132-.735-.206-1.073a22.857,22.857,0,0,0-31.952.236A.987.987,0,0,1,496.323,1818.211Z" transform="translate(913.34 613.391)" fill="#fff"/>
    <path id="Path_66" data-name="Path 66" d="M559.025,1616.255c15.782,66.725-29.634,57.091-29.634,57.091l-66.195.05s-23.514-21.313-26.7-66.724c-1.69-24.11,91.557,9.583,91.557,9.583S557.21,1608.582,559.025,1616.255Z" transform="translate(917.498 628.219)" fill="#0060aa"/>
    <rect id="Rectangle_9" data-name="Rectangle 9" width="18.344" height="29.268" transform="translate(1475.339 2280.065) rotate(120.25)" fill="#fabe79"/>
    <path id="Path_67" data-name="Path 67" d="M576.871,1690.05c6.791-2.454,16.688-19.4,15.46-26.508-.3-1.759-3.029-2.975-5.468-3.87a2.157,2.157,0,0,1,.389.908c1.228,7.113-8.669,24.055-15.46,26.509a3,3,0,0,1-1.691.07C572.379,1689.03,574.989,1690.739,576.871,1690.05Z" transform="translate(908.213 623.932)" fill="#c11036"/>
    <path id="Path_68" data-name="Path 68" d="M568.834,1686.683a22.86,22.86,0,0,1,15.893-27.72c-.817-.29-1.539-.54-2.071-.765-5.175-2.184-18.165-5.115-22.726-2.4-2.37,1.408-5.68,7.083-5.731,9.827-.121,5.663,7.067,14.722,11.068,17.956C566.155,1684.3,567.428,1685.506,568.834,1686.683Z" transform="translate(909.318 624.278)" fill="#f30752"/>
    <path id="Path_69" data-name="Path 69" d="M570.035,1687.13a3,3,0,0,0,1.691-.069c6.791-2.454,16.688-19.4,15.46-26.508a2.153,2.153,0,0,0-.389-.908c-.354-.121-.7-.256-1.031-.363A22.86,22.86,0,0,0,569.872,1687,.946.946,0,0,1,570.035,1687.13Z" transform="translate(908.28 623.96)" fill="#fff"/>
    <path id="Path_70" data-name="Path 70" d="M580.849,1496.725l-2.4,112.242-82.428,5.617-76.853-10.332,1.777-106.874,79.768,7.532Z" transform="translate(918.701 635.255)" fill="#fff"/>
    <g id="Group_10" data-name="Group 10" transform="translate(1425.791 2137.313)">
      <path id="Path_71" data-name="Path 71" d="M514.349,1520.99l67.61-6.744v-11.789l-67.61,6.744Z" transform="translate(-513.703 -1502.457)" fill="#dcd0bf" opacity="0.72"/>
      <g id="Group_7" data-name="Group 7" transform="translate(0.646 55.094)">
        <path id="Path_72" data-name="Path 72" d="M585.476,1586.474l-20.5,2.045v-24.809l20.5-2.045Z" transform="translate(-517.867 -1561.664)" fill="#ece9e3" opacity="0.72"/>
        <path id="Path_73" data-name="Path 73" d="M558.857,1589.138l-19.178,1.913v-24.809l19.178-1.913Z" transform="translate(-516.109 -1561.849)" fill="#ece9e3" opacity="0.72"/>
        <path id="Path_74" data-name="Path 74" d="M533.527,1566.856v24.809l-19.178,1.913v-24.809Z" transform="translate(-514.349 -1562.025)" fill="#ece9e3" opacity="0.72"/>
      </g>
      <g id="Group_8" data-name="Group 8" transform="translate(0.646 15.98)">
        <path id="Path_75" data-name="Path 75" d="M585.476,1523.3l-20.5,2.045v-3.668l20.5-2.045Z" transform="translate(-517.867 -1519.631)" fill="#f2efeb" opacity="0.72"/>
        <path id="Path_76" data-name="Path 76" d="M585.476,1530.337l-20.5,2.045v-3.667l20.5-2.045Z" transform="translate(-517.867 -1520.12)" fill="#f2efeb" opacity="0.72"/>
        <path id="Path_77" data-name="Path 77" d="M585.476,1537.162l-20.5,2.045v-3.668l20.5-2.045Z" transform="translate(-517.867 -1520.594)" fill="#f2efeb" opacity="0.72"/>
        <path id="Path_78" data-name="Path 78" d="M585.476,1543.988l-20.5,2.045v-3.668l20.5-2.045Z" transform="translate(-517.867 -1521.068)" fill="#f2efeb" opacity="0.72"/>
        <path id="Path_79" data-name="Path 79" d="M585.476,1551.026l-20.5,2.045V1549.4l20.5-2.045Z" transform="translate(-517.867 -1521.557)" fill="#f2efeb" opacity="0.72"/>
        <path id="Path_80" data-name="Path 80" d="M585.476,1557.852l-20.5,2.045v-3.668l20.5-2.045Z" transform="translate(-517.867 -1522.031)" fill="#f2efeb" opacity="0.72"/>
        <path id="Path_81" data-name="Path 81" d="M557.1,1522.3v3.668l-42.749,4.264v-3.668Z" transform="translate(-514.349 -1519.816)" fill="#f2efeb" opacity="0.72"/>
        <path id="Path_82" data-name="Path 82" d="M557.1,1533l-42.749,4.264V1533.6l42.749-4.264Z" transform="translate(-514.349 -1520.305)" fill="#f2efeb" opacity="0.72"/>
        <path id="Path_83" data-name="Path 83" d="M557.1,1539.828l-42.749,4.264v-3.668l42.749-4.264Z" transform="translate(-514.349 -1520.779)" fill="#f2efeb" opacity="0.72"/>
        <path id="Path_84" data-name="Path 84" d="M557.1,1546.653l-42.749,4.264v-3.667l42.749-4.264Z" transform="translate(-514.349 -1521.253)" fill="#f2efeb" opacity="0.72"/>
        <path id="Path_85" data-name="Path 85" d="M557.1,1553.691l-42.749,4.264v-3.667l42.749-4.264Z" transform="translate(-514.349 -1521.742)" fill="#f2efeb" opacity="0.72"/>
        <path id="Path_86" data-name="Path 86" d="M557.1,1560.517l-42.749,4.264v-3.668l42.749-4.264Z" transform="translate(-514.349 -1522.217)" fill="#f2efeb" opacity="0.72"/>
      </g>
      <g id="Group_9" data-name="Group 9" transform="translate(0 83.741)">
        <path id="Path_87" data-name="Path 87" d="M584.783,1596.119l-20.5,2.045V1594.5l20.5-2.045Z" transform="translate(-517.173 -1592.451)" fill="#f2efeb" opacity="0.72"/>
        <path id="Path_88" data-name="Path 88" d="M584.783,1603.157l-20.5,2.045v-3.668l20.5-2.045Z" transform="translate(-517.173 -1592.94)" fill="#f2efeb" opacity="0.72"/>
        <path id="Path_89" data-name="Path 89" d="M584.783,1609.982l-20.5,2.045v-3.668l20.5-2.045Z" transform="translate(-517.173 -1593.414)" fill="#f2efeb" opacity="0.72"/>
        <path id="Path_90" data-name="Path 90" d="M556.4,1595.116v3.668l-42.748,4.264v-3.668Z" transform="translate(-513.655 -1592.636)" fill="#f2efeb" opacity="0.72"/>
        <path id="Path_91" data-name="Path 91" d="M556.4,1605.822l-42.748,4.264v-3.668l42.748-4.264Z" transform="translate(-513.655 -1593.125)" fill="#f2efeb" opacity="0.72"/>
        <path id="Path_92" data-name="Path 92" d="M556.4,1612.647l-42.748,4.264v-3.668l42.748-4.264Z" transform="translate(-513.655 -1593.599)" fill="#f2efeb" opacity="0.72"/>
      </g>
    </g>
    <g id="Group_11" data-name="Group 11" transform="translate(1344.998 2139.378)">
      <path id="Path_93" data-name="Path 93" d="M426.83,1504.675l32.788,2.633V1519.1l-32.788-2.633Z" transform="translate(-426.83 -1504.675)" fill="#f2efeb"/>
      <path id="Path_94" data-name="Path 94" d="M440.147,1524.36v3.667l-13.317-1.069v-3.668Z" transform="translate(-426.83 -1505.969)" fill="#f2efeb"/>
      <path id="Path_95" data-name="Path 95" d="M440.147,1535.067,426.83,1534v-3.668l13.317,1.069Z" transform="translate(-426.83 -1506.458)" fill="#f2efeb"/>
      <path id="Path_96" data-name="Path 96" d="M440.147,1541.892l-13.317-1.069v-3.667l13.317,1.069Z" transform="translate(-426.83 -1506.932)" fill="#f2efeb"/>
      <path id="Path_97" data-name="Path 97" d="M440.147,1548.717l-13.317-1.069v-3.667l13.317,1.069Z" transform="translate(-426.83 -1507.406)" fill="#f2efeb"/>
      <path id="Path_98" data-name="Path 98" d="M440.147,1555.756l-13.317-1.069v-3.667l13.317,1.069Z" transform="translate(-426.83 -1507.896)" fill="#f2efeb"/>
      <path id="Path_99" data-name="Path 99" d="M440.147,1562.581l-13.317-1.069v-3.668l13.317,1.069Z" transform="translate(-426.83 -1508.37)" fill="#f2efeb"/>
      <path id="Path_100" data-name="Path 100" d="M440.147,1569.406l-13.317-1.069v-3.667l13.317,1.069Z" transform="translate(-426.83 -1508.844)" fill="#f2efeb"/>
      <path id="Path_101" data-name="Path 101" d="M440.147,1576.445l-13.317-1.069v-3.667l13.317,1.069Z" transform="translate(-426.83 -1509.333)" fill="#f2efeb"/>
      <path id="Path_102" data-name="Path 102" d="M440.147,1583.271,426.83,1582.2v-3.668l13.317,1.069Z" transform="translate(-426.83 -1509.807)" fill="#f2efeb"/>
      <path id="Path_103" data-name="Path 103" d="M440.147,1590.1l-13.317-1.069v-3.668l13.317,1.069Z" transform="translate(-426.83 -1510.281)" fill="#f2efeb"/>
      <path id="Path_104" data-name="Path 104" d="M440.147,1597.134l-13.317-1.069V1592.4l13.317,1.069Z" transform="translate(-426.83 -1510.771)" fill="#f2efeb"/>
      <path id="Path_105" data-name="Path 105" d="M440.147,1603.96l-13.317-1.069v-3.668l13.317,1.069Z" transform="translate(-426.83 -1511.245)" fill="#f2efeb"/>
      <path id="Path_106" data-name="Path 106" d="M468.216,1508l28.073,2.254v11.789l-28.073-2.254Z" transform="translate(-429.706 -1504.906)" fill="#dcd0bf" opacity="0.72"/>
      <path id="Path_107" data-name="Path 107" d="M494.673,1527.3v61.826l-49.7-3.99v-61.827Z" transform="translate(-428.09 -1505.969)" fill="#dcd0bf" opacity="0.72"/>
    </g>
    <g id="Group_13" data-name="Group 13" transform="translate(1350.687 2212.226)">
      <g id="Group_12" data-name="Group 12" transform="translate(0 0)">
        <path id="Path_108" data-name="Path 108" d="M488.578,1678.071l11.363,89.359h23.942l6.339-89.359C530.223,1649.416,488.578,1640.977,488.578,1678.071Z" transform="translate(-436.809 -1587.852)" fill="#17b9ea"/>
        <path id="Path_109" data-name="Path 109" d="M466.351,1587.013c-24.754-14.436-50.492,12.947-18.448,31.635l80.385,39.541,12.061-20.682Z" transform="translate(-432.944 -1582.964)" fill="#17b9ea"/>
      </g>
    </g>
    <path id="Path_110" data-name="Path 110" d="M582.074,1566.426c1.138-2.714,7.335-6.244,10.4-5.4,1.94.531,6.751,7.906,7.48,9.089,1,1.622,2.3,5.495,1.952,7.37-.947,5.146-11.722,15.634-11.722,15.634s.284-6.981-.484-9c-.458-1.207-7.988-10.388-7.631-12.037C582.372,1570.7,581.528,1567.728,582.074,1566.426Z" transform="translate(907.394 630.796)" fill="#fabe79"/>
    <path id="Path_111" data-name="Path 111" d="M428.392,1531.158c-1.221-2.894-7.872-6.659-11.166-5.764-2.082.567-7.245,8.43-8.027,9.693-1.07,1.729-2.467,5.86-2.1,7.859,1.016,5.488,11.957,18.985,11.957,18.985s.1-9.27,1.141-11.911c.505-1.286,2.394,1.5,6.324-6.686C427.3,1541.712,428.978,1532.546,428.392,1531.158Z" transform="translate(919.543 633.272)" fill="#fabe79"/>
    <path id="Path_112" data-name="Path 112" d="M712.145,1553.915l-3.35.166-25.027,1.165,2.352-26.13.541-6.116.645-7.2h20.658l.936,8.446a13.888,13.888,0,0,1-7.8,5.908,2.681,2.681,0,0,1-.562.125,10.684,10.684,0,0,1-2.5.291l6.574,14.355c2.621-4.515,5.658-11.609,4.348-18.807a.383.383,0,0,1,.1-.312l1.6,14.626.021.27Z" transform="translate(900.315 633.929)" fill="#fabe79"/>
    <path id="Path_113" data-name="Path 113" d="M665.5,1786.545c-6.849,8.536-14.851,22.441-21.845,27.646-7.755,5.739-24.436,1.913-19.355-7.487,1.81-3.333,3.949-7.426,6.15-11.7,1.234,3.579,4.134,5.615,10.387,2.18,10.594-5.842,18.966-20.92,23.059-29.476C665.416,1772.723,668.152,1783.274,665.5,1786.545Z" transform="translate(904.513 616.425)" fill="#8541b7"/>
    <path id="Path_114" data-name="Path 114" d="M663.56,1762.444s.37,1.049.865,2.715c-4.093,8.556-12.465,23.634-23.059,29.476-6.253,3.434-9.153,1.4-10.387-2.18,6.664-12.979,13.9-27.584,13.9-27.584l2.839-33.8h24.457Z" transform="translate(903.983 618.971)" fill="#fabe79"/>
    <path id="Path_115" data-name="Path 115" d="M695.457,1832.623H667.01l3.044-29.661,10.244,16.373,12.753-16.229Z" transform="translate(901.479 613.976)" fill="#8541b7"/>
    <path id="Path_116" data-name="Path 116" d="M691.592,1779.456l1.687,20.857-12.753,16.23-10.244-16.374,2.263-21.927v-15.468h21.989Z" transform="translate(901.252 616.768)" fill="#fabe79"/>
    <path id="Path_117" data-name="Path 117" d="M777.434,1605.073c-3.557-.687-1.518,2.288-9.3-2.1,10.922,0,12.253-14.5,3.849-18.661-2.1-1.019-8.113-4.6-8.113-4.6l-8.426-15.852.438,11.921-14.646,6.283s.687,9.818,2.746,11.463c.354.291-5.512-1.374-8.613-2.268a1.925,1.925,0,0,0-2.371,1.29,162.611,162.611,0,0,0-6.325,28.73s-22.9-2.143-35.054-3.245a214.044,214.044,0,0,1,32.329,16.851c-11.005,7.406-60.539-8.738-60.539-8.738s.1-5.846-.478-12.565c-.041-.4-.062-.749-.125-1.145-.707-7.468,1.02-10.921-2.559-12.856-19.576-10.589-26.878,6.47-27.066,6.032-.956-1.955-3.765-7.531-2.642-9.34,16.726-26.421,10.693-41.275,26.172-50.241,3.369-1.956,12.96-3.537,12.96-3.537a.672.672,0,0,0,.042-.145c.145-.416.541-1.643,1.165-3.2,1.747-4.577,9.32-13,11.525-9.4l.124.25c5.7,11.92,10.465,18.307,13.834,19.867l1.165.478.062.021.042.021a38.376,38.376,0,0,0,3.266-4.826c2.621-4.515,5.659-11.609,4.348-18.807a.383.383,0,0,1,.1-.313c.874-1.31,8.3-2.912,14.563.021.27.125.561.25.852.354a25.1,25.1,0,0,0,5.326,1.435h.021c4.681.833,10.049,1.04,13.9,1.478,13.315,1.5,50.99,38.986,53.445,62.307C793.994,1597.167,785.839,1606.7,777.434,1605.073Z" transform="translate(904.032 633.304)" fill="#f30752"/>
    <path id="Path_118" data-name="Path 118" d="M686.386,1623.292c-.987.041-25.108-4.351-25.416-4.351-.824,0-28.757-3.167-27.584-8.063.205.452,0-.01,0-.01S643.391,1580.8,686.386,1623.292Z" transform="translate(903.818 628.041)" fill="#fabe79"/>
    <path id="Path_119" data-name="Path 119" d="M714.094,1507.133c-1.269,4.805-2.954,10.172-5.763,14.209a13.885,13.885,0,0,1-7.8,5.907,2.7,2.7,0,0,1-.562.125,10.677,10.677,0,0,1-2.5.291,1.745,1.745,0,0,1-.332.021s-6.033,0-11.047-7.594a37.3,37.3,0,0,1-5.138-13.564v-.021c-4.119-4.764-9.716-17.308.125-17.579,2.1-8.426,7.8-14.958,18.64-14.958,7.843,0,12.836,6.512,14.771,14.958C724.85,1489.179,718.192,1502.952,714.094,1507.133Z" transform="translate(900.883 636.836)" fill="#fabe79"/>
    <path id="Path_120" data-name="Path 120" d="M737.593,1674.66c-4.493,6.616-23.362,7.052-31.58,4.889l.353-2c0-10.3-4.389-18.578-12.857-21.595a1.62,1.62,0,0,0-1.373-.728l-18.7,68.029H648.97l2.267-26.984v-.062l1.873-22.24h-.333l2.372-33.994v-.041c-.084-1.061,1.375-21.449,12.149-21.449,7.677,0,16.664,2.476,25.61,6.054a213.007,213.007,0,0,1,32.329,16.851c5.576,3.454,9.7,6.262,11.421,7.469.624.438.936.665.936.665S744.376,1664.695,737.593,1674.66Z" transform="translate(902.733 626.794)" fill="#8541b7"/>
    <rect id="Rectangle_10" data-name="Rectangle 10" width="19.368" height="36.811" rx="3.502" transform="translate(1640.318 2192)"/>
    <path id="Path_121" data-name="Path 121" d="M780.261,1587.243c-2.1-1.028-8.1-4.607-8.1-4.607L763.94,1566.8v12.01L749.53,1585s.679,9.812,2.736,11.458a7.292,7.292,0,0,0,2.2,1.069c4.114,1.44,11.395,2.243,11.395,2.243a1.084,1.084,0,0,1,.1.061c3.209,1.913,6.829,4.032,10.45,6.068C787.337,1605.9,788.674,1591.4,780.261,1587.243Z" transform="translate(895.746 630.386)" fill="#fabe79"/>
    <circle id="Ellipse_7" data-name="Ellipse 7" cx="2.741" cy="2.741" r="2.741" transform="translate(1647.546 2202.574)" fill="#fff"/>
    <path id="Path_122" data-name="Path 122" d="M296.2,1801.735c-.815,2.337-6.046,4.3-7.63,2.423-3.608-4.249-9.338-12.7-13.195-18.545a9.954,9.954,0,0,0,6.1-3.6c2.588-3.124,4.052-3.355,8.939-2.346C293.805,1786.969,297.81,1797.168,296.2,1801.735Z" transform="translate(928.693 615.632)"/>
    <path id="Path_123" data-name="Path 123" d="M354.2,1790.074s-11.825,12.124-16.941,13.94c-1.423.505-4.237-.048-6.018,0s-3.31-4.8,0-8.748c1.827-2.183,5.888-9.258,9.17-15.161a11.228,11.228,0,0,0,3.292-3.047S348.586,1783.489,354.2,1790.074Z" transform="translate(924.946 615.776)"/>
    <path id="Path_124" data-name="Path 124" d="M390.454,1741.229c-6.453.769-10.969-3.538-14.483,1.125a186.618,186.618,0,0,0-14.734-32.6,50.942,50.942,0,0,1,11.655-1.576c1.7,6.508,4.692,15.891,8.391,18.728,2.866,2.2,8.856.595,14.205-1.616h.009a2.814,2.814,0,0,0,.538.038C407.229,1725.059,397.066,1740.441,390.454,1741.229Z" transform="translate(922.726 620.562)" fill="#e2e2e2"/>
    <path id="Path_125" data-name="Path 125" d="M360.769,1709.872a186.591,186.591,0,0,1,14.734,32.6,3.994,3.994,0,0,0-.287.385,44.792,44.792,0,0,0-3.894,7.634,192.345,192.345,0,0,0-16.829-38.7A60.645,60.645,0,0,1,360.769,1709.872Z" transform="translate(923.195 620.444)" fill="#f30752"/>
    <g id="Group_14" data-name="Group 14" transform="translate(1180.106 2316.054)">
      <path id="Path_126" data-name="Path 126" d="M360.557,1766.995c-.668-3.942,1.149-10.681,3.477-16.363a192.353,192.353,0,0,0-16.829-38.7c-29.254,10.393-53.864,39.329-77.221,19.727-5.943-4.99-4.32,5.278-4.32,10.815s-6.361,6.066-10.942,12.132-4.58,32.706-5.081,39.829,10.171,4.221,10.171,4.221,0-13.19,4.831-15.834c2.837-1.538,5.934-1.259,8.939-1.875a9.957,9.957,0,0,0,6.1-3.605c2.587-3.125,4.051-3.354,8.938-2.346,3.765.8,9.579,2.337,19.528,3.875,14.818,2.288,22.8-.692,26.723-3.288a11.243,11.243,0,0,0,3.292-3.047s4.886,6.431,10.5,13.016c5.693,6.672,12.128,13.5,14.947,13.892,5.6.788,7.887-.259,7.377-4.221S361.568,1773.061,360.557,1766.995Z" transform="translate(-249.624 -1695.753)"/>
      <path id="Path_127" data-name="Path 127" d="M396.907,1715.412c-1.52-5.537-8.391-7.383-10.681-8.181s-5.091-11.864-7.631-12.651-1.548,12.613-4.831,12.651c1.7,6.508,4.692,15.891,8.391,18.728,2.865,2.2,8.856.6,14.205-1.615C394.478,1723.93,398.326,1720.546,396.907,1715.412Z" transform="translate(-258.25 -1694.545)"/>
    </g>
    <g id="Group_15" data-name="Group 15" transform="translate(1542.172 2251.333)">
      <path id="Path_128" data-name="Path 128" d="M694.846,1658.3a8.739,8.739,0,0,0-1.05-.329l-20.567,74.752-.516,22.767H694.7l12.958-73.206.35-1.995C708.01,1670.006,703.32,1661.325,694.846,1658.3Z" transform="translate(-641.088 -1627.283)" fill="#4f0064"/>
      <path id="Path_129" data-name="Path 129" d="M731.26,1628.24s-22.914-2.139-35.071-3.25a216.34,216.34,0,0,1,32.335,16.846c5.575,3.456,10.613,6.932,12.341,8.146Z" transform="translate(-642.719 -1624.991)" fill="#4f0064"/>
      <path id="Path_130" data-name="Path 130" d="M639.35,1676.143h12.976l2.344-38.7S635.019,1653.505,639.35,1676.143Z" transform="translate(-638.727 -1625.856)" fill="#4f0064"/>
    </g>
    <path id="Path_131" data-name="Path 131" d="M630.516,1633.768l-1.36,10.809-1.749,13.943-2.186,17.367H604.865l-4.785-42.12Z" transform="translate(906.13 625.732)" fill="#27ae60"/>
    <rect id="Rectangle_11" data-name="Rectangle 11" width="33.834" height="5.032" transform="translate(1504.513 2257.453)" fill="#fff"/>
    <rect id="Rectangle_12" data-name="Rectangle 12" width="28.701" height="4.146" transform="translate(1507.08 2253.306)" fill="#27ae60"/>
    <rect id="Rectangle_13" data-name="Rectangle 13" width="7.575" height="7.575" transform="translate(1513.615 2268.958) rotate(21.175)" fill="#9cffb8"/>
    <path id="Path_132" data-name="Path 132" d="M625.013,1665.267l-11.7,3.047,3.409-10.95Z" transform="translate(905.21 624.093)" fill="#9cffb8"/>
    <path id="Path_133" data-name="Path 133" d="M630.819,1645.384l-1.749,13.943a7.13,7.13,0,0,1,1.749-13.943Z" transform="translate(904.467 624.925)" fill="#9cffb8"/>
    <path id="Path_134" data-name="Path 134" d="M710.028,1464.706a11.916,11.916,0,0,0,2.074-6.673c0-7.108-6.356-12.871-14.2-12.871s-14.2,5.763-14.2,12.871a11.852,11.852,0,0,0,1.6,5.914,20.369,20.369,0,0,0-5.029,28.073c.968-10.717,6.562-20.056,19.521-20.056,8.824,0,14.069,8.29,15.365,18.246a20.4,20.4,0,0,0-5.132-25.5Z" transform="translate(900.804 638.838)" fill="#4f0064"/>
    <path id="Path_135" data-name="Path 135" d="M705.679,1545.559l-6.574-14.355a10.7,10.7,0,0,0,2.5-.291,2.694,2.694,0,0,0,.562-.125,13.885,13.885,0,0,0,7.8-5.908l.167,1.56a.382.382,0,0,0-.1.313C711.338,1533.95,708.3,1541.044,705.679,1545.559Z" transform="translate(899.249 633.298)" fill="#e2a161"/>
    <path id="Path_136" data-name="Path 136" d="M707.168,1491.722a8.043,8.043,0,0,0-7.934,6.789h-2.1a8.063,8.063,0,1,0,0,2.547h2.1a8.05,8.05,0,1,0,7.934-9.336Z" transform="translate(900.498 635.602)" fill="#4f0064"/>
  </g>
</svg>
