<svg xmlns="http://www.w3.org/2000/svg" width="255.317" height="85.344" viewBox="0 0 255.317 85.344">
  <g id="download_from_apple_icon" transform="translate(-128 -4541.302)">
    <path id="Boarder" d="M234.985,0H20.343c-.782,0-1.555,0-2.336,0-.653,0-1.3.017-1.961.027a28.2,28.2,0,0,0-4.276.377A14.221,14.221,0,0,0,7.716,1.746,13.736,13.736,0,0,0,4.262,4.261,13.353,13.353,0,0,0,1.748,7.72,14.084,14.084,0,0,0,.415,11.781a27.722,27.722,0,0,0-.382,4.271C.013,16.706.01,17.363,0,18.017V67.334c.01.662.013,1.3.032,1.967a27.72,27.72,0,0,0,.382,4.271,14.055,14.055,0,0,0,1.334,4.063,13.245,13.245,0,0,0,2.514,3.444,13.387,13.387,0,0,0,3.454,2.515,14.3,14.3,0,0,0,4.056,1.346,28.707,28.707,0,0,0,4.276.377c.659.015,1.307.023,1.961.023.78,0,1.553,0,2.336,0H234.985c.767,0,1.546,0,2.313,0,.65,0,1.317-.008,1.967-.023a28.332,28.332,0,0,0,4.267-.377,14.517,14.517,0,0,0,4.071-1.346,13.393,13.393,0,0,0,3.45-2.515,13.645,13.645,0,0,0,2.521-3.444,14.09,14.09,0,0,0,1.321-4.063,28.816,28.816,0,0,0,.4-4.271c.008-.663.008-1.3.008-1.967.017-.775.017-1.546.017-2.334V20.346c0-.781,0-1.556-.017-2.329,0-.654,0-1.311-.008-1.965a28.811,28.811,0,0,0-.4-4.271,14.119,14.119,0,0,0-1.321-4.061A13.8,13.8,0,0,0,247.6,1.746,14.44,14.44,0,0,0,243.532.408a27.831,27.831,0,0,0-4.267-.377c-.65-.01-1.317-.023-1.967-.027-.767,0-1.546,0-2.313,0Z" transform="translate(128 4541.302)" fill="#a6a6a6"/>
    <path id="Background" d="M17.028,82.485c-.65,0-1.284-.008-1.929-.023a27.072,27.072,0,0,1-3.988-.348,12.554,12.554,0,0,1-3.535-1.169A11.534,11.534,0,0,1,4.6,78.776,11.353,11.353,0,0,1,2.418,75.8a12.208,12.208,0,0,1-1.159-3.536,26.485,26.485,0,0,1-.355-4c-.014-.45-.031-1.948-.031-1.948V17.025S.892,15.55.9,15.116a26.393,26.393,0,0,1,.353-3.994,12.28,12.28,0,0,1,1.16-3.546A11.465,11.465,0,0,1,4.583,4.593,11.874,11.874,0,0,1,7.575,2.412,12.424,12.424,0,0,1,11.1,1.251a26.853,26.853,0,0,1,4-.35L17.029.875H236.3L238.246.9a26.425,26.425,0,0,1,3.965.347,12.67,12.67,0,0,1,3.565,1.169,11.935,11.935,0,0,1,5.153,5.163A12.3,12.3,0,0,1,252.07,11.1a27.723,27.723,0,0,1,.371,4.027c.006.6.006,1.253.006,1.9.017.8.017,1.562.017,2.329V64.008c0,.775,0,1.531-.017,2.294,0,.694,0,1.329-.008,1.984a27.167,27.167,0,0,1-.365,3.955,12.245,12.245,0,0,1-1.152,3.563,11.693,11.693,0,0,1-2.167,2.957,11.549,11.549,0,0,1-2.986,2.182,12.506,12.506,0,0,1-3.559,1.173,26.76,26.76,0,0,1-3.988.348c-.625.015-1.279.023-1.915.023l-2.313,0Z" transform="translate(128.99 4542.294)"/>
    <path id="Apple_logo" data-name="Apple logo" d="M-33.136,40.584c-3.953-5.774-7.031-16.274-2.9-23.418a11.341,11.341,0,0,1,9.544-5.82c3.027-.062,5.838,2.044,7.7,2.044,1.826,0,5.3-2.52,8.882-2.144a10.81,10.81,0,0,1,8.516,4.6,10.562,10.562,0,0,0-5.028,8.859A10.2,10.2,0,0,0-.2,34.095a23.389,23.389,0,0,1-3.24,6.6c-1.908,2.855-3.909,5.643-7.085,5.694-3.085.072-4.122-1.815-7.662-1.815-3.572,0-4.677,1.764-7.636,1.887l-.156,0C-28.927,46.461-31.193,43.363-33.136,40.584Zm13.973-29.871a9.893,9.893,0,0,1,2.441-7.172A10.582,10.582,0,0,1-9.878,0a10.4,10.4,0,0,1-2.378,7.448,8.744,8.744,0,0,1-6.815,3.266Z" transform="translate(187.275 4559.908)" fill="#fff"/>
    <path id="App_store" data-name="App store" d="M9.3,33.327V7.62h3.838v3.213h.073a6.855,6.855,0,0,1,6.151-3.416c4.9,0,8.134,3.875,8.134,9.861,0,6-3.213,9.86-8.061,9.86a6.546,6.546,0,0,1-6.078-3.38h-.092v9.568Zm3.948-16.048c0,3.892,2.038,6.5,5.067,6.5,3.084,0,5.106-2.552,5.106-6.5h0c0-3.911-2.021-6.482-5.1-6.482C15.286,10.8,13.248,13.423,13.248,17.279ZM-11.961,33.327V7.62h3.838v3.213h.073A6.854,6.854,0,0,1-1.9,7.418c4.9,0,8.135,3.875,8.135,9.861,0,6-3.213,9.86-8.062,9.86A6.55,6.55,0,0,1-7.9,23.759H-8v9.568Zm3.948-16.048c0,3.892,2.038,6.5,5.067,6.5,3.084,0,5.1-2.552,5.1-6.5,0-3.911-2.021-6.482-5.1-6.482C-5.975,10.8-8.013,13.423-8.013,17.279Zm45.5,2.275h4.059c.294,2.628,2.847,4.352,6.334,4.352,3.343,0,5.746-1.724,5.746-4.094,0-2.057-1.45-3.288-4.883-4.132l-3.434-.827c-4.865-1.175-7.124-3.451-7.124-7.142C38.187,3.14,42.17,0,47.828,0c5.6,0,9.437,3.14,9.566,7.711h-4c-.239-2.644-2.425-4.24-5.62-4.24s-5.379,1.615-5.379,3.965c0,1.873,1.4,2.975,4.811,3.819l2.92.716c5.436,1.286,7.695,3.47,7.695,7.345,0,4.957-3.949,8.061-10.229,8.061C41.712,27.378,37.745,24.347,37.489,19.554ZM104.5,17.371c0-6.059,3.506-9.988,8.941-9.988,5.344,0,8.7,3.671,8.7,9.528v1.358H108.506v.239a5.032,5.032,0,0,0,5.2,5.472,4.371,4.371,0,0,0,4.46-2.717h3.766c-.534,3.506-3.948,5.913-8.318,5.913C107.991,27.176,104.5,23.412,104.5,17.371Zm5.459-5.349a4.888,4.888,0,0,0-1.438,3.476h9.657a4.646,4.646,0,0,0-4.738-4.9h-.027A4.893,4.893,0,0,0,109.963,12.022ZM72.175,17.279c0-6.078,3.579-9.9,9.162-9.9,5.6,0,9.163,3.819,9.163,9.9,0,6.095-3.544,9.9-9.163,9.9S72.175,23.374,72.175,17.279Zm4.04,0c0,4.186,1.909,6.628,5.122,6.628s5.123-2.443,5.123-6.628c0-4.169-1.911-6.629-5.123-6.629S76.215,13.129,76.215,17.279Zm-8.389,9.768c-3.91,0-5.436-1.469-5.436-5.215V10.76H59.581V7.619H62.39V3.048h3.984V7.619h3.673v3.14H66.374v10.65c0,1.654.735,2.425,2.35,2.425a12.628,12.628,0,0,0,1.3-.092v3.121a10.9,10.9,0,0,1-1.993.185Zm25.943-.11V7.62h3.782v3.288h.092a4.608,4.608,0,0,1,4.646-3.49,6.11,6.11,0,0,1,1.359.148v3.709a5.556,5.556,0,0,0-1.782-.239,3.995,3.995,0,0,0-4.131,4.444V26.937Zm-112.544,0L-21.2,19.776H-31.3l-2.425,7.161H-38l9.565-26.5h4.445l9.565,26.5ZM-30.251,16.471h8L-26.192,4.848H-26.3Z" transform="translate(239.454 4579.432)" fill="#fff"/>
    <path id="Dwnload_on" data-name="Dwnload on" d="M105.248,13.543a4.364,4.364,0,0,1-4.437-4.959,4.431,4.431,0,0,1,4.43-5.019c2.673,0,4.286,1.826,4.286,4.844V9.07h-6.784v.106a2.539,2.539,0,0,0,2.559,2.752,2.3,2.3,0,0,0,2.286-1.165h1.824a3.9,3.9,0,0,1-4.163,2.779ZM103.46,5.9a2.461,2.461,0,0,0-.719,1.769h4.853a2.318,2.318,0,0,0-2.365-2.488h-.03A2.457,2.457,0,0,0,103.46,5.9ZM57.066,12.857A4.552,4.552,0,0,1,54.938,8.55,4.552,4.552,0,1,1,64,8.55a4.552,4.552,0,0,1-6.934,4.307ZM56.9,8.55c0,2.1.927,3.307,2.575,3.307S62.05,10.641,62.05,8.55s-.936-3.3-2.578-3.3S56.9,6.467,56.9,8.55ZM18.636,12.857A4.553,4.553,0,0,1,16.507,8.55a4.552,4.552,0,1,1,9.063,0,4.552,4.552,0,0,1-6.934,4.307ZM18.465,8.55c0,2.1.928,3.307,2.576,3.307s2.578-1.217,2.578-3.307-.936-3.3-2.578-3.3S18.465,6.467,18.465,8.55Zm-41.514,4.307A4.552,4.552,0,0,1-25.177,8.55a4.551,4.551,0,0,1,2.131-4.3,4.553,4.553,0,0,1,4.8,0,4.55,4.55,0,0,1,2.13,4.3,4.551,4.551,0,0,1-2.128,4.307,4.548,4.548,0,0,1-2.4.686A4.548,4.548,0,0,1-23.049,12.857Zm-.17-4.307c0,2.1.928,3.307,2.576,3.307s2.578-1.217,2.578-3.307-.936-3.3-2.578-3.3S-23.219,6.467-23.219,8.55Zm51.748,4.239a2.9,2.9,0,0,1-.963-2.148c0-1.729,1.287-2.726,3.573-2.868l2.6-.149v-.83c0-1.014-.671-1.588-1.967-1.588-1.058,0-1.792.389-2,1.068H27.937c.194-1.651,1.746-2.709,3.925-2.709,2.409,0,3.767,1.2,3.767,3.228v6.565H33.8v-1.35h-.15a3.231,3.231,0,0,1-2.885,1.508,2.9,2.9,0,0,1-2.239-.727ZM31.4,9.167c-1.323.089-1.923.539-1.923,1.386,0,.864.75,1.368,1.781,1.368a2.266,2.266,0,0,0,2.489-2.1v-.8Zm10.714,4.35c-2.443,0-3.988-1.923-3.988-4.966s1.561-4.959,3.988-4.959a3.166,3.166,0,0,1,2.947,1.686H45.2V0h1.9V13.358H45.276V11.84h-.15a3.335,3.335,0,0,1-2.893,1.678ZM40.08,8.55c0,2.038.961,3.264,2.568,3.264s2.586-1.245,2.586-3.256-1-3.263-2.586-3.263S40.08,6.529,40.08,8.55Zm43.439,2.267V5.391H81.994v-1.6h1.526V1.358h1.9V3.794H87.5v1.6H85.417v4.94c0,1.007.415,1.447,1.358,1.447a6.478,6.478,0,0,0,.724-.043v1.579a6.2,6.2,0,0,1-1.031.1C84.359,13.411,83.519,12.669,83.519,10.817Zm12.939,2.541V7.623c0-1.535-.715-2.312-2.055-2.312a2.245,2.245,0,0,0-2.419,2.436v5.611h-1.9V0h1.879V5.295h.15a2.957,2.957,0,0,1,2.93-1.722,3.166,3.166,0,0,1,3.308,3.582v6.2Zm-23.651,0V7.615c0-1.544-.671-2.312-2.074-2.312A2.2,2.2,0,0,0,68.44,7.737v5.621h-1.9V3.75h1.825V5.277h.142a2.876,2.876,0,0,1,2.867-1.712A3.125,3.125,0,0,1,74.7,7.139v6.219Zm-60.832,0V0h1.9V13.358Zm-4.918,0V7.615c0-1.544-.671-2.312-2.073-2.312A2.2,2.2,0,0,0,2.691,7.737v5.621H.795V3.75H2.62V5.277h.141A2.878,2.878,0,0,1,5.629,3.565,3.125,3.125,0,0,1,8.954,7.139v6.219Zm-13.1,0L-8.024,6.282h-.149l-1.977,7.076H-12.1L-14.747,3.75h1.922l1.722,7.331h.141L-8.986,3.75h1.819l1.976,7.331h.149L-3.329,3.75h1.9l-2.638,9.608Zm-31.963,0V.627h4.6a5.631,5.631,0,0,1,4.493,1.745,5.631,5.631,0,0,1,1.5,4.581c0,4.067-2.2,6.4-5.99,6.4Zm1.977-1.8h2.4a4,4,0,0,0,3.189-1.291,4,4,0,0,0,1.01-3.288A4.014,4.014,0,0,0-30.45,3.713a4.013,4.013,0,0,0-3.172-1.286h-2.4Z" transform="translate(242.108 4559.303)" fill="#fff"/>
  </g>
</svg>
