<svg xmlns="http://www.w3.org/2000/svg" width="375.628" height="111.956" viewBox="0 0 375.628 111.956">
  <g id="Covlie_logo_bottom_layout" data-name="Covlie logo bottom layout" transform="translate(-128 -5388)">
    <path id="Path_10" data-name="Path 10" d="M354.121,471.691a2.343,2.343,0,0,0-3.315,0l-15.482,15.486a2.343,2.343,0,0,1-3.314,0l-15.488-15.488a2.342,2.342,0,0,0-3.314,0l-42.566,42.566a2.345,2.345,0,0,0,0,3.314l42.567,42.567a2.343,2.343,0,0,0,3.314,0l15.488-15.483a2.343,2.343,0,0,1,3.314,0l15.482,15.482a2.344,2.344,0,0,0,3.314,0l42.566-42.566a2.344,2.344,0,0,0,0-3.314Zm3.665,45.88-22.462,22.467a2.342,2.342,0,0,1-3.314,0l-22.467-22.467a2.344,2.344,0,0,1,0-3.315L332.01,491.8a2.344,2.344,0,0,1,3.314,0l22.462,22.462A2.344,2.344,0,0,1,357.786,517.571Z" transform="translate(-130.892 4928.064)" fill="#fff"/>
    <path id="Path_11" data-name="Path 11" d="M398.579,500.494,356.23,458.145a13.81,13.81,0,0,0-8.873-4.12,13.343,13.343,0,0,0-10.312,3.906l-8.484,8.487a1.172,1.172,0,0,1-1.657,0l-8.273-8.273a13.807,13.807,0,0,0-8.871-4.12,13.34,13.34,0,0,0-10.312,3.9l-42.565,42.565a13.423,13.423,0,0,0,0,18.967l42.566,42.566a13.341,13.341,0,0,0,10.312,3.9,13.807,13.807,0,0,0,8.87-4.118l8.274-8.271a1.172,1.172,0,0,1,1.657,0l8.27,8.269a13.808,13.808,0,0,0,8.871,4.12,13.343,13.343,0,0,0,10.312-3.9l42.566-42.566a13.423,13.423,0,0,0,0-18.967Zm-2.3,16.666L353.93,559.507a10.563,10.563,0,0,1-7.124,3.19,10.1,10.1,0,0,1-7.458-2.971l-9.959-9.958a2.344,2.344,0,0,0-3.314,0l-9.745,9.742a10.56,10.56,0,0,1-7.124,3.189,10.1,10.1,0,0,1-7.458-2.971L259.183,517.16a10.157,10.157,0,0,1,0-14.364l42.347-42.347a10.56,10.56,0,0,1,7.124-3.19,10.1,10.1,0,0,1,7.458,2.971l9.962,9.963a2.344,2.344,0,0,0,3.315,0l9.739-9.741a10.563,10.563,0,0,1,7.125-3.191,10.093,10.093,0,0,1,7.458,2.972L396.278,502.8A10.158,10.158,0,0,1,396.278,517.16Z" transform="translate(-124.958 4934)" fill="#fff"/>
    <path id="Path_355" data-name="Path 355" d="M559.667,540.149a7.181,7.181,0,0,0-4.2,1.4A20.606,20.606,0,0,1,543.31,545.5h-.265a20.7,20.7,0,1,1,0-41.4h.266a20.623,20.623,0,0,1,12.387,4.114,7.129,7.129,0,0,0,4.269,1.467h1.761a2.728,2.728,0,0,0,1.972-4.615,28.247,28.247,0,0,0-20.34-8.611h-.365a28.344,28.344,0,0,0,0,56.689h.365a28.222,28.222,0,0,0,20.1-8.367,2.723,2.723,0,0,0-1.954-4.627Z" transform="translate(-216.313 4919.18)" fill="#fff"/>
    <path id="Path_356" data-name="Path 356" d="M774.878,536.554a.02.02,0,0,1-.02-.026,13.047,13.047,0,0,1,12.249-8.583h.168a13.01,13.01,0,0,1,10.538,5.363,13.145,13.145,0,0,1,1.718,3.22c0,.014,0,.026-.022.026ZM804.8,544.07a3.069,3.069,0,0,0,3.07-3.068v-.031a20.533,20.533,0,0,0-.476-4.418,20.416,20.416,0,0,0-5.539-10.1,20.471,20.471,0,0,0-14.526-6.017A20.541,20.541,0,0,0,772.537,555.5a20.467,20.467,0,0,0,14.526,6.014h.263a20.517,20.517,0,0,0,17.22-9.342,2.276,2.276,0,0,0-1.893-3.531h-1.739a6.823,6.823,0,0,0-4.694,1.806A12.967,12.967,0,0,1,787.276,554h-.168a13.016,13.016,0,0,1-12.646-9.906.018.018,0,0,1,.016-.027H804.8Z" transform="translate(-304.24 4910.809)" fill="#fff"/>
    <path id="Path_357" data-name="Path 357" d="M629.024,540.974A13.031,13.031,0,0,1,615.992,554h-.167a13.031,13.031,0,0,1,0-26.062h.167a13.03,13.03,0,0,1,13.032,13.031Zm-12.982-20.541h-.262a20.54,20.54,0,1,0,0,41.081h.262a20.54,20.54,0,1,0,0-41.081Z" transform="translate(-244.445 4910.809)" fill="#fff"/>
    <path id="Path_358" data-name="Path 358" d="M686.544,525.672,676.859,550.9l-9.683-25.231a5.927,5.927,0,0,0-5.532-3.8h-.668a2.275,2.275,0,0,0-2.125,3.086l13.308,34.666a2.274,2.274,0,0,0,2.122,1.456h5.156a2.274,2.274,0,0,0,2.123-1.456l13.3-34.666a2.27,2.27,0,0,0-2.119-3.086h-.672A5.924,5.924,0,0,0,686.544,525.672Z" transform="translate(-266.599 4910.307)" fill="#fff"/>
    <path id="Path_359" data-name="Path 359" d="M751.735,504.361a3.757,3.757,0,1,1,3.756-3.756A3.759,3.759,0,0,1,751.735,504.361Z" transform="translate(-297.766 4919.042)" fill="#fff"/>
    <path id="Path_360" data-name="Path 360" d="M733.015,500.775a2.274,2.274,0,0,0-3.088-2.125l-.626.24a5.924,5.924,0,0,0-3.8,5.527l0,46.232a2.273,2.273,0,0,0,2.273,2.271h2.965a2.273,2.273,0,0,0,2.274-2.271Z" transform="translate(-289.918 4918.466)" fill="#fff"/>
    <path id="Path_361" data-name="Path 361" d="M755.492,524.146a2.271,2.271,0,0,0-3.083-2.125l-.628.242a5.922,5.922,0,0,0-3.8,5.531l0,31.014a2.273,2.273,0,0,0,2.274,2.274h2.97a2.271,2.271,0,0,0,2.269-2.274Z" transform="translate(-297.766 4910.308)" fill="#fff"/>
  </g>
</svg>
