<svg id="need_help" xmlns="http://www.w3.org/2000/svg" width="553.974" height="500" viewBox="0 0 400.974 623">
  <path id="Rectangle_16" data-name="Rectangle 16" d="M12.441,0H13.53A12.441,12.441,0,0,1,25.972,12.441v61.1A12.986,12.986,0,0,1,12.986,86.531h0A12.986,12.986,0,0,1,0,73.545v-61.1A12.441,12.441,0,0,1,12.441,0Z" transform="translate(98.799 291.22) rotate(-180)" fill="#27ae60"/>
  <path id="Rectangle_17" data-name="Rectangle 17" d="M8.1,0h.709a8.1,8.1,0,0,1,8.1,8.1v69.98a8.453,8.453,0,0,1-8.453,8.453h0A8.453,8.453,0,0,1,0,78.078V8.1A8.1,8.1,0,0,1,8.1,0Z" transform="translate(94.266 291.22) rotate(180)" fill="#1d6d3d"/>
  <path id="Rectangle_18" data-name="Rectangle 18" d="M12.441,0H13.53A12.441,12.441,0,0,1,25.972,12.441V87.42a12.986,12.986,0,0,1-12.986,12.986h0A12.986,12.986,0,0,1,0,87.42V12.441A12.441,12.441,0,0,1,12.441,0Z" transform="translate(88.025 291.22) rotate(-180)" fill="#27ae60"/>
  <path id="Rectangle_19" data-name="Rectangle 19" d="M8.1,0h.709a8.1,8.1,0,0,1,8.1,8.1V91.953a8.453,8.453,0,0,1-8.453,8.453h0A8.453,8.453,0,0,1,0,91.953V8.1A8.1,8.1,0,0,1,8.1,0Z" transform="translate(83.492 291.22) rotate(180)" fill="#1d6d3d"/>
  <path id="Rectangle_20" data-name="Rectangle 20" d="M12.441,0H13.53A12.441,12.441,0,0,1,25.972,12.441V62.957A12.986,12.986,0,0,1,12.986,75.943h0A12.986,12.986,0,0,1,0,62.957V12.441A12.441,12.441,0,0,1,12.441,0Z" transform="translate(77.008 291.22) rotate(180)" fill="#27ae60"/>
  <path id="Rectangle_21" data-name="Rectangle 21" d="M8.1,0h.709a8.1,8.1,0,0,1,8.1,8.1V67.49a8.453,8.453,0,0,1-8.453,8.453h0A8.453,8.453,0,0,1,0,67.49V8.1A8.1,8.1,0,0,1,8.1,0Z" transform="translate(72.476 291.22) rotate(-180)" fill="#1d6d3d"/>
  <path id="Rectangle_22" data-name="Rectangle 22" d="M26.753,0h11.3A26.753,26.753,0,0,1,64.807,26.753V64.807a0,0,0,0,1,0,0H0a0,0,0,0,1,0,0V26.753A26.753,26.753,0,0,1,26.753,0Z" transform="translate(107.321 316.595) rotate(180)" fill="#ffe000"/>
  <rect id="Rectangle_23" data-name="Rectangle 23" width="64.807" height="8.032" transform="translate(107.321 268.583) rotate(180)" fill="#f30752"/>
  <g id="Group_22" data-name="Group 22" transform="translate(315.979)">
    <path id="Path_68" data-name="Path 68" d="M1799.414,2532.343v12.347c-4.6-2.829-8.788-5.557-12.121-7.983A22.51,22.51,0,0,0,1799.414,2532.343Z" transform="translate(-1692.441 -2426.431)" fill="#ce9159"/>
    <path id="Path_69" data-name="Path 69" d="M1764.073,2680.544l-14.107,16.436-.126.146c-5.524-1.27-10.8-2.577-15.5-3.793,10.812-4.062,21.277-8.758,29.513-12.68C1763.926,2680.615,1764,2680.577,1764.073,2680.544Z" transform="translate(-1684.011 -2450.023)" fill="#ce9159"/>
    <path id="Path_70" data-name="Path 70" d="M1836.166,2627.615c-5.808,14.622-12.247,32.122-18.838,45.673-6.234,12.825-12.6,22.116-18.712,22.116-12.4,0-30.06-3.265-45.713-6.854-.037-.011-.074-.016-.111-.027l14-16.3.236-.279h.005c4.368-2.088,8.1-3.949,10.907-5.385,3.568-1.823,5.644-2.948,5.644-2.948l.09-.247.016-.044,8.546-23.465.063-.172,4.405-12.088Z" transform="translate(-1686.949 -2441.594)" fill="#e2a161"/>
    <path id="Path_71" data-name="Path 71" d="M1824.58,2750.5c0,68.083-33.492,242.279-33.492,242.279h-47.117s-.011-.038-.026-.113l-.006-.016c-1.345-5.321-44.246-159.931-44.246-235.758,0-12.115,5.75-38.438,10.181-57.116,6.181-1.673,12.62-3.842,18.949-6.225,4.7,1.216,9.976,2.523,15.5,3.793l.126-.146c15.652,3.589,33.308,6.854,45.712,6.854,6.113,0,12.479-9.291,18.712-22.116C1814.331,2699.111,1824.58,2735.447,1824.58,2750.5Z" transform="translate(-1678.496 -2450.245)" fill="#4f0064"/>
    <path id="Path_72" data-name="Path 72" d="M1803.052,3115.489h-19.064s-4.247-6.993-8.867-9.258c-5.834-2.867-9.924-2.459-10.87-2.308l6.455-7.192v-45.1h27.153v42.273a25.657,25.657,0,0,0,.746,6.138S1801.906,3111.1,1803.052,3115.489Z" transform="translate(-1688.773 -2509.096)" fill="#e2a161"/>
    <path id="Path_73" data-name="Path 73" d="M1766.351,3051.612v45.1l-6.455,7.192-7.416,8.263-4.757,5.3a19.391,19.391,0,0,0-10.828-12.7l5.761-5.068c4.509-3.959,10.943-12.454,10.833-18.538l-3.621-29.659c.015.076.026.114.026.114Z" transform="translate(-1684.418 -2509.075)" fill="#ce9159"/>
    <path id="Path_74" data-name="Path 74" d="M1791.359,2531.26c-4.6-2.83-8.788-5.557-12.121-7.984a22.5,22.5,0,0,0,12.121-4.363c8.841-6.32,14.865-18.85,14.865-33.272,0-20.8-12.52-37.663-27.963-37.663s-27.969,16.86-27.969,37.663c0,14.326,5.94,26.78,14.681,33.144v15.057c-8.646,5.568-19.589,10.824-28.283,14.655l2.166,1.77H1823.3l2.05.226C1815.815,2545.4,1802.412,2538.049,1791.359,2531.26Z" transform="translate(-1684.386 -2413.001)" fill="#e2a161"/>
    <path id="Path_75" data-name="Path 75" d="M1825.976,2573.08c-2.381-2.351-11.485-6.014-11.485-6.014l-84.1.388c-1.372.608-4.735,2.061-5.13,2.248a29.526,29.526,0,0,0-14.412,15.3l-12.642,30.4-.8,1.926-.273.651h16.278a29.215,29.215,0,0,0,2.381,12.383l8.142,13.186v5.132l26.485.3a8.422,8.422,0,0,0,6.108-2.549l13.424-13.746a8.125,8.125,0,0,1,4.857-2.4,7.413,7.413,0,0,1,.972-.064h7.637l4.452-12.239H1829.1C1830.155,2602.222,1830.88,2577.928,1825.976,2573.08Z" transform="translate(-1678.089 -2431.958)" fill="#ffe000"/>
    <path id="Path_76" data-name="Path 76" d="M1771.207,2640.978v23.574l-.105.291s-1.929,1.049-5.262,2.749c-2.844,1.463-6.717,3.405-11.29,5.583h-.005c-.073.033-.147.071-.22.108-8.236,3.922-18.7,8.618-29.513,12.68-6.329,2.383-12.768,4.552-18.949,6.225-7.753,2.1-15.1,3.426-21.271,3.426-12.121,0-11.211-18.291-8.126-25.887l3.948-9.494c-2.613-1.668-5.015-5.547-5.015-5.547v-2.249a3.387,3.387,0,0,1,.962-2.372,3.214,3.214,0,0,1,2.318-.985v-1.958a2.621,2.621,0,0,1,2.591-2.652h1.3v-1.539a3.042,3.042,0,0,1,3.007-3.077h1.093l-.005-.624a4.9,4.9,0,0,1,4.546-4.971,4.2,4.2,0,0,1,.736.022.843.843,0,0,1,.163.016l4.909.662a10.446,10.446,0,0,1,7.779,5.417l6.522,13.121a10.45,10.45,0,0,0,9.015,5.848v.032l26.485.3a8.424,8.424,0,0,0,6.108-2.549l13.424-13.746A8.122,8.122,0,0,1,1771.207,2640.978Z" transform="translate(-1674.483 -2442.654)" fill="#e2a161"/>
    <path id="Path_77" data-name="Path 77" d="M1795.884,2429.268a16.044,16.044,0,0,0,1.633-7.074,15.455,15.455,0,1,0-30.9,0,16.1,16.1,0,0,0,.883,5.272c-11.795,5.264-20.087,17.763-20.087,32.347,0,4.466.519,17.291,1.938,21.219,1.061-11.953,31.434-18.255,34.887-30.128,2.417,8.658,22.556,9.895,24.034,20.888.231,1.722-.812,4.031,1.049,3.176a37.075,37.075,0,0,0,3.2-15.155C1812.518,2446.694,1805.811,2435.263,1795.884,2429.268Z" transform="translate(-1686.092 -2406.379)" fill="#4f0064"/>
    <path id="Path_78" data-name="Path 78" d="M1798.128,2642.175l-8.609,23.638v-23.574a7.333,7.333,0,0,1,.972-.064Z" transform="translate(-1692.795 -2443.915)" fill="#ce9159"/>
    <path id="Path_79" data-name="Path 79" d="M1819.005,2474.871a13.5,13.5,0,0,0-4.35-6.479,38.707,38.707,0,0,0,.889-8.229c0-21.025-16.713-38.131-37.255-38.131s-37.255,17.105-37.255,38.131a38.723,38.723,0,0,0,.889,8.23,13.489,13.489,0,0,0-4.35,6.478c-2.972,9.741,4.057,18.684,13.127,18.684.056,0,.109,0,.164,0v-28.275a14.315,14.315,0,0,0-2.956.273,13.531,13.531,0,0,0-4.578,1.83,37.157,37.157,0,0,1-.712-7.216c0-20.132,16-36.51,35.673-36.51s35.672,16.378,35.672,36.51a37.157,37.157,0,0,1-.711,7.216,13.53,13.53,0,0,0-4.578-1.83,14.322,14.322,0,0,0-2.956-.273v28.275c.055,0,.109,0,.163,0,.33,0,.657-.015.981-.039-1.37,6.333-5.464,15.547-17.659,17.236a4.726,4.726,0,0,0-4.377-2.414c-2.569,0-4.651,1.628-4.651,3.635s2.083,3.635,4.651,3.635c2.4,0,4.377-1.423,4.625-3.247,11.9-1.667,17.52-10.347,19.153-19.085A14.222,14.222,0,0,0,1819.005,2474.871Z" transform="translate(-1684.416 -2408.871)"/>
    <path id="Path_80" data-name="Path 80" d="M1723.638,2653.188v5.1a10.45,10.45,0,0,1-9.015-5.848l-6.522-13.121a10.446,10.446,0,0,0-7.779-5.417l-4.909-.662a.843.843,0,0,0-.163-.016l1.824-5.605h16.042A29.213,29.213,0,0,0,1715.5,2640Z" transform="translate(-1677.789 -2441.598)" fill="#ce9159"/>
    <path id="Path_81" data-name="Path 81" d="M1795.225,3136.843a78.787,78.787,0,0,0-1.2-10.9c-.042-.171-.089-.366-.142-.57h-19.064s-4.247-6.994-8.867-9.258c-5.834-2.867-9.924-2.458-10.87-2.308l-7.416,8.263-4.757,5.3a19.391,19.391,0,0,0-10.827-12.7h-.006l-23.106,20.3a6.481,6.481,0,0,0-1.487,1.883,3.17,3.17,0,0,0-.82,2.068v1.588h88.84S1795.42,3138.874,1795.225,3136.843Z" transform="translate(-1679.606 -2518.976)" fill="#f4274e"/>
  </g>
  <path id="Rectangle_24" data-name="Rectangle 24" d="M16.385,0h521.2a16.385,16.385,0,0,1,16.385,16.385v7.287a0,0,0,0,1,0,0H0a0,0,0,0,1,0,0V16.385A16.385,16.385,0,0,1,16.385,0Z" transform="translate(0 316.394)" fill="#97a7b7"/>
  <path id="Path_446" data-name="Path 446" d="M0,0H171.982V283.115H0Z" transform="translate(10 339.885)" fill="#97a7b7"/>
  <path id="Path_82" data-name="Path 82" d="M1651.64,2755.737h-51.3l-5.361-75.23a6.434,6.434,0,0,0-6.257-6.146H1451.966a6.5,6.5,0,0,0-6.257,7.147l5.994,84.126H1655.5v-6.042A3.855,3.855,0,0,0,1651.64,2755.737Z" transform="translate(-1322.082 -2449.039)" fill="#485f7a"/>
  <rect id="Rectangle_26" data-name="Rectangle 26" width="118.427" height="283.115" transform="translate(181.941 339.885)" fill="#485f7a"/>
  <rect id="Rectangle_27" data-name="Rectangle 27" width="172.504" height="8.505" transform="translate(10.047 339.885)" fill="#485f7a"/>
  <g id="Group_25" data-name="Group 25" transform="translate(370.888 258.445)">
    <path id="Path_92" data-name="Path 92" d="M1742.223,2722.621l1.637,13.01,2.1,16.781,2.631,20.9h24.5l5.759-50.7Z" transform="translate(-1740.175 -2715.166)" fill="#f4274e"/>
    <rect id="Rectangle_28" data-name="Rectangle 28" width="40.723" height="6.056" transform="translate(40.723 11.047) rotate(180)" fill="#ffe000"/>
    <rect id="Rectangle_29" data-name="Rectangle 29" width="34.544" height="4.991" transform="translate(37.634 4.991) rotate(180)" fill="#f4274e"/>
    <rect id="Rectangle_30" data-name="Rectangle 30" width="9.117" height="9.117" transform="translate(33.061 27.34) rotate(158.825)" fill="#ffe000"/>
    <path id="Path_93" data-name="Path 93" d="M1751.416,2763.563l14.08,3.667-4.1-13.179Z" transform="translate(-1741.638 -2720.169)" fill="#ffe000"/>
    <path id="Path_94" data-name="Path 94" d="M1744.17,2738.094l2.1,16.782a8.582,8.582,0,0,0-2.1-16.782Z" transform="translate(-1740.485 -2717.629)" fill="#ffe000" fill-rule="evenodd"/>
  </g>
  <rect id="Rectangle_31" data-name="Rectangle 31" width="22.906" height="281.446" transform="translate(414.305 340.078)" fill="#97a7b7"/>
  <path id="Path_95" data-name="Path 95" d="M1917.789,2782.676H1817.494a13.3,13.3,0,0,0-13.305,13.3v10.186h-12.765v8.5h22.689v273.134h104.064V2806.359h12.917v-10.378A13.3,13.3,0,0,0,1917.789,2782.676Z" transform="translate(-1377.119 -2466.282)" fill="#485f7a"/>
  <g id="Group_26" data-name="Group 26" transform="translate(178.233 260.94)">
    <path id="Path_96" data-name="Path 96" d="M1531.476,2719.685a.5.5,0,0,0-.709,0l-3.312,3.313a.5.5,0,0,1-.709,0l-3.313-3.313a.5.5,0,0,0-.71,0l-9.1,9.1a.5.5,0,0,0,0,.709l9.105,9.1a.5.5,0,0,0,.709,0l3.313-3.311a.5.5,0,0,1,.709,0l3.312,3.311a.5.5,0,0,0,.709,0l9.105-9.1a.5.5,0,0,0,0-.709Zm.784,9.814-4.8,4.805a.5.5,0,0,1-.709,0l-4.806-4.805a.5.5,0,0,1,0-.709l4.806-4.8a.5.5,0,0,1,.709,0l4.8,4.8A.5.5,0,0,1,1532.259,2729.5Z" transform="translate(-1511.106 -2717.171)" fill="#fff" fill-rule="evenodd"/>
    <path id="Path_97" data-name="Path 97" d="M1541.807,2726.667l-9.059-9.058a2.954,2.954,0,0,0-1.9-.881,2.855,2.855,0,0,0-2.206.835l-1.814,1.815a.25.25,0,0,1-.355,0l-1.769-1.77a2.958,2.958,0,0,0-1.9-.88,2.851,2.851,0,0,0-2.206.835l-9.1,9.1a2.872,2.872,0,0,0,0,4.058l9.105,9.1a2.851,2.851,0,0,0,2.206.835,2.95,2.95,0,0,0,1.9-.88l1.77-1.769a.251.251,0,0,1,.355,0l1.769,1.768a2.949,2.949,0,0,0,1.9.881,2.856,2.856,0,0,0,2.206-.835l9.105-9.1a2.872,2.872,0,0,0,0-4.058Zm-.493,3.565-9.058,9.058a2.26,2.26,0,0,1-1.524.683,2.165,2.165,0,0,1-1.6-.636l-2.13-2.131a.5.5,0,0,0-.709,0l-2.084,2.083a2.26,2.26,0,0,1-1.524.683,2.164,2.164,0,0,1-1.6-.636l-9.105-9.1a2.173,2.173,0,0,1,0-3.073l9.058-9.058a2.262,2.262,0,0,1,1.524-.683,2.163,2.163,0,0,1,1.595.636l2.131,2.131a.5.5,0,0,0,.709,0l2.083-2.083a2.262,2.262,0,0,1,1.524-.683,2.163,2.163,0,0,1,1.595.636l9.105,9.1A2.173,2.173,0,0,1,1541.314,2730.232Z" transform="translate(-1510.658 -2716.723)" fill="#fff" fill-rule="evenodd"/>
  </g>
  <path id="Union_10" data-name="Union 10" d="M-8252.4,74.416V42.357a60.1,60.1,0,0,1,9.932-.675c4.533,0,7.763.867,9.932,2.6a9.356,9.356,0,0,1,3.473,7.521,10.125,10.125,0,0,1-2.99,7.713c-2.507,2.315-6.218,3.423-10.558,3.423a12.569,12.569,0,0,1-2.507-.192V74.416Zm7.281-26.9v9.592a10.9,10.9,0,0,0,2.458.194c3.905,0,6.316-1.977,6.316-5.255,0-2.989-2.074-4.773-5.787-4.773A13.061,13.061,0,0,0-8245.123,47.516Zm-31.868,26.9V41.924h7.329V68.246h12.921v6.169Zm-25.744,0V41.924h20.008V47.95h-12.68V54.7h11.957v5.977h-11.957V68.39h13.355v6.026Zm-13.788,0V60.822h-12.1V74.416h-7.326V41.924h7.326V54.409h12.1V41.924h7.328V74.416Zm65.276-41.826V.724A64.652,64.652,0,0,1-8241.362,0c6.218,0,10.269,1.157,13.354,3.472,3.374,2.507,5.494,6.507,5.494,12.244,0,6.218-2.266,10.51-5.351,13.162-3.421,2.844-8.677,4.194-15.042,4.194A63.014,63.014,0,0,1-8251.247,32.59Zm7.329-26.66V27.19a13.732,13.732,0,0,0,2.556.145c6.7.049,11.087-3.615,11.087-11.377,0-6.75-3.952-10.316-10.316-10.316A15.621,15.621,0,0,0-8243.918,5.93Zm-33.023,26.805V.241h20.008V6.267h-12.68v6.75h11.955v5.977h-11.955v7.715h13.354v6.026Zm-25.745,0V.241h20.006V6.267h-12.677v6.75h11.955v5.977h-11.955v7.715h13.352v6.026Zm-14.126,0-6.942-12.535A110.777,110.777,0,0,1-8329.4,8.725h-.191c.241,4.339.338,8.919.338,14.224v9.786H-8336V.241h8.583l6.749,11.907a102.525,102.525,0,0,1,5.3,11.138h.1a133.623,133.623,0,0,1-.578-13.6V.241h6.747V32.735Z" transform="translate(8375 431.751)" fill="#fff" stroke="rgba(0,0,0,0)" stroke-miterlimit="10" stroke-width="1"/>
</svg>
