<svg xmlns="http://www.w3.org/2000/svg" xmlns:xlink="http://www.w3.org/1999/xlink" width="450.619" height="379" viewBox="0 0 674.619 379">
  <defs>
    <filter id="Path_6" x="160.362" y="94.858" width="408.737" height="113.197" filterUnits="userSpaceOnUse">
      <feOffset dx="10" dy="9.463" input="SourceAlpha"/>
      <feGaussianBlur stdDeviation="5" result="blur"/>
      <feFlood flood-opacity="0.149"/>
      <feComposite operator="in" in2="blur"/>
      <feComposite in="SourceGraphic"/>
    </filter>
    <filter id="Path_27" x="519.404" y="218.322" width="100.681" height="105.058" filterUnits="userSpaceOnUse">
      <feOffset input="SourceAlpha"/>
      <feGaussianBlur stdDeviation="3.997" result="blur-2"/>
      <feFlood flood-opacity="0.302"/>
      <feComposite operator="in" in2="blur-2"/>
      <feComposite in="SourceGraphic"/>
    </filter>
  </defs>
  <g id="Group_465" data-name="Group 465" transform="translate(-1117.58 -362)">
    <g id="Desktop" transform="translate(1117.58 362)">
      <path id="Path_1" data-name="Path 1" d="M5396.8,2900.455v16.775c0,6.4-7.4,11.579-16.568,11.579H5237.835c9.135,0,16.568-5.175,16.568-11.579v-16.775Z" transform="translate(-4722.179 -2549.809)" fill="#485f7a"/>
      <g id="Group_1" data-name="Group 1" transform="translate(102.204 0.02)">
        <path id="Path_2" data-name="Path 2" d="M5325.226,2558.447a9.2,9.2,0,0,0-2.663-2.687,9.581,9.581,0,0,0-8.466-4.349l-407.1-.079c-7.322,0-14.992,6.062-17.121,13.546L4814.9,2828.827c-1.464,5.139.132,9.567,3.621,11.859a9.223,9.223,0,0,0,2.662,2.688,9.614,9.614,0,0,0,8.468,4.347l174.421.027H5016.4l132.274.027h12.355l75.722.026a15.061,15.061,0,0,0,4.659-.79,19.721,19.721,0,0,0,8.812-6.061,17.936,17.936,0,0,0,3.649-6.694l74.975-263.951C5330.312,2565.168,5328.714,2560.74,5325.226,2558.447Z" transform="translate(-4814.357 -2551.332)" fill="#283747"/>
        <path id="Path_3" data-name="Path 3" d="M5107.951,2878.1l-167.253-.152-17.812-31.472h-12.329l18.453,31.624h-30.992a7.96,7.96,0,0,0-8.015,7.907v6.772a7.976,7.976,0,0,0,8.015,7.906h209.933a7.953,7.953,0,0,0,7.987-7.906v-6.772A7.937,7.937,0,0,0,5107.951,2878.1Z" transform="translate(-4814.032 -2550.062)" fill="#283747"/>
      </g>
      <g id="Group_2" data-name="Group 2" transform="translate(102.204)">
        <path id="Path_4" data-name="Path 4" d="M4824.223,2837.187c-7.25,0-11.423-5.959-9.321-13.305l74.208-259.267c2.1-7.348,9.686-13.3,16.937-13.3l402.94.062c7.249,0,11.422,5.958,9.319,13.3l-74.207,259.27c-2.1,7.346-9.684,13.3-16.934,13.3Z" transform="translate(-4814.357 -2551.312)" fill="#485f7a"/>
      </g>
      <path id="Path_5" data-name="Path 5" d="M5230.941,2823.927l-403.02-.062,74.229-259.344,403.02.062Z" transform="translate(-4712.095 -2551.255)" fill="#54d0ed"/>
      <g transform="matrix(1, 0, 0, 1, 0, 0)" filter="url(#Path_6)">
        <path id="Path_6-2" data-name="Path 6" d="M5224.621,2734.474l-339.816-.052c-5.556,0-8.754-4.567-7.143-10.2l17.96-62.751c1.612-5.631,7.424-10.2,12.981-10.2l339.816.052c5.558,0,8.757,4.567,7.145,10.2l-17.961,62.751C5235.991,2729.911,5230.179,2734.475,5224.621,2734.474Z" transform="translate(-4711.88 -2550.88)" fill="#fff"/>
      </g>
      <g id="Group_3" data-name="Group 3" transform="translate(217.94 120.617)">
        <path id="Path_7" data-name="Path 7" d="M4956.538,2690.53l15.189-13.668-7.612-5.448-10.851,16.552h-.209L4952,2671.412l-10.97,5.55,7.185,13.566-.062.213-15.464-3.42-3.087,10.787,17.4-2.988.045.215-15.1,13.346,7.5,5.45,10.715-16.447h.211l1.406,16.449,10.834-5.448-7.593-13.245.061-.212,16.144,2.885,3.088-10.787-17.841,3.415Z" transform="translate(-4929.598 -2671.412)" fill="#27ae60"/>
        <path id="Path_8" data-name="Path 8" d="M5101.058,2690.552l15.19-13.669-7.61-5.447-10.851,16.552h-.21l-1.059-16.553-10.97,5.55,7.186,13.566-.062.213-15.466-3.42-3.087,10.787,17.4-2.988.045.214-15.1,13.347,7.5,5.449,10.714-16.446h.212l1.4,16.448,10.834-5.447-7.594-13.245.061-.212,16.144,2.885,3.087-10.787-17.84,3.415Z" transform="translate(-4928.974 -2671.413)" fill="#27ae60"/>
        <path id="Path_9" data-name="Path 9" d="M5188.013,2698.148l3.087-10.787-17.84,3.415.061-.213,15.188-13.669-7.61-5.447L5170.048,2688h-.21l-1.057-16.554-10.97,5.55,7.184,13.567-.061.212-15.465-3.42-3.086,10.787,17.4-2.988.043.214-15.1,13.347,7.5,5.449,10.714-16.447h.211l1.405,16.449,10.833-5.447-7.592-13.245.062-.213Z" transform="translate(-4928.666 -2671.412)" fill="#27ae60"/>
        <path id="Path_10" data-name="Path 10" d="M5028.8,2690.542l15.189-13.669-7.611-5.447-10.851,16.552h-.21l-1.059-16.555-10.969,5.551,7.184,13.567-.061.212-15.465-3.42-3.086,10.787,17.4-2.988.044.214-15.1,13.347,7.5,5.449,10.715-16.447h.211l1.4,16.449,10.833-5.446-7.591-13.245.061-.212,16.143,2.886,3.087-10.787-17.84,3.415Z" transform="translate(-4929.288 -2671.412)" fill="#27ae60"/>
      </g>
      <path id="Path_11" data-name="Path 11" d="M5199.544,2886.009v6.773a7.911,7.911,0,0,1-7.905,7.906H5107.1a7.911,7.911,0,0,0,7.905-7.906v-6.773a7.9,7.9,0,0,0-7.905-7.906h60.4l-18.236-31.6h12.229l17.577,31.609,12.57-.012A7.9,7.9,0,0,1,5199.544,2886.009Z" transform="translate(-4710.895 -2550.042)" fill="#485f7a"/>
      <g id="Group_4" data-name="Group 4" transform="translate(72.96 325.847)">
        <path id="Path_12" data-name="Path 12" d="M4831.223,2875.763h-21.741a24.154,24.154,0,0,0-23.665,19.027h69.044A24.171,24.171,0,0,0,4831.223,2875.763Z" transform="translate(-4785.236 -2875.763)" fill="#485f7a"/>
        <path id="Path_13" data-name="Path 13" d="M4855.284,2897.2H4785.4a23.174,23.174,0,0,0-.158,2.687.583.583,0,0,0,.579.58h69.071a.562.562,0,0,0,.553-.58A22.75,22.75,0,0,0,4855.284,2897.2Z" transform="translate(-4785.239 -2875.671)" fill="#485f7a"/>
      </g>
      <path id="Path_14" data-name="Path 14" d="M4855.283,2897.212H4785.4a15.767,15.767,0,0,1,.42-2.5h69.045A15.935,15.935,0,0,1,4855.283,2897.212Z" transform="translate(-4712.278 -2549.835)" fill="#283747"/>
      <path id="Path_38" data-name="Path 38" d="M5266.859,2900.455v16.775c0,6.4-6.7,11.579-14.94,11.579H4739.1c-8.237,0-14.94-5.175-14.94-11.579v-16.775Z" transform="translate(-4724.158 -2549.809)" fill="#283747"/>
    </g>
    <g id="Phone" transform="translate(1632.785 523.271)">
      <path id="Path_453" data-name="Path 453" d="M9.082,0h9.082V217.729H8.256C3.7,217.729,0,213.546,0,208.385V10.279C0,4.6,4.066,0,9.082,0Z" transform="translate(0)" fill="#283747"/>
      <g id="Group_463" data-name="Group 463" transform="translate(4.86)">
        <path id="Path_19" data-name="Path 19" d="M4675.7,2568.27h-72.309c-7.773,0-14.07,5.6-14.07,12.524v4.716c0-6.827,6.221-12.365,13.9-12.365h72.656c7.676,0,13.9,5.537,13.9,12.365v-4.716C4689.767,2573.875,4683.47,2568.27,4675.7,2568.27Z" transform="translate(-4589.31 -2568.27)" fill="#283747"/>
        <path id="Path_452" data-name="Path 452" d="M10.266.12,89.854,0A10.516,10.516,0,0,1,100.37,10.516v194.07A10.516,10.516,0,0,1,89.854,215.1l-79.588.12A10.516,10.516,0,0,1-.25,204.706V10.636A10.516,10.516,0,0,1,10.266.12Z" transform="translate(0.25 2.507)" fill="#485f7a"/>
        <rect id="Rectangle_1" data-name="Rectangle 1" width="90.678" height="185.265" transform="translate(4.813 17.814)" fill="#fff"/>
        <g id="Group_8" data-name="Group 8" transform="translate(4.813 17.814)">
          <rect id="Rectangle_4" data-name="Rectangle 4" width="90.678" height="10.997" fill="#249b54"/>
          <g id="Group_7" data-name="Group 7" transform="translate(3.467 2.712)">
            <rect id="Rectangle_5" data-name="Rectangle 5" width="3.17" height="5.53" transform="translate(80.613 0.021)" fill="#fff"/>
            <path id="Path_20" data-name="Path 20" d="M4700,2604.095h2.244v-5.53l-6.188,5.572Z" transform="translate(-4624.507 -2598.565)" fill="#fff"/>
            <path id="Path_21" data-name="Path 21" d="M4600.382,2601.005l.061.241.4-.22h.006v2.036h.3v-2.329h-.268Z" transform="translate(-4600.382 -2599.112)" fill="#fff"/>
            <path id="Path_22" data-name="Path 22" d="M4603,2602.781l.188-.173c.491-.473.8-.819.8-1.25a.656.656,0,0,0-.713-.677,1.023,1.023,0,0,0-.66.237l.1.221a.8.8,0,0,1,.5-.2.414.414,0,0,1,.461.455c0,.352-.271.652-.865,1.219l-.248.24v.193h1.486v-.261H4603Z" transform="translate(-4600.929 -2599.099)" fill="#fff"/>
            <path id="Path_23" data-name="Path 23" d="M4605.265,2603.3a.224.224,0,1,0,.212.226A.212.212,0,0,0,4605.265,2603.3Z" transform="translate(-4601.558 -2599.76)" fill="#fff"/>
            <path id="Path_24" data-name="Path 24" d="M4605.265,2601.611a.224.224,0,1,0,.212.225A.212.212,0,0,0,4605.265,2601.611Z" transform="translate(-4601.558 -2599.333)" fill="#fff"/>
            <path id="Path_25" data-name="Path 25" d="M4606.776,2600.681c-.473,0-.81.43-.81,1.211s.315,1.2.771,1.2c.516,0,.809-.437.809-1.229C4607.546,2601.118,4607.267,2600.681,4606.776,2600.681Zm-.022,2.165c-.286,0-.472-.345-.472-.951,0-.634.2-.971.476-.971.326,0,.473.377.473.95C4607.23,2602.469,4607.076,2602.846,4606.754,2602.846Z" transform="translate(-4601.79 -2599.099)" fill="#fff"/>
            <path id="Path_26" data-name="Path 26" d="M4609.234,2600.681c-.473,0-.81.43-.81,1.211s.315,1.2.771,1.2c.517,0,.809-.437.809-1.229C4610,2601.118,4609.725,2600.681,4609.234,2600.681Zm-.021,2.165c-.286,0-.473-.345-.473-.951,0-.634.2-.971.476-.971.327,0,.473.377.473.95C4609.689,2602.469,4609.535,2602.846,4609.212,2602.846Z" transform="translate(-4602.409 -2599.099)" fill="#fff"/>
          </g>
        </g>
        <rect id="Rectangle_6" data-name="Rectangle 6" width="90.678" height="174.268" transform="translate(4.813 28.81)" opacity="0.1"/>
        <g transform="matrix(1, 0, 0, 1, -520.06, -161.27)" filter="url(#Path_27)">
          <path id="Path_27-2" data-name="Path 27" d="M4681.157,2666.942v74.072c0,1.933-2,3.5-4.463,3.5h-67.771c-2.463,0-4.462-1.567-4.462-3.5v-74.072c0-1.933,2-3.5,4.462-3.5h67.771C4679.158,2663.441,4681.157,2665.009,4681.157,2666.942Z" transform="translate(-4073.06 -2433.13)" fill="#fff"/>
        </g>
        <path id="Path_29" data-name="Path 29" d="M4663.9,2698.733h-2.585v-3.1a10.738,10.738,0,0,0-21.476,0v3.1h-2.586a4.175,4.175,0,0,0-4.181,4.18v23.323a4.178,4.178,0,0,0,4.181,4.179H4663.9a4.181,4.181,0,0,0,4.18-4.179v-23.323A4.178,4.178,0,0,0,4663.9,2698.733Zm-11.7,17.8v2.5a1.619,1.619,0,0,1-1.618,1.618h0a1.619,1.619,0,0,1-1.618-1.618v-2.5a4.179,4.179,0,1,1,3.237,0Zm6.082-17.8h-15.4v-3.1a7.7,7.7,0,0,1,15.4,0Z" transform="translate(-4600.343 -2599.811)" fill="#27ae60"/>
        <g id="Group_10" data-name="Group 10" transform="translate(4.813 28.81)">
          <rect id="Rectangle_7" data-name="Rectangle 7" width="90.678" height="17.841" fill="#27ae60"/>
          <g id="Group_9" data-name="Group 9" transform="translate(31.245 6.353)">
            <path id="Path_30" data-name="Path 30" d="M4637.767,2622.424a3,3,0,0,0,1.317.328c.546,0,.835-.227.835-.57,0-.327-.251-.513-.883-.731-.873-.313-1.449-.8-1.449-1.56,0-.9.757-1.573,1.988-1.573a3.075,3.075,0,0,1,1.341.265l-.266.95a2.449,2.449,0,0,0-1.09-.249c-.516,0-.765.241-.765.506,0,.336.288.483.973.74.929.344,1.357.827,1.357,1.567,0,.882-.67,1.63-2.112,1.63a3.426,3.426,0,0,1-1.489-.327Z" transform="translate(-4637.525 -2618.183)" fill="#fff"/>
            <path id="Path_31" data-name="Path 31" d="M4644.285,2622.6c.03.492.521.725,1.075.725a3.144,3.144,0,0,0,1.053-.164l.155.8a3.6,3.6,0,0,1-1.38.241,1.829,1.829,0,0,1-2.034-1.94,1.91,1.91,0,0,1,1.925-2.035,1.69,1.69,0,0,1,1.7,1.9,2.977,2.977,0,0,1-.037.468Zm1.394-.81a.688.688,0,0,0-.669-.772.784.784,0,0,0-.733.772Z" transform="translate(-4638.943 -2618.667)" fill="#fff"/>
            <path id="Path_32" data-name="Path 32" d="M4651.74,2624.03a2.713,2.713,0,0,1-1.061.178,1.852,1.852,0,0,1-2.018-1.947,1.987,1.987,0,0,1,2.182-2.028,2.764,2.764,0,0,1,.9.148l-.187.882a1.6,1.6,0,0,0-.663-.118,1.069,1.069,0,0,0,.025,2.136,1.666,1.666,0,0,0,.677-.124Z" transform="translate(-4640.334 -2618.667)" fill="#fff"/>
            <path id="Path_33" data-name="Path 33" d="M4657.244,2622.936c0,.5.016.9.031,1.224h-1.029l-.054-.538h-.024a1.357,1.357,0,0,1-1.192.623c-.78,0-1.34-.483-1.34-1.66v-2.238h1.184v2.051c0,.553.178.889.6.889a.659.659,0,0,0,.639-.671v-2.269h1.184Z" transform="translate(-4641.588 -2618.695)" fill="#fff"/>
            <path id="Path_34" data-name="Path 34" d="M4659.726,2621.572c0-.562-.007-.928-.031-1.255h1.014l.047.7h.029a1.113,1.113,0,0,1,1.03-.795,1.2,1.2,0,0,1,.25.023v1.115a1.915,1.915,0,0,0-.319-.031.76.76,0,0,0-.811.6,1.341,1.341,0,0,0-.024.265v1.933h-1.185Z" transform="translate(-4643.115 -2618.664)" fill="#fff"/>
            <path id="Path_35" data-name="Path 35" d="M4664.913,2618.731a.591.591,0,0,1-.64.593.594.594,0,1,1,.64-.593Zm-1.224,4.872v-3.812h1.185v3.813Z" transform="translate(-4644.115 -2618.138)" fill="#fff"/>
            <path id="Path_36" data-name="Path 36" d="M4667.767,2618.973V2620h.849v.874h-.849v1.38c0,.459.116.67.466.67a1.486,1.486,0,0,0,.351-.03l.01.9a2.525,2.525,0,0,1-.766.1,1.266,1.266,0,0,1-.9-.327,1.583,1.583,0,0,1-.327-1.13v-1.559h-.506V2620h.506v-.709Z" transform="translate(-4644.731 -2618.349)" fill="#fff"/>
            <path id="Path_37" data-name="Path 37" d="M4671.179,2620.347l.57,1.88c.062.217.14.507.187.709h.031c.046-.21.108-.491.163-.718l.476-1.871h1.262l-.889,2.511a5.786,5.786,0,0,1-1.339,2.5,2.092,2.092,0,0,1-1.138.523l-.258-1a1.879,1.879,0,0,0,.515-.2,1.371,1.371,0,0,0,.492-.476.366.366,0,0,0,.062-.172.461.461,0,0,0-.048-.194l-1.4-3.493Z" transform="translate(-4645.68 -2618.695)" fill="#fff"/>
          </g>
        </g>
        <rect id="Rectangle_2" data-name="Rectangle 2" width="35.087" height="1.556" transform="translate(32.628 10.272)" fill="#283747"/>
        <rect id="Rectangle_3" data-name="Rectangle 3" width="35.087" height="1.556" transform="translate(32.649 208.515)" fill="#283747"/>
      </g>
      <g id="Group_464" data-name="Group 464" transform="translate(0.956 28.319)">
        <g id="Button" transform="translate(0 16.431)">
          <path id="Rectangle_200" data-name="Rectangle 200" d="M.56,0h0a1.68,1.68,0,0,1,1.68,1.68V12.51a1.68,1.68,0,0,1-1.68,1.68h0a.56.56,0,0,1-.56-.56V.56A.56.56,0,0,1,.56,0Z" transform="translate(0)" fill="#485f7a"/>
          <rect id="Rectangle_199" data-name="Rectangle 199" width="1.494" height="14.191" rx="0.747" transform="translate(0)" fill="#90aac8"/>
        </g>
        <g id="Button-2" data-name="Button" transform="translate(0.001 0)">
          <path id="Rectangle_200-2" data-name="Rectangle 200" d="M.56,0h0a1.68,1.68,0,0,1,1.68,1.68v5.6A1.68,1.68,0,0,1,.56,8.963h0A.56.56,0,0,1,0,8.4V.56A.56.56,0,0,1,.56,0Z" transform="translate(0)" fill="#485f7a"/>
          <rect id="Rectangle_199-2" data-name="Rectangle 199" width="1.494" height="8.963" rx="0.747" transform="translate(0)" fill="#90aac8"/>
        </g>
        <g id="Button-3" data-name="Button" transform="translate(0 33.61)">
          <path id="Rectangle_200-3" data-name="Rectangle 200" d="M.56,0h0a1.68,1.68,0,0,1,1.68,1.68V12.51a1.68,1.68,0,0,1-1.68,1.68h0a.56.56,0,0,1-.56-.56V.56A.56.56,0,0,1,.56,0Z" transform="translate(0)" fill="#485f7a"/>
          <rect id="Rectangle_199-3" data-name="Rectangle 199" width="1.494" height="14.191" rx="0.747" transform="translate(0)" fill="#90aac8"/>
        </g>
      </g>
    </g>
  </g>
</svg>
